<svg width="20" height="20" viewBox="0 0 20 20" fill="none" xmlns="http://www.w3.org/2000/svg">
<g id="angle-small-down (14) 2">
<path id="Vector" d="M15.5897 6.84025C15.5123 6.76214 15.4201 6.70015 15.3185 6.65784C15.217 6.61553 15.1081 6.59375 14.9981 6.59375C14.888 6.59375 14.7791 6.61553 14.6776 6.65784C14.576 6.70015 14.4839 6.76214 14.4064 6.84025L10.5897 10.6569C10.5123 10.735 10.4201 10.797 10.3185 10.8393C10.217 10.8816 10.1081 10.9034 9.99806 10.9034C9.88805 10.9034 9.77913 10.8816 9.67758 10.8393C9.57603 10.797 9.48386 10.735 9.40639 10.6569L5.58972 6.84025C5.51225 6.76214 5.42009 6.70015 5.31854 6.65784C5.21699 6.61553 5.10807 6.59375 4.99806 6.59375C4.88805 6.59375 4.77912 6.61553 4.67758 6.65784C4.57603 6.70015 4.48386 6.76214 4.40639 6.84025C4.25118 6.99638 4.16406 7.20759 4.16406 7.42775C4.16406 7.6479 4.25118 7.85911 4.40639 8.01525L8.23139 11.8402C8.70014 12.3084 9.33555 12.5714 9.99806 12.5714C10.6606 12.5714 11.296 12.3084 11.7647 11.8402L15.5897 8.01525C15.7449 7.85911 15.8321 7.6479 15.8321 7.42775C15.8321 7.20759 15.7449 6.99638 15.5897 6.84025Z" fill="#A7A7A7"/>
</g>
</svg>
