<svg width="24" height="22" viewBox="0 0 24 22" fill="none" xmlns="http://www.w3.org/2000/svg">
<g id="cutlery (3) 1">
<g id="Group">
<path id="Vector" opacity="0.937" d="M0.826562 5.26223V5.27815L0.829904 5.29371C1.1529 6.79822 1.81525 8.13788 2.81588 9.31077C3.5266 10.2035 4.33461 10.7807 5.24161 11.027C6.1223 11.2662 7.08079 11.1893 8.11132 10.8091C8.60934 11.3426 9.10125 11.8829 9.58704 12.4302L9.60947 12.4554L9.64055 12.4686C9.82166 12.5456 10.011 12.5626 10.2042 12.52L10.242 12.5117L10.2711 12.4861L12.0865 10.8855L13.9019 9.2849L13.9171 9.27156L13.9281 9.25469C14.0015 9.14287 14.0456 9.01974 14.0594 8.88712L14.0621 8.86056L14.0555 8.83468C14.0033 8.62905 13.9387 8.42692 13.8615 8.22836C13.7608 7.69359 13.8519 7.19654 14.1366 6.73005C15.9071 4.91683 17.693 3.11671 19.4943 1.32965L19.5129 1.3112L19.5242 1.28754C19.5663 1.19892 19.6039 1.10848 19.6372 1.01625L19.6531 0.972207L19.6411 0.92695C19.5818 0.703046 19.4754 0.518877 19.292 0.437982C19.1086 0.357047 18.901 0.402804 18.696 0.510224L18.6757 0.520843L18.6596 0.53702L13.4389 5.75772L13.4323 5.76427L13.4266 5.77157C12.7366 6.65678 12.5189 7.64852 12.7759 8.73361L11.4387 9.91794C11.0075 9.53979 10.5871 9.1504 10.1775 8.74973C10.5022 7.95289 10.6159 7.17986 10.5118 6.43332C10.4036 5.65714 10.0614 4.91983 9.49327 4.2222L9.49371 4.22184L9.48458 4.21243C8.99378 3.70687 8.46443 3.24997 7.89647 2.84184C6.72792 1.99136 5.4191 1.51617 3.97313 1.41726L3.96462 1.41668L3.95611 1.41707C3.12286 1.45478 2.4357 1.68467 1.90711 2.11818C1.37837 2.55182 1.02242 3.17763 0.830658 3.98132L0.826562 3.99849V4.01613V4.01857V4.021V4.02343V4.02587V4.0283V4.03074V4.03317V4.0356V4.03804V4.04047V4.04291V4.04534V4.04777V4.05021V4.05264V4.05507V4.05751V4.05994V4.06238V4.06481V4.06724V4.06968V4.07211V4.07455V4.07698V4.07941V4.08185V4.08428V4.08671V4.08915V4.09158V4.09402V4.09645V4.09888V4.10132V4.10375V4.10618V4.10862V4.11105V4.11349V4.11592V4.11835V4.12079V4.12322V4.12566V4.12809V4.13052V4.13296V4.13539V4.13782V4.14026V4.14269V4.14513V4.14756V4.14999V4.15243V4.15486V4.1573V4.15973V4.16216V4.1646V4.16703V4.16946V4.1719V4.17433V4.17677V4.1792V4.18163V4.18407V4.1865V4.18893V4.19137V4.1938V4.19624V4.19867V4.2011V4.20354V4.20597V4.20841V4.21084V4.21327V4.21571V4.21814V4.22057V4.22301V4.22544V4.22788V4.23031V4.23274V4.23518V4.23761V4.24004V4.24248V4.24491V4.24735V4.24978V4.25221V4.25465V4.25708V4.25951V4.26195V4.26438V4.26682V4.26925V4.27168V4.27412V4.27655V4.27898V4.28142V4.28385V4.28629V4.28872V4.29115V4.29359V4.29602V4.29845V4.30089V4.30332V4.30576V4.30819V4.31062V4.31306V4.31549V4.31793V4.32036V4.32279V4.32523V4.32766V4.33009V4.33253V4.33496V4.3374V4.33983V4.34226V4.3447V4.34713V4.34956V4.352V4.35443V4.35687V4.3593V4.36173V4.36417V4.3666V4.36903V4.37147V4.3739V4.37634V4.37877V4.3812V4.38364V4.38607V4.3885V4.39094V4.39337V4.39581V4.39824V4.40067V4.40311V4.40554V4.40797V4.41041V4.41284V4.41528V4.41771V4.42014V4.42258V4.42501V4.42744V4.42988V4.43231V4.43475V4.43718V4.43961V4.44205V4.44448V4.44691V4.44935V4.45178V4.45422V4.45665V4.45908V4.46152V4.46395V4.46638V4.46882V4.47125V4.47369V4.47612V4.47855V4.48099V4.48342V4.48585V4.48829V4.49072V4.49316V4.49559V4.49802V4.50046V4.50289V4.50532V4.50776V4.51019V4.51263V4.51506V4.51749V4.51993V4.52236V4.52479V4.52723V4.52966V4.5321V4.53453V4.53696V4.5394V4.54183V4.54426V4.5467V4.54913V4.55157V4.554V4.55643V4.55887V4.5613V4.56373V4.56617V4.5686V4.57103V4.57347V4.5759V4.57834V4.58077V4.5832V4.58564V4.58807V4.59051V4.59294V4.59537V4.59781V4.60024V4.60267V4.60511V4.60754V4.60997V4.61241V4.61484V4.61728V4.61971V4.62214V4.62458V4.62701V4.62944V4.63188V4.63431V4.63675V4.63918V4.64161V4.64405V4.64648V4.64891V4.65135V4.65378V4.65622V4.65865V4.66108V4.66352V4.66595V4.66838V4.67082V4.67325V4.67569V4.67812V4.68055V4.68299V4.68542V4.68785V4.69029V4.69272V4.69516V4.69759V4.70002V4.70246V4.70489V4.70732V4.70976V4.71219V4.71463V4.71706V4.71949V4.72193V4.72436V4.72679V4.72923V4.73166V4.7341V4.73653V4.73896V4.7414V4.74383V4.74626V4.7487V4.75113V4.75357V4.756V4.75843V4.76087V4.7633V4.76573V4.76817V4.7706V4.77304V4.77547V4.7779V4.78034V4.78277V4.7852V4.78764V4.79007V4.79251V4.79494V4.79737V4.79981V4.80224V4.80467V4.80711V4.80954V4.81198V4.81441V4.81684V4.81928V4.82171V4.82414V4.82658V4.82901V4.83145V4.83388V4.83631V4.83875V4.84118V4.84361V4.84605V4.84848V4.85091V4.85335V4.85578V4.85822V4.86065V4.86308V4.86552V4.86795V4.87039V4.87282V4.87525V4.87769V4.88012V4.88255V4.88499V4.88742V4.88985V4.89229V4.89472V4.89716V4.89959V4.90202V4.90446V4.90689V4.90933V4.91176V4.91419V4.91663V4.91906V4.92149V4.92393V4.92636V4.9288V4.93123V4.93366V4.9361V4.93853V4.94096V4.9434V4.94583V4.94827V4.9507V4.95313V4.95557V4.958V4.96043V4.96287V4.9653V4.96774V4.97017V4.9726V4.97504V4.97747V4.9799V4.98234V4.98477V4.98721V4.98964V4.99207V4.99451V4.99694V4.99937V5.00181V5.00424V5.00668V5.00911V5.01154V5.01398V5.01641V5.01884V5.02128V5.02371V5.02615V5.02858V5.03101V5.03345V5.03588V5.03831V5.04075V5.04318V5.04562V5.04805V5.05048V5.05292V5.05535V5.05779V5.06022V5.06265V5.06509V5.06752V5.06995V5.07239V5.07482V5.07726V5.07969V5.08212V5.08456V5.08699V5.08942V5.09186V5.09429V5.09673V5.09916V5.10159V5.10403V5.10646V5.1089V5.11133V5.11376V5.1162V5.11863V5.12106V5.1235V5.12593V5.12837V5.1308V5.13323V5.13567V5.1381V5.14053V5.14297V5.1454V5.14784V5.15027V5.1527V5.15514V5.15757V5.16001V5.16244V5.16487V5.16731V5.16974V5.17217V5.17461V5.17704V5.17948V5.18191V5.18434V5.18678V5.18921V5.19165V5.19408V5.19651V5.19895V5.20138V5.20381V5.20625V5.20868V5.21112V5.21355V5.21598V5.21842V5.22085V5.22328V5.22572V5.22815V5.23059V5.23302V5.23545V5.23789V5.24032V5.24276V5.24519V5.24762V5.25006V5.25249V5.25492V5.25736V5.25979V5.26223ZM6.40348 3.26627L6.4036 3.26633C7.32377 3.77861 8.13208 4.43166 8.82906 5.22603C9.40709 6.05408 9.55589 6.94843 9.27741 7.92205C9.16018 8.23278 9.02708 8.53368 8.87818 8.82477L8.85531 8.86947L8.86396 8.91892C8.90498 9.15351 9.02521 9.34387 9.21896 9.48327L10.5887 10.6964C10.4014 10.8593 10.2162 11.0247 10.0329 11.1925L9.51111 10.5988L8.89297 9.89536C8.74923 9.69621 8.55667 9.56319 8.31987 9.5001L8.26364 9.48512L8.21203 9.51197C7.30034 9.98624 6.47407 10.1314 5.72609 9.96893C4.97808 9.80647 4.28568 9.33144 3.6513 8.52131L3.65136 8.52127L3.6485 8.51784C3.06569 7.8175 2.60096 7.043 2.2541 6.19379L2.2541 6.19379L2.25356 6.19248C1.92044 5.39838 1.86463 4.59093 2.08538 3.76486C2.38054 3.08668 2.88449 2.69435 3.61154 2.57598C4.60466 2.55155 5.53439 2.7814 6.40348 3.26627Z" fill="#6A6A6A" stroke="#6A6A6A" stroke-width="0.3"/>
</g>
<g id="Group_2">
<path id="Vector_2" opacity="0.956" d="M20.0961 1.59588L20.0568 1.59696L20.0287 1.62461C18.5845 3.04731 17.1448 4.47983 15.7096 5.92219L15.6881 5.94377L15.6823 5.97367C15.6343 6.22111 15.6512 6.43452 15.785 6.56832C15.9188 6.70213 16.1322 6.71898 16.3796 6.67097L16.4097 6.66514L16.4313 6.64351L20.6637 2.41109L20.6811 2.39367L20.6885 2.37016C20.7603 2.13978 20.7652 1.93378 20.6524 1.78659C20.5398 1.63983 20.3391 1.58927 20.0961 1.59588Z" fill="#6A6A6A" stroke="#6A6A6A" stroke-width="0.2"/>
</g>
<g id="Group_3">
<path id="Vector_3" opacity="0.923" d="M21.3169 2.67419L21.2828 2.66998L21.2533 2.68765C21.1926 2.72402 21.1254 2.75771 21.0514 2.78856L21.0331 2.79617L21.0191 2.81015L16.8726 6.95663L16.861 6.9683L16.8537 6.9831C16.8067 7.07829 16.7688 7.17708 16.7397 7.27934L16.7325 7.30501L16.7389 7.3309C16.7893 7.53235 16.8818 7.68777 17.0335 7.76361C17.1847 7.8392 17.366 7.82131 17.5607 7.7432L17.5797 7.73557L17.5941 7.7211L21.7836 3.53165L21.7988 3.51648L21.8064 3.49643C21.8875 3.2828 21.9036 3.0873 21.8124 2.93368C21.7209 2.77961 21.542 2.70194 21.3169 2.67419Z" fill="#6A6A6A" stroke="#6A6A6A" stroke-width="0.2"/>
</g>
<g id="Group_4">
<path id="Vector_4" opacity="0.934" d="M23.1263 4.27302V4.21991L23.0929 4.17863C22.9902 4.05179 22.866 3.96224 22.7185 3.92783C22.5713 3.89347 22.4197 3.91849 22.2702 3.98588L22.2449 3.99729L22.2253 4.01698C20.424 5.83256 18.6097 7.6327 16.7822 9.4174C16.3554 9.67468 15.8983 9.76549 15.4048 9.69093C15.1697 9.61754 14.9334 9.55324 14.6959 9.49801L14.6839 9.49522L14.6716 9.49443C14.5296 9.48523 14.3993 9.52453 14.2888 9.61298L14.279 9.62083L14.2706 9.63021C11.1445 13.1354 8.02623 16.647 4.91596 20.1649L4.80329 20.24L4.68659 20.3178C4.25655 20.494 3.86206 20.445 3.4836 20.167C3.22948 19.8867 3.11222 19.6184 3.10623 19.3606C3.10022 19.1022 3.20529 18.8285 3.44708 18.5366C5.05445 17.1437 6.64908 15.735 8.23102 14.3103L8.26003 14.2841L8.27263 14.2472C8.35626 14.0017 8.37638 13.7643 8.24759 13.5907C8.11806 13.4161 7.8854 13.3695 7.62865 13.383L7.57727 13.3857L7.53836 13.4193C5.81982 14.9061 4.12148 16.4182 2.44338 17.9554L2.43411 17.9639L2.42639 17.9738C2.2542 18.1947 2.13073 18.4418 2.05627 18.7139L2.05623 18.7139L2.05532 18.7176C1.85714 19.5209 2.02602 20.2437 2.55939 20.8703L2.56738 20.8796L2.57679 20.8876C3.10383 21.333 3.64536 21.5676 4.199 21.5676C4.75264 21.5676 5.29417 21.333 5.82121 20.8876L5.82996 20.8802L5.83749 20.8716C7.68964 18.7456 9.5636 16.6392 11.4594 14.5522C13.3904 16.7288 15.3302 18.9003 17.2789 21.0667L17.2885 21.0774L17.2999 21.086C17.5083 21.2436 17.7371 21.3656 17.9858 21.4519L17.9857 21.4522L17.9962 21.455C18.5197 21.595 19.0036 21.5946 19.442 21.4433C19.8804 21.2919 20.2601 20.9942 20.5829 20.562L20.5892 20.5535L20.5943 20.5442C20.8361 20.1019 20.9497 19.6593 20.9265 19.2187C20.9033 18.7781 20.7439 18.3505 20.457 17.9374L20.4471 17.9232L20.4342 17.9116C18.2479 15.9401 16.0488 13.9846 13.837 12.045L13.8371 12.0449L13.8321 12.0409C13.8009 12.0159 13.774 11.9885 13.751 11.9586C14.1148 11.539 14.4844 11.1249 14.8597 10.7164C15.9109 11.0082 16.8765 10.8108 17.7413 10.127L17.748 10.1217L17.7541 10.1156C19.5402 8.33665 21.3165 6.55317 23.083 4.76516L23.1263 4.72134V4.65974V4.65899V4.65823V4.65747V4.65672V4.65596V4.65521V4.65445V4.6537V4.65294V4.65219V4.65143V4.65068V4.64992V4.64917V4.64841V4.64766V4.6469V4.64615V4.64539V4.64463V4.64388V4.64312V4.64237V4.64161V4.64086V4.6401V4.63935V4.63859V4.63784V4.63708V4.63633V4.63557V4.63482V4.63406V4.6333V4.63255V4.63179V4.63104V4.63028V4.62953V4.62877V4.62802V4.62726V4.62651V4.62575V4.625V4.62424V4.62349V4.62273V4.62198V4.62122V4.62046V4.61971V4.61895V4.6182V4.61744V4.61669V4.61593V4.61518V4.61442V4.61367V4.61291V4.61216V4.6114V4.61065V4.60989V4.60913V4.60838V4.60762V4.60687V4.60611V4.60536V4.6046V4.60385V4.60309V4.60234V4.60158V4.60083V4.60007V4.59932V4.59856V4.59781V4.59705V4.59629V4.59554V4.59478V4.59403V4.59327V4.59252V4.59176V4.59101V4.59025V4.5895V4.58874V4.58799V4.58723V4.58648V4.58572V4.58496V4.58421V4.58345V4.5827V4.58194V4.58119V4.58043V4.57968V4.57892V4.57817V4.57741V4.57666V4.5759V4.57515V4.57439V4.57364V4.57288V4.57212V4.57137V4.57061V4.56986V4.5691V4.56835V4.56759V4.56684V4.56608V4.56533V4.56457V4.56382V4.56306V4.56231V4.56155V4.5608V4.56004V4.55928V4.55853V4.55777V4.55702V4.55626V4.55551V4.55475V4.554V4.55324V4.55249V4.55173V4.55098V4.55022V4.54947V4.54871V4.54795V4.5472V4.54644V4.54569V4.54493V4.54418V4.54342V4.54267V4.54191V4.54116V4.5404V4.53965V4.53889V4.53814V4.53738V4.53663V4.53587V4.53511V4.53436V4.5336V4.53285V4.53209V4.53134V4.53058V4.52983V4.52907V4.52832V4.52756V4.52681V4.52605V4.5253V4.52454V4.52378V4.52303V4.52227V4.52152V4.52076V4.52001V4.51925V4.5185V4.51774V4.51699V4.51623V4.51548V4.51472V4.51397V4.51321V4.51246V4.5117V4.51094V4.51019V4.50943V4.50868V4.50792V4.50717V4.50641V4.50566V4.5049V4.50415V4.50339V4.50264V4.50188V4.50113V4.50037V4.49961V4.49886V4.4981V4.49735V4.49659V4.49584V4.49508V4.49433V4.49357V4.49282V4.49206V4.49131V4.49055V4.4898V4.48904V4.48829V4.48753V4.48677V4.48602V4.48526V4.48451V4.48375V4.483V4.48224V4.48149V4.48073V4.47998V4.47922V4.47847V4.47771V4.47696V4.4762V4.47545V4.47469V4.47393V4.47318V4.47242V4.47167V4.47091V4.47016V4.4694V4.46865V4.46789V4.46714V4.46638V4.46563V4.46487V4.46412V4.46336V4.4626V4.46185V4.46109V4.46034V4.45958V4.45883V4.45807V4.45732V4.45656V4.45581V4.45505V4.4543V4.45354V4.45279V4.45203V4.45128V4.45052V4.44976V4.44901V4.44825V4.4475V4.44674V4.44599V4.44523V4.44448V4.44372V4.44297V4.44221V4.44146V4.4407V4.43995V4.43919V4.43843V4.43768V4.43692V4.43617V4.43541V4.43466V4.4339V4.43315V4.43239V4.43164V4.43088V4.43013V4.42937V4.42862V4.42786V4.42711V4.42635V4.42559V4.42484V4.42408V4.42333V4.42257V4.42182V4.42106V4.42031V4.41955V4.4188V4.41804V4.41729V4.41653V4.41578V4.41502V4.41426V4.41351V4.41275V4.412V4.41124V4.41049V4.40973V4.40898V4.40822V4.40747V4.40671V4.40596V4.4052V4.40445V4.40369V4.40294V4.40218V4.40142V4.40067V4.39991V4.39916V4.3984V4.39765V4.39689V4.39614V4.39538V4.39463V4.39387V4.39312V4.39236V4.39161V4.39085V4.39009V4.38934V4.38858V4.38783V4.38707V4.38632V4.38556V4.38481V4.38405V4.3833V4.38254V4.38179V4.38103V4.38028V4.37952V4.37877V4.37801V4.37725V4.3765V4.37574V4.37499V4.37423V4.37348V4.37272V4.37197V4.37121V4.37046V4.3697V4.36895V4.36819V4.36744V4.36668V4.36593V4.36517V4.36441V4.36366V4.3629V4.36215V4.36139V4.36064V4.35988V4.35913V4.35837V4.35762V4.35686V4.35611V4.35535V4.3546V4.35384V4.35308V4.35233V4.35157V4.35082V4.35006V4.34931V4.34855V4.3478V4.34704V4.34629V4.34553V4.34478V4.34402V4.34327V4.34251V4.34176V4.341V4.34024V4.33949V4.33873V4.33798V4.33722V4.33647V4.33571V4.33496V4.3342V4.33345V4.33269V4.33194V4.33118V4.33043V4.32967V4.32891V4.32816V4.3274V4.32665V4.32589V4.32514V4.32438V4.32363V4.32287V4.32212V4.32136V4.32061V4.31985V4.3191V4.31834V4.31759V4.31683V4.31607V4.31532V4.31456V4.31381V4.31305V4.3123V4.31154V4.31079V4.31003V4.30928V4.30852V4.30777V4.30701V4.30626V4.3055V4.30474V4.30399V4.30323V4.30248V4.30172V4.30097V4.30021V4.29946V4.2987V4.29795V4.29719V4.29644V4.29568V4.29493V4.29417V4.29342V4.29266V4.2919V4.29115V4.29039V4.28964V4.28888V4.28813V4.28737V4.28662V4.28586V4.28511V4.28435V4.2836V4.28284V4.28209V4.28133V4.28058V4.27982V4.27906V4.27831V4.27755V4.2768V4.27604V4.27529V4.27453V4.27378V4.27302ZM12.2232 13.6666C12.4796 13.3979 12.7202 13.1178 12.9451 12.8261C15.1831 14.7365 17.3921 16.687 19.5721 18.6777C19.7547 18.9835 19.816 19.2574 19.7771 19.5052C19.738 19.7552 19.5935 20.0017 19.3207 20.2435C19.0993 20.3768 18.8868 20.4357 18.6807 20.4296C18.4757 20.4236 18.2654 20.3529 18.0481 20.2078C16.0911 18.0397 14.1495 15.8593 12.2232 13.6666Z" fill="#6A6A6A" stroke="#6A6A6A" stroke-width="0.3"/>
</g>
</g>
</svg>
