<svg width="24" height="24" viewBox="0 0 24 24" fill="none" xmlns="http://www.w3.org/2000/svg">
<g id="Group 950683304">
<path id="Vector" d="M18.656 0.932025L6.46402 13.124C5.99836 13.5872 5.6292 14.1381 5.3779 14.7449C5.1266 15.3516 4.99817 16.0022 5.00002 16.659V18.002C5.00002 18.2672 5.10538 18.5216 5.29291 18.7091C5.48045 18.8967 5.7348 19.002 6.00002 19.002H7.34302C7.99978 19.0039 8.65039 18.8754 9.25717 18.6241C9.86396 18.3728 10.4149 18.0037 10.878 17.538L23.07 5.34602C23.6544 4.76019 23.9826 3.9665 23.9826 3.13902C23.9826 2.31155 23.6544 1.51785 23.07 0.932025C22.4757 0.363919 21.6852 0.046875 20.863 0.046875C20.0408 0.046875 19.2503 0.363919 18.656 0.932025ZM21.656 3.93202L9.46402 16.124C8.90014 16.6844 8.13802 16.9999 7.34302 17.002H7.00002V16.659C7.0021 15.864 7.31758 15.1019 7.87802 14.538L20.07 2.34602C20.2836 2.14198 20.5676 2.02812 20.863 2.02812C21.1584 2.02812 21.4424 2.14198 21.656 2.34602C21.8659 2.55654 21.9838 2.84171 21.9838 3.13902C21.9838 3.43633 21.8659 3.72151 21.656 3.93202Z" fill="url(#paint0_linear_3423_16729)"/>
<path id="Vector_2" d="M23 8.97899C22.7348 8.97899 22.4804 9.08435 22.2929 9.27188C22.1053 9.45942 22 9.71377 22 9.97899V15H18C17.2043 15 16.4413 15.3161 15.8787 15.8787C15.3161 16.4413 15 17.2043 15 18V22H5C4.20435 22 3.44129 21.6839 2.87868 21.1213C2.31607 20.5587 2 19.7956 2 19V5C2 4.20435 2.31607 3.44129 2.87868 2.87868C3.44129 2.31607 4.20435 2 5 2H14.042C14.3072 2 14.5616 1.89464 14.7491 1.70711C14.9366 1.51957 15.042 1.26522 15.042 0.999999C15.042 0.734783 14.9366 0.480429 14.7491 0.292893C14.5616 0.105357 14.3072 0 14.042 0L5 0C3.6744 0.00158786 2.40356 0.528881 1.46622 1.46622C0.528881 2.40356 0.00158786 3.6744 0 5L0 19C0.00158786 20.3256 0.528881 21.5964 1.46622 22.5338C2.40356 23.4711 3.6744 23.9984 5 24H16.343C16.9999 24.0019 17.6507 23.8734 18.2576 23.6221C18.8646 23.3708 19.4157 23.0017 19.879 22.536L22.535 19.878C23.0007 19.4149 23.37 18.864 23.6215 18.2572C23.8729 17.6504 24.0016 16.9998 24 16.343V9.97899C24 9.71377 23.8946 9.45942 23.7071 9.27188C23.5196 9.08435 23.2652 8.97899 23 8.97899ZM18.465 21.122C18.063 21.523 17.5547 21.8006 17 21.922V18C17 17.7348 17.1053 17.4804 17.2929 17.2929C17.4804 17.1053 17.7348 17 18 17H21.925C21.8013 17.5535 21.524 18.0609 21.125 18.464L18.465 21.122Z" fill="url(#paint1_linear_3423_16729)"/>
</g>
<defs>
<linearGradient id="paint0_linear_3423_16729" x1="5" y1="-25.2583" x2="15.6577" y2="24.9223" gradientUnits="userSpaceOnUse">
<stop stop-color="#FFDA46"/>
<stop offset="1" stop-color="#FFAE00"/>
</linearGradient>
<linearGradient id="paint1_linear_3423_16729" x1="-3.3348e-07" y1="-32.04" x2="13.512" y2="31.488" gradientUnits="userSpaceOnUse">
<stop stop-color="#FFDA46"/>
<stop offset="1" stop-color="#FFAE00"/>
</linearGradient>
</defs>
</svg>
