<svg width="22" height="22" viewBox="0 0 22 22" fill="none" xmlns="http://www.w3.org/2000/svg">
<g id="8034722 1" clip-path="url(#clip0_3372_19857)">
<path id="Vector" d="M10.9991 13.7491C10.4931 13.7491 10.0824 13.3394 10.0824 12.8324V4.58244C10.0824 4.07552 10.4931 3.66577 10.9991 3.66577C11.5051 3.66577 11.9158 4.07552 11.9158 4.58244V12.8324C11.9158 13.3394 11.5051 13.7491 10.9991 13.7491ZM10.9991 15.5824C10.2401 15.5824 9.62411 16.1984 9.62411 16.9574C9.62411 17.7164 10.2401 18.3324 10.9991 18.3324C11.7581 18.3324 12.3741 17.7164 12.3741 16.9574C12.3741 16.1984 11.7581 15.5824 10.9991 15.5824ZM21.9991 17.4158V11.3108C21.9991 5.37169 17.5038 0.415272 11.7654 0.024772C8.58278 -0.187895 5.46245 0.976272 3.2157 3.22669C0.968032 5.47802 -0.194301 8.59561 0.0266154 11.7819C0.429949 17.6064 5.57428 21.9991 11.9928 21.9991H17.4167C19.9439 21.9991 22 19.943 22 17.4158H21.9991ZM11.6417 1.85444C16.4221 2.17894 20.1658 6.33236 20.1658 11.3099V17.4149C20.1658 18.931 18.9319 20.1649 17.4158 20.1649H11.9919C6.45978 20.1649 2.19637 16.5862 1.85445 11.6545C1.6702 8.99711 2.6382 6.39744 4.51187 4.52194C6.23703 2.79402 8.57728 1.83244 11.0129 1.83244C11.2219 1.83244 11.4318 1.83977 11.6408 1.85352L11.6417 1.85444Z" fill="#6A6A6A"/>
</g>
<defs>
<clipPath id="clip0_3372_19857">
<rect width="22" height="22" fill="white"/>
</clipPath>
</defs>
</svg>
