<svg width="22" height="22" viewBox="0 0 22 22" fill="none" xmlns="http://www.w3.org/2000/svg">
<g id="graduation-cap 1" clip-path="url(#clip0_3372_19829)">
<path id="Vector" d="M18.3339 16.1494V11.6514L20.0172 10.8467V10.775H20.1672L20.2319 10.9103L20.1672 10.9413V18.3357C20.1672 18.8419 20.5776 19.2523 21.0839 19.2523C21.5901 19.2523 22.0005 18.8419 22.0005 18.3357V7.33566C22.0066 6.25925 21.1567 5.26486 20.2194 4.79651L20.1549 4.93192L20.1536 4.93132C21.0594 5.38444 21.8562 6.33547 21.8505 7.33481V7.33566V18.3357C21.8505 18.7591 21.5073 19.1023 21.0839 19.1023C20.6605 19.1023 20.3172 18.7591 20.3172 18.3357V10.775V10.537L20.1025 10.6397L18.2692 11.516L18.1839 11.5568V11.6514V16.1494M18.3339 16.1494L18.1839 16.1494M18.3339 16.1494H18.1839V16.1494M18.3339 16.1494C18.3328 18.1579 17.0259 19.9324 15.1081 20.5293C13.7733 20.9138 12.3895 21.1013 11.0005 21.0857L20.1523 4.93069L13.3954 1.71167L13.3826 1.7056L13.383 1.70503C11.9416 0.844096 10.1477 0.828819 8.69186 1.66507L8.68192 1.67078L8.68174 1.67038L1.84751 4.93125C1.82312 4.94348 1.80076 4.95514 1.781 4.96683L1.77905 4.96799L1.77904 4.96797C0.228802 5.85438 -0.309378 7.82967 0.577023 9.3799L0.446807 9.45436L0.577026 9.37991C0.876888 9.90439 1.31769 10.3343 1.84944 10.621L3.7317 11.5178L3.81719 11.5585V11.6532V16.1448C3.81827 18.0871 5.08179 19.8032 6.93607 20.381C8.25615 20.7628 9.62491 20.9496 10.999 20.9357L11.0022 20.9357C12.3761 20.9511 13.7448 20.7658 15.0651 20.3856C16.9193 19.8077 18.1828 18.0917 18.1839 16.1494M14.6167 18.9181L14.6167 18.9181L14.6205 18.9169C15.829 18.5369 16.651 17.4163 16.6505 16.1494C16.6505 16.1494 16.6505 16.1494 16.6505 16.1494V12.5268V12.2888L16.4358 12.3914L13.3183 13.8811L13.318 13.8805L13.3067 13.8872C12.6149 14.2956 11.8251 14.5082 11.0217 14.5025L11.0203 14.5025C10.1749 14.5047 9.34462 14.2778 8.61767 13.8462L8.61799 13.8456L8.60559 13.8397L5.565 12.3914L5.35049 12.2892V12.5268V16.1494C5.35049 16.1494 5.35049 16.1494 5.35049 16.1494C5.35002 17.4163 6.17198 18.5369 7.38049 18.9169L7.38047 18.917L7.38428 18.9181C8.55982 19.254 9.77797 19.4171 11.0005 19.4024C12.223 19.4171 13.4412 19.254 14.6167 18.9181ZM19.4985 9.23562L19.5061 9.23198L19.5133 9.22751C20.0141 8.91492 20.3181 8.36587 20.3171 7.77545L20.3171 7.77391C20.3097 7.1515 19.9692 6.58088 19.4251 6.27871L19.4252 6.27846L19.4168 6.27443L12.6645 3.05763C11.6713 2.44845 10.424 2.43225 9.4152 3.01557L2.55019 6.29465L2.55001 6.29428L2.54035 6.29981C2.26459 6.45757 2.03849 6.68937 1.88769 6.96901C1.4418 7.79586 1.75066 8.82764 2.57755 9.27353L2.57745 9.2737L2.58431 9.27696L9.34105 12.491C10.334 13.1014 11.5819 13.1176 12.5904 12.533L19.4985 9.23562Z" fill="#6A6A6A" stroke="#6A6A6A" stroke-width="0.3"/>
</g>
<defs>
<clipPath id="clip0_3372_19829">
<rect width="22" height="22" fill="white"/>
</clipPath>
</defs>
</svg>
