<svg width="24" height="22" viewBox="0 0 24 22" fill="none" xmlns="http://www.w3.org/2000/svg">
<g id="home (2) (1) 1">
<g id="Group">
<path id="Vector" d="M13.9176 14.5063C13.8962 14.3086 13.8325 14.1619 13.7336 14.0571C13.6352 13.9526 13.4935 13.8809 13.2992 13.8483C12.4179 13.827 11.5365 13.8199 10.655 13.8269L13.9176 14.5063ZM13.9176 14.5063C13.9387 16.2757 13.946 18.045 13.9394 19.8145H13.9343H13.9263H13.9182H13.9102H13.9021H13.894H13.886H13.8779H13.8699H13.8618H13.8538H13.8457H13.8376H13.8296H13.8215H13.8135H13.8054H13.7974H13.7893H13.7812H13.7732H13.7651H13.7571H13.749H13.741H13.7329H13.7249H13.7168H13.7087H13.7007H13.6926H13.6846H13.6765H13.6685H13.6604H13.6523H13.6443H13.6362H13.6282H13.6201H13.6121H13.604H13.5959H13.5879H13.5798H13.5718H13.5637H13.5557H13.5476H13.5396H13.5315H13.5234H13.5154H13.5073H13.4993H13.4912H13.4832H13.4751H13.467H13.459H13.4509H13.4429H13.4348H13.4268H13.4187H13.4106H13.4026H13.3945H13.3865H13.3784H13.3704H13.3623H13.3542H13.3462H13.3381H13.3301H13.322H13.314H13.3059H13.2979H13.2898H13.2817H13.2737H13.2656H13.2576H13.2495H13.2415H13.2334H13.2253H13.2173H13.2092H13.2012H13.1931H13.1851H13.177H13.1689H13.1609H13.1528H13.1448H13.1367H13.1287H13.1206H13.1125H13.1045H13.0964H13.0884H13.0803H13.0723H13.0642H13.0562H13.0481H13.04H13.032H13.0239H13.0159H13.0078H12.9998H12.9917H12.9836H12.9756H12.9675H12.9595H12.9514H12.9434H12.9353H12.9272H12.9192H12.9111H12.9031H12.895H12.887H12.8789H12.8708H12.8628H12.8547H12.8467H12.8386H12.8306H12.8225H12.8145H12.8064H12.7983H12.7903H12.7822H12.7742H12.7661H12.7581H12.75H12.7419H12.7339H12.7258H12.7178H12.7097H12.7017H12.6936H12.6855H12.6775H12.6694H12.6614H12.6533H12.6453H12.6372H12.6292H12.6211H12.613H12.605H12.5969H12.5889H12.5808H12.5728H12.5647H12.5566H12.5486H12.5405H12.5325H12.5244H12.5164H12.5083H12.5002H12.4922H12.4841H12.4761H12.468H12.46H12.4519H12.4438H12.4358H12.4277H12.4197H12.4116H12.4036H12.3955H12.3875H12.3794H12.3713H12.3633H12.3552H12.3472H12.3391H12.3311H12.323H12.3149H12.3069H12.2988H12.2908H12.2827H12.2747H12.2666H12.2585H12.2505H12.2424H12.2344H12.2263H12.2183H12.2102H12.2021H12.1941H12.186H12.178H12.1699H12.1619H12.1538H12.1458H12.1377H12.1296H12.1216H12.1135H12.1055H12.0974H12.0894H12.0813H12.0732H12.0652H12.0571H12.0491H12.041H12.033H12.0249H12.0168H12.0088H12.0007H11.9927H11.9846H11.9766H11.9685H11.9604H11.9524H11.9443H11.9363H11.9282H11.9202H11.9121H11.9041H11.896H11.8879H11.8799H11.8718H11.8638H11.8557H11.8477H11.8396H11.8315H11.8235H11.8154H11.8074H11.7993H11.7913H11.7832H11.7751H11.7671H11.759H11.751H11.7429H11.7349H11.7268H11.7188H11.7107H11.7026H11.6946H11.6865H11.6785H11.6704H11.6624H11.6543H11.6462H11.6382H11.6301H11.6221H11.614H11.606H11.5979H11.5898H11.5818H11.5737H11.5657H11.5576H11.5496H11.5415H11.5334H11.5254H11.5173H11.5093H11.5012H11.4932H11.4851H11.4771H11.469H11.4609H11.4529H11.4448H11.4368H11.4287H11.4207H11.4126H11.4045H11.3965H11.3884H11.3804H11.3723H11.3643H11.3562H11.3481H11.3401H11.332H11.324H11.3159H11.3079H11.2998H11.2917H11.2837H11.2756H11.2676H11.2595H11.2515H11.2434H11.2354H11.2273H11.2192H11.2112H11.2031H11.1951H11.187H11.179H11.1709H11.1628H11.1548H11.1467H11.1387H11.1306H11.1226H11.1145H11.1064H11.0984H11.0903H11.0823H11.0742H11.0662H11.0581H11.05H11.042H11.0339H11.0259H11.0178H11.0098H11.0017H10.9937H10.9856H10.9775H10.9695H10.9614H10.9534H10.9453H10.9373H10.9292H10.9211H10.9131H10.905H10.897H10.8889H10.8809H10.8728H10.8647H10.8567H10.8486H10.8406H10.8325H10.8245H10.8164H10.8083H10.8003H10.7922H10.7842H10.7761H10.7681H10.76H10.752H10.7439H10.7358H10.7278H10.7197H10.7117H10.7036H10.6956H10.6875H10.6794H10.6714H10.6633H10.6553H10.6472H10.6392H10.6311H10.623H10.615H10.6069H10.5989H10.5908H10.5828H10.5747H10.5667H10.5586H10.5505H10.5425H10.5344H10.5264H10.5183H10.5103H10.5022H10.4941H10.4861H10.478H10.47H10.4619H10.4539H10.4458H10.4377H10.4297H10.4216H10.4136H10.4055H10.3975H10.3894H10.3813H10.3733H10.3652H10.3572H10.3491H10.3411H10.333H10.325H10.3169H10.3088H10.3008H10.2927H10.2847H10.2766H10.2686H10.2605H10.2524H10.2444H10.2363H10.2283H10.2202H10.2122H10.2041H10.196H10.188H10.1799H10.1719H10.1638H10.1558H10.1477H10.1396H10.1316H10.1235H10.1155H10.1074H10.0994H10.0913H10.0833H10.0752H10.0671H10.0591H10.051H10.043H10.0349H10.0269H10.0188H10.0137L13.9176 14.5063ZM23.0766 10.3754V10.3346L23.048 10.3055C20.0939 7.28683 17.1144 4.28585 14.1095 1.30249L14.1043 1.29729L14.0983 1.29291C13.8502 1.11038 13.5876 0.949859 13.3103 0.811345L13.3106 0.810819L13.3004 0.807042C12.0615 0.347544 10.9088 0.509918 9.85443 1.29318L9.84868 1.29745L9.84361 1.30249C6.83876 4.28585 3.85925 7.28683 0.905093 10.3055L0.876562 10.3346V10.3754V10.3764V10.3774V10.3784V10.3794V10.3804V10.3815V10.3825V10.3835V10.3845V10.3855V10.3865V10.3875V10.3885V10.3895V10.3905V10.3915V10.3925V10.3935V10.3945V10.3956V10.3966V10.3976V10.3986V10.3996V10.4006V10.4016V10.4026V10.4036V10.4046V10.4056V10.4066V10.4076V10.4086V10.4097V10.4107V10.4117V10.4127V10.4137V10.4147V10.4157V10.4167V10.4177V10.4187V10.4197V10.4207V10.4217V10.4227V10.4237V10.4248V10.4258V10.4268V10.4278V10.4288V10.4298V10.4308V10.4318V10.4328V10.4338V10.4348V10.4358V10.4368V10.4378V10.4389V10.4399V10.4409V10.4419V10.4429V10.4439V10.4449V10.4459V10.4469V10.4479V10.4489V10.4499V10.4509V10.4519V10.453V10.454V10.455V10.456V10.457V10.458V10.459V10.46V10.461V10.462V10.463V10.464V10.465V10.466V10.4671V10.4681V10.4691V10.4701V10.4711V10.4721V10.4731V10.4741V10.4751V10.4761V10.4771V10.4781V10.4791V10.4801V10.4812V10.4822V10.4832V10.4842V10.4852V10.4862V10.4872V10.4882V10.4892V10.4902V10.4912V10.4922V10.4932V10.4942V10.4953V10.4963V10.4973V10.4983V10.4993V10.5003V10.5013V10.5023V10.5033V10.5043V10.5053V10.5063V10.5073V10.5083V10.5094V10.5104V10.5114V10.5124V10.5134V10.5144V10.5154V10.5164V10.5174V10.5184V10.5194V10.5204V10.5214V10.5224V10.5235V10.5245V10.5255V10.5265V10.5275V10.5285V10.5295V10.5305V10.5315V10.5325V10.5335V10.5345V10.5355V10.5365V10.5375V10.5386V10.5396V10.5406V10.5416V10.5426V10.5436V10.5446V10.5456V10.5466V10.5476V10.5486V10.5496V10.5506V10.5516V10.5527V10.5537V10.5547V10.5557V10.5567V10.5577V10.5587V10.5597V10.5607V10.5617V10.5627V10.5637V10.5647V10.5657V10.5668V10.5678V10.5688V10.5698V10.5708V10.5718V10.5728V10.5738V10.5748V10.5758V10.5768V10.5778V10.5788V10.5798V10.5809V10.5819V10.5829V10.5839V10.5849V10.5859V10.5869V10.5879V10.5889V10.5899V10.5909V10.5919V10.5929V10.5939V10.595V10.596V10.597V10.598V10.599V10.6V10.601V10.602V10.603V10.604V10.605V10.606V10.607V10.608V10.6091V10.6101V10.6111V10.6121V10.6131V10.6141V10.6151V10.6161V10.6171V10.6181V10.6191V10.6201V10.6211V10.6221V10.6232V10.6242V10.6252V10.6262V10.6272V10.6282V10.6292V10.6302V10.6312V10.6322V10.6332V10.6342V10.6352V10.6362V10.6373V10.6383V10.6393V10.6403V10.6413V10.6423V10.6433V10.6443V10.6453V10.6463V10.6473V10.6483V10.6493V10.6503V10.6514V10.6524V10.6534V10.6544V10.6554V10.6564V10.6574V10.6584V10.6594V10.6604V10.6614V10.6624V10.6634V10.6644V10.6654V10.6665V10.6675V10.6685V10.6695V10.6705V10.6715V10.6725V10.6735V10.6745V10.6755V10.6765V10.6775V10.6785V10.6795V10.6806V10.6816V10.6826V10.6836V10.6846V10.6856V10.6866V10.6876V10.6886V10.6896V10.6906V10.6916V10.6926V10.6936V10.6947V10.6957V10.6967V10.6977V10.6987V10.6997V10.7007V10.7017V10.7027V10.7037V10.7047V10.7057V10.7067V10.7077V10.7088V10.7098V10.7108V10.7118V10.7128V10.7138V10.7148V10.7158V10.7168V10.7178V10.7188V10.7198V10.7208V10.7218V10.7229V10.7239V10.7249V10.7259V10.7269V10.7279V10.7289V10.7299V10.7309V10.7319V10.7329V10.7339V10.7349V10.7359V10.737V10.738V10.739V10.74V10.741V10.742V10.743V10.744V10.745V10.746V10.747V10.748V10.749V10.75V10.7511V10.7521V10.7531V10.7541V10.7551V10.7561V10.7571V10.7581V10.7591V10.7601V10.7611V10.7621V10.7631V10.7641V10.7652V10.7662V10.7672V10.7682V10.7692V10.7702V10.7712V10.7722V10.7732V10.7742V10.7752V10.7762V10.7772V10.7782V10.7792V10.7803V10.7813V10.7823V10.7833V10.7843V10.7853V10.7863V10.7873V10.7883V10.7893V10.7903V10.7913V10.7923V10.7933V10.7944V10.7954V10.7964V10.7974V10.7984V10.7994V10.8004V10.8014V10.8024V10.8034V10.8044V10.8054V10.8064V10.8074V10.8085V10.8095V10.8105V10.8115V10.8125V10.8135V10.8145V10.8155V10.8165V10.8175V10.8185V10.8195V10.8205V10.8215V10.8226V10.8236V10.8246V10.8256V10.8266V10.8276V10.8286V10.8296V10.8306V10.8316V10.8326V10.8336V10.8346V10.8356V10.8367V10.8377V10.8387V10.8397V10.8407V10.8417V10.8427V10.8437V10.8447V10.8457V10.8467V10.8477V10.8487V10.8497V10.8508V10.8518V10.8528V10.8538V10.8548V10.8558V10.8568V10.8578V10.8588V10.8598V10.8608V10.8618V10.8628V10.8638V10.8649V10.8659V10.8669V10.8679V10.8689V10.8699V10.8709V10.8719V10.8729V10.8739V10.8749V10.8759V10.8769V10.8779V10.879V10.88V10.881V10.882V10.883V10.884V10.885V10.886V10.887V10.888V10.889V10.89V10.891V10.916L0.888285 10.938C0.997323 11.1429 1.14176 11.2909 1.32498 11.37C1.50789 11.449 1.7172 11.454 1.94635 11.3962L1.96377 11.3918L1.97856 11.3816C2.19236 11.2345 2.39119 11.0687 2.57501 10.8843L2.59531 15.1884L2.6168 19.7431L2.61686 19.7565L2.62048 19.7695C2.8519 20.5981 3.38668 21.1329 4.21529 21.3643L4.22821 21.3679L4.24163 21.368C9.39825 21.3966 14.5549 21.3966 19.7115 21.368L19.7249 21.3679L19.7378 21.3643C20.5664 21.1329 21.1012 20.5981 21.3326 19.7695L21.3363 19.7565L21.3363 19.7431L21.3578 15.1884L21.3782 10.8735L21.3785 10.8739L21.3797 10.875L21.3808 10.8761L21.3819 10.8773L21.3831 10.8784L21.3842 10.8795L21.3853 10.8807L21.3865 10.8818L21.3876 10.8829L21.3887 10.8841L21.3899 10.8852L21.391 10.8863L21.3921 10.8875L21.3933 10.8886L21.3944 10.8897L21.3955 10.8909L21.3967 10.892L21.3978 10.8931L21.3989 10.8943L21.4001 10.8954L21.4012 10.8965L21.4023 10.8977L21.4035 10.8988L21.4046 10.8999L21.4057 10.9011L21.4069 10.9022L21.408 10.9033L21.4091 10.9045L21.4103 10.9056L21.4114 10.9067L21.4125 10.9079L21.4137 10.909L21.4148 10.9101L21.4159 10.9113L21.4171 10.9124L21.4182 10.9135L21.4193 10.9147L21.4205 10.9158L21.4216 10.9169L21.4227 10.9181L21.4238 10.9192L21.425 10.9203L21.4261 10.9215L21.4272 10.9226L21.4284 10.9237L21.4295 10.9249L21.4306 10.926L21.4318 10.9271L21.4329 10.9283L21.434 10.9294L21.4352 10.9305L21.4363 10.9317L21.4374 10.9328L21.4386 10.9339L21.4397 10.9351L21.4408 10.9362L21.442 10.9373L21.4431 10.9385L21.4442 10.9396L21.4454 10.9407L21.4465 10.9419L21.4476 10.943L21.4488 10.9441L21.4499 10.9453L21.451 10.9464L21.4522 10.9475L21.4533 10.9487L21.4544 10.9498L21.4556 10.9509L21.4567 10.9521L21.4578 10.9532L21.459 10.9543L21.4601 10.9555L21.4612 10.9566L21.4624 10.9577L21.4635 10.9589L21.4646 10.96L21.4658 10.9611L21.4669 10.9622L21.468 10.9634L21.4692 10.9645L21.4703 10.9656L21.4714 10.9668L21.4726 10.9679L21.4737 10.969L21.4748 10.9702L21.476 10.9713L21.4771 10.9724L21.4782 10.9736L21.4794 10.9747L21.4805 10.9758L21.4816 10.977L21.4828 10.9781L21.4839 10.9792L21.485 10.9804L21.4862 10.9815L21.4873 10.9826L21.4884 10.9838L21.4896 10.9849L21.4907 10.986L21.4918 10.9872L21.493 10.9883L21.4941 10.9894L21.4952 10.9906L21.4964 10.9917L21.4975 10.9928L21.4986 10.994L21.4998 10.9951L21.5009 10.9962L21.502 10.9974L21.5032 10.9985L21.5043 10.9996L21.5054 11.0008L21.5066 11.0019L21.5077 11.003L21.5088 11.0042L21.51 11.0053L21.5111 11.0064L21.5122 11.0076L21.5134 11.0087L21.5145 11.0098L21.5156 11.011L21.5168 11.0121L21.5179 11.0132L21.519 11.0144L21.5202 11.0155L21.5213 11.0166L21.5224 11.0178L21.5236 11.0189L21.5247 11.02L21.5258 11.0212L21.5269 11.0223L21.5281 11.0234L21.5292 11.0246L21.5303 11.0257L21.5315 11.0268L21.5326 11.028L21.5337 11.0291L21.5349 11.0302L21.536 11.0314L21.5371 11.0325L21.5383 11.0336L21.5394 11.0348L21.5405 11.0359L21.5417 11.037L21.5428 11.0382L21.5439 11.0393L21.5451 11.0404L21.5462 11.0416L21.5473 11.0427L21.5485 11.0438L21.5496 11.045L21.5507 11.0461L21.5519 11.0472L21.553 11.0484L21.5541 11.0495L21.5553 11.0506L21.5564 11.0518L21.5575 11.0529L21.5587 11.054L21.5598 11.0552L21.5609 11.0563L21.5621 11.0574L21.5632 11.0586L21.5643 11.0597L21.5655 11.0608L21.5666 11.062L21.5677 11.0631L21.5689 11.0642L21.57 11.0653L21.5711 11.0665L21.5723 11.0676L21.5734 11.0687L21.5745 11.0699L21.5757 11.071L21.5768 11.0721L21.5779 11.0733L21.5791 11.0744L21.5802 11.0755L21.5813 11.0767L21.5825 11.0778L21.5836 11.0789L21.5847 11.0801L21.5859 11.0812L21.587 11.0823L21.5881 11.0835L21.5893 11.0846L21.5904 11.0857L21.5915 11.0869L21.5927 11.088L21.5938 11.0891L21.5949 11.0903L21.5961 11.0914L21.5972 11.0925L21.5983 11.0937L21.5995 11.0948L21.6006 11.0959L21.6017 11.0971L21.6029 11.0982L21.604 11.0993L21.6051 11.1005L21.6063 11.1016L21.6074 11.1027L21.6085 11.1039L21.6097 11.105L21.6108 11.1061L21.6119 11.1073L21.6131 11.1084L21.6142 11.1095L21.6153 11.1107L21.6165 11.1118L21.6176 11.1129L21.6187 11.1141L21.6199 11.1152L21.621 11.1163L21.6221 11.1175L21.6233 11.1186L21.6244 11.1197L21.6255 11.1209L21.6266 11.122L21.6278 11.1231L21.6289 11.1243L21.63 11.1254L21.6312 11.1265L21.6323 11.1277L21.6334 11.1288L21.6346 11.1299L21.6357 11.1311L21.6368 11.1322L21.638 11.1333L21.6391 11.1345L21.6402 11.1356L21.6414 11.1367L21.6425 11.1379L21.6436 11.139L21.6448 11.1401L21.6459 11.1413L21.647 11.1424L21.6482 11.1435L21.6493 11.1447L21.6504 11.1458L21.6516 11.1469L21.6527 11.1481L21.6538 11.1492L21.655 11.1503L21.6561 11.1515L21.6572 11.1526L21.6584 11.1537L21.6595 11.1549L21.6606 11.156L21.6618 11.1571L21.6629 11.1583L21.664 11.1594L21.6652 11.1605L21.6663 11.1617L21.6674 11.1628L21.6686 11.1639L21.6697 11.1651L21.6708 11.1662L21.672 11.1673L21.6731 11.1684L21.6742 11.1696L21.6754 11.1707L21.6765 11.1718L21.6776 11.173L21.6788 11.1741L21.6799 11.1752L21.681 11.1764L21.6822 11.1775L21.6833 11.1786L21.6844 11.1798L21.6856 11.1809L21.6867 11.182L21.6878 11.1832L21.689 11.1843L21.6901 11.1854L21.6912 11.1866L21.6924 11.1877L21.6935 11.1888L21.6946 11.19L21.6958 11.1911L21.6969 11.1922L21.698 11.1934L21.6992 11.1945L21.7003 11.1956L21.7014 11.1968L21.7026 11.1979L21.7037 11.199L21.7048 11.2002L21.706 11.2013L21.7071 11.2024L21.7082 11.2036L21.7094 11.2047L21.7105 11.2058L21.7116 11.207L21.7128 11.2081L21.7139 11.2092L21.715 11.2104L21.7162 11.2115L21.7173 11.2126L21.7184 11.2138L21.7196 11.2149L21.7207 11.216L21.7218 11.2172L21.723 11.2183L21.7241 11.2194L21.7252 11.2206L21.7264 11.2217L21.7275 11.2228L21.7286 11.224L21.7297 11.2251L21.7309 11.2262L21.732 11.2274L21.7331 11.2285L21.7343 11.2296L21.7354 11.2308L21.7365 11.2319L21.7377 11.233L21.7388 11.2342L21.7399 11.2353L21.7411 11.2364L21.7422 11.2376L21.7433 11.2387L21.7445 11.2398L21.7456 11.241L21.7467 11.2421L21.7479 11.2432L21.749 11.2444L21.7501 11.2455L21.7513 11.2466L21.7524 11.2478L21.7535 11.2489L21.7547 11.25L21.7558 11.2512L21.7569 11.2523L21.7581 11.2534L21.7592 11.2546L21.7603 11.2557L21.7615 11.2568L21.7626 11.258L21.7637 11.2591L21.7649 11.2602L21.766 11.2614L21.7671 11.2625L21.7683 11.2636L21.7694 11.2648L21.7705 11.2659L21.7717 11.267L21.7728 11.2682L21.7739 11.2693L21.7751 11.2704L21.7762 11.2715L21.7773 11.2727L21.7785 11.2738L21.7796 11.2749L21.7807 11.2761L21.7819 11.2772L21.783 11.2783L21.7841 11.2795L21.7853 11.2806L21.7864 11.2817L21.7875 11.2829L21.7887 11.284L21.8008 11.2961L21.8162 11.3035C22.0692 11.4245 22.3077 11.463 22.5249 11.4004C22.7426 11.3376 22.9204 11.1786 23.0623 10.9426L23.0766 10.9188V10.891V10.89V10.889V10.888V10.887V10.886V10.885V10.884V10.883V10.882V10.881V10.88V10.879V10.8779V10.8769V10.8759V10.8749V10.8739V10.8729V10.8719V10.8709V10.8699V10.8689V10.8679V10.8669V10.8659V10.8649V10.8638V10.8628V10.8618V10.8608V10.8598V10.8588V10.8578V10.8568V10.8558V10.8548V10.8538V10.8528V10.8518V10.8508V10.8497V10.8487V10.8477V10.8467V10.8457V10.8447V10.8437V10.8427V10.8417V10.8407V10.8397V10.8387V10.8377V10.8367V10.8356V10.8346V10.8336V10.8326V10.8316V10.8306V10.8296V10.8286V10.8276V10.8266V10.8256V10.8246V10.8236V10.8226V10.8215V10.8205V10.8195V10.8185V10.8175V10.8165V10.8155V10.8145V10.8135V10.8125V10.8115V10.8105V10.8095V10.8085V10.8074V10.8064V10.8054V10.8044V10.8034V10.8024V10.8014V10.8004V10.7994V10.7984V10.7974V10.7964V10.7954V10.7944V10.7933V10.7923V10.7913V10.7903V10.7893V10.7883V10.7873V10.7863V10.7853V10.7843V10.7833V10.7823V10.7813V10.7803V10.7792V10.7782V10.7772V10.7762V10.7752V10.7742V10.7732V10.7722V10.7712V10.7702V10.7692V10.7682V10.7672V10.7662V10.7652V10.7641V10.7631V10.7621V10.7611V10.7601V10.7591V10.7581V10.7571V10.7561V10.7551V10.7541V10.7531V10.7521V10.7511V10.75V10.749V10.748V10.747V10.746V10.745V10.744V10.743V10.742V10.741V10.74V10.739V10.738V10.737V10.7359V10.7349V10.7339V10.7329V10.7319V10.7309V10.7299V10.7289V10.7279V10.7269V10.7259V10.7249V10.7239V10.7229V10.7218V10.7208V10.7198V10.7188V10.7178V10.7168V10.7158V10.7148V10.7138V10.7128V10.7118V10.7108V10.7098V10.7088V10.7077V10.7067V10.7057V10.7047V10.7037V10.7027V10.7017V10.7007V10.6997V10.6987V10.6977V10.6967V10.6957V10.6947V10.6936V10.6926V10.6916V10.6906V10.6896V10.6886V10.6876V10.6866V10.6856V10.6846V10.6836V10.6826V10.6816V10.6806V10.6795V10.6785V10.6775V10.6765V10.6755V10.6745V10.6735V10.6725V10.6715V10.6705V10.6695V10.6685V10.6675V10.6665V10.6654V10.6644V10.6634V10.6624V10.6614V10.6604V10.6594V10.6584V10.6574V10.6564V10.6554V10.6544V10.6534V10.6524V10.6514V10.6503V10.6493V10.6483V10.6473V10.6463V10.6453V10.6443V10.6433V10.6423V10.6413V10.6403V10.6393V10.6383V10.6373V10.6362V10.6352V10.6342V10.6332V10.6322V10.6312V10.6302V10.6292V10.6282V10.6272V10.6262V10.6252V10.6242V10.6232V10.6221V10.6211V10.6201V10.6191V10.6181V10.6171V10.6161V10.6151V10.6141V10.6131V10.6121V10.6111V10.6101V10.6091V10.608V10.607V10.606V10.605V10.604V10.603V10.602V10.601V10.6V10.599V10.598V10.597V10.596V10.595V10.5939V10.5929V10.5919V10.5909V10.5899V10.5889V10.5879V10.5869V10.5859V10.5849V10.5839V10.5829V10.5819V10.5809V10.5798V10.5788V10.5778V10.5768V10.5758V10.5748V10.5738V10.5728V10.5718V10.5708V10.5698V10.5688V10.5678V10.5668V10.5657V10.5647V10.5637V10.5627V10.5617V10.5607V10.5597V10.5587V10.5577V10.5567V10.5557V10.5547V10.5537V10.5527V10.5516V10.5506V10.5496V10.5486V10.5476V10.5466V10.5456V10.5446V10.5436V10.5426V10.5416V10.5406V10.5396V10.5386V10.5375V10.5365V10.5355V10.5345V10.5335V10.5325V10.5315V10.5305V10.5295V10.5285V10.5275V10.5265V10.5255V10.5245V10.5235V10.5224V10.5214V10.5204V10.5194V10.5184V10.5174V10.5164V10.5154V10.5144V10.5134V10.5124V10.5114V10.5104V10.5094V10.5083V10.5073V10.5063V10.5053V10.5043V10.5033V10.5023V10.5013V10.5003V10.4993V10.4983V10.4973V10.4963V10.4953V10.4942V10.4932V10.4922V10.4912V10.4902V10.4892V10.4882V10.4872V10.4862V10.4852V10.4842V10.4832V10.4822V10.4812V10.4801V10.4791V10.4781V10.4771V10.4761V10.4751V10.4741V10.4731V10.4721V10.4711V10.4701V10.4691V10.4681V10.4671V10.466V10.465V10.464V10.463V10.462V10.461V10.46V10.459V10.458V10.457V10.456V10.455V10.454V10.453V10.4519V10.4509V10.4499V10.4489V10.4479V10.4469V10.4459V10.4449V10.4439V10.4429V10.4419V10.4409V10.4399V10.4389V10.4378V10.4368V10.4358V10.4348V10.4338V10.4328V10.4318V10.4308V10.4298V10.4288V10.4278V10.4268V10.4258V10.4248V10.4237V10.4227V10.4217V10.4207V10.4197V10.4187V10.4177V10.4167V10.4157V10.4147V10.4137V10.4127V10.4117V10.4107V10.4097V10.4086V10.4076V10.4066V10.4056V10.4046V10.4036V10.4026V10.4016V10.4006V10.3996V10.3986V10.3976V10.3966V10.3956V10.3945V10.3935V10.3925V10.3915V10.3905V10.3895V10.3885V10.3875V10.3865V10.3855V10.3845V10.3835V10.3825V10.3815V10.3804V10.3794V10.3784V10.3774V10.3764V10.3754ZM15.4926 14.0696L15.4924 14.0581L15.4897 14.047C15.3751 13.5775 15.1704 13.1915 14.8725 12.8936C14.5746 12.5957 14.1885 12.3909 13.719 12.2763L13.7086 12.2738L13.6978 12.2735C12.5503 12.2448 11.4028 12.2448 10.2553 12.2735L10.2446 12.2738L10.2341 12.2763C9.76462 12.3909 9.37854 12.5957 9.08066 12.8936C8.78277 13.1915 8.578 13.5775 8.4634 14.047L8.46068 14.0581L8.46055 14.0696C8.43943 15.9847 8.43213 17.8998 8.43871 19.815C7.18459 19.8213 5.93054 19.8139 4.67658 19.7931C4.47267 19.7768 4.32858 19.6826 4.23427 19.5029C4.16399 16.0892 4.14965 12.674 4.19129 9.25718L10.9219 2.52657C11.146 2.38806 11.3773 2.27246 11.6157 2.17966C12.1361 2.10199 12.6051 2.21639 13.0286 2.5239L19.7618 9.25718C19.8035 12.674 19.7891 16.0892 19.7188 19.5029C19.6246 19.6826 19.4805 19.7768 19.2765 19.7931C18.0226 19.8139 16.7685 19.8213 15.5144 19.815C15.521 17.8998 15.5137 15.9847 15.4926 14.0696Z" fill="#6A6A6A" stroke="#6A6A6A" stroke-width="0.2"/>
</g>
</g>
</svg>
