<svg width="24" height="24" viewBox="0 0 24 24" fill="none" xmlns="http://www.w3.org/2000/svg">
<g id="smile 1">
<g id="Group">
<path id="Vector" opacity="0.95" d="M11.0212 0.776562H11.0312H11.0349H11.0386H11.0423H11.046H11.0497H11.0534H11.0571H11.0608H11.0645H11.0682H11.0719H11.0756H11.0793H11.0829H11.0866H11.0903H11.094H11.0977H11.1014H11.1051H11.1088H11.1125H11.1162H11.1199H11.1236H11.1273H11.131H11.1346H11.1383H11.142H11.1457H11.1494H11.1531H11.1568H11.1605H11.1642H11.1679H11.1716H11.1753H11.179H11.1827H11.1863H11.19H11.1937H11.1974H11.2011H11.2048H11.2085H11.2122H11.2159H11.2196H11.2233H11.227H11.2307H11.2343H11.238H11.2417H11.2454H11.2491H11.2528H11.2565H11.2602H11.2639H11.2676H11.2713H11.275H11.2787H11.2824H11.286H11.2897H11.2934H11.2971H11.3008H11.3045H11.3082H11.3119H11.3156H11.3193H11.323H11.3267H11.3304H11.334H11.3377H11.3414H11.3451H11.3488H11.3525H11.3562H11.3599H11.3636H11.3673H11.371H11.3747H11.3784H11.3821H11.3857H11.3894H11.3931H11.3968H11.4005H11.4042H11.4079H11.4116H11.4153H11.419H11.4227H11.4264H11.4301H11.4338H11.4374H11.4411H11.4448H11.4485H11.4522H11.4559H11.4596H11.4633H11.467H11.4707H11.4744H11.4781H11.4818H11.4854H11.4891H11.4928H11.4965H11.5002H11.5039H11.5076H11.5113H11.515H11.5187H11.5224H11.5261H11.5298H11.5335H11.5371H11.5408H11.5445H11.5482H11.5519H11.5556H11.5593H11.563H11.5667H11.5704H11.5741H11.5778H11.5815H11.5851H11.5888H11.5925H11.5962H11.5999H11.6036H11.6073H11.611H11.6147H11.6184H11.6221H11.6258H11.6295H11.6332H11.6368H11.6405H11.6442H11.6479H11.6516H11.6553H11.659H11.6627H11.6664H11.6701H11.6738H11.6775H11.6812H11.6848H11.6885H11.6922H11.6959H11.6996H11.7033H11.707H11.7107H11.7144H11.7181H11.7218H11.7255H11.7292H11.7329H11.7365H11.7402H11.7439H11.7476H11.7513H11.755H11.7587H11.7624H11.7661H11.7698H11.7735H11.7772H11.7809H11.7845H11.7882H11.7919H11.7956H11.7993H11.803H11.8067H11.8104H11.8141H11.8178H11.8215H11.8252H11.8289H11.8326H11.8362H11.8399H11.8436H11.8473H11.851H11.8547H11.8584H11.8621H11.8658H11.8695H11.8732H11.8769H11.8806H11.8842H11.8879H11.8916H11.8953H11.899H11.9027H11.9064H11.9101H11.9138H11.9175H11.9212H11.9249H11.9286H11.9323H11.9359H11.9396H11.9433H11.947H11.9507H11.9544H11.9581H11.9618H11.9655H11.9692H11.9729H11.9766H11.9803H11.9839H11.9876H11.9913H11.995H11.9987H12.0024H12.0061H12.0098H12.0135H12.0172H12.0209H12.0246H12.0283H12.032H12.0356H12.0393H12.043H12.0467H12.0504H12.0541H12.0578H12.0615H12.0652H12.0689H12.0726H12.0763H12.08H12.0836H12.0873H12.091H12.0947H12.0984H12.1021H12.1058H12.1095H12.1132H12.1169H12.1206H12.1243H12.128H12.1317H12.1353H12.139H12.1427H12.1464H12.1501H12.1538H12.1575H12.1612H12.1649H12.1686H12.1723H12.176H12.1797H12.1833H12.187H12.1907H12.1944H12.1981H12.2018H12.2055H12.2092H12.2129H12.2166H12.2203H12.224H12.2277H12.2314H12.235H12.2387H12.2424H12.2461H12.2498H12.2535H12.2572H12.2609H12.2646H12.2683H12.272H12.2757H12.2794H12.283H12.2867H12.2904H12.2941H12.2978H12.3015H12.3052H12.3089H12.3126H12.3163H12.32H12.3237H12.3274H12.3311H12.3347H12.3384H12.3421H12.3458H12.3495H12.3532H12.3569H12.3606H12.3643H12.368H12.3717H12.3754H12.3791H12.3827H12.3864H12.3901H12.3938H12.3975H12.4012H12.4049H12.4086H12.4123H12.416H12.4197H12.4234H12.4271H12.4308H12.4344H12.4381H12.4418H12.4455H12.4492H12.4529H12.4566H12.4603H12.464H12.4677H12.4714H12.4751H12.4788H12.4824H12.4861H12.4898H12.4935H12.4972H12.5009H12.5046H12.5083H12.512H12.5157H12.5194H12.5231H12.5268H12.5305H12.5341H12.5378H12.5415H12.5452H12.5489H12.5526H12.5563H12.56H12.5637H12.5674H12.5711H12.5748H12.5785H12.5821H12.5858H12.5895H12.5932H12.5969H12.6006H12.6043H12.608H12.6117H12.6154H12.6191H12.6228H12.6265H12.6302H12.6338H12.6375H12.6412H12.6449H12.6486H12.6523H12.656H12.6597H12.6634H12.6671H12.6708H12.6745H12.6782H12.6819H12.6855H12.6892H12.6929H12.6966H12.7003H12.704H12.7077H12.7114H12.7151H12.7188H12.7225H12.7262H12.7299H12.7335H12.7372H12.7409H12.7446H12.7483H12.752H12.7557H12.7594H12.7631H12.7668H12.7705H12.7742H12.7779H12.7816H12.7852H12.7889H12.7926H12.7963H12.8H12.8037H12.8074H12.8111H12.8148H12.8185H12.8222H12.8259H12.8296H12.8333H12.8369H12.8406H12.8443H12.848H12.8517H12.8554H12.8591H12.8628H12.8665H12.8702H12.8739H12.8776H12.8813H12.8849H12.8886H12.8923H12.896H12.8997H12.9034H12.9071H12.9108H12.9145H12.9182H12.9219H12.9343L12.9467 0.778109C17.3231 1.32549 20.4545 3.60278 22.3199 7.59502L22.324 7.60391L22.3238 7.604C22.7734 8.70373 23.0574 9.83964 23.1756 11.0112L23.1766 11.0212V11.0312V11.0349V11.0386V11.0423V11.046V11.0497V11.0534V11.0571V11.0608V11.0645V11.0682V11.0719V11.0756V11.0793V11.0829V11.0866V11.0903V11.094V11.0977V11.1014V11.1051V11.1088V11.1125V11.1162V11.1199V11.1236V11.1273V11.131V11.1346V11.1383V11.142V11.1457V11.1494V11.1531V11.1568V11.1605V11.1642V11.1679V11.1716V11.1753V11.179V11.1827V11.1863V11.19V11.1937V11.1974V11.2011V11.2048V11.2085V11.2122V11.2159V11.2196V11.2233V11.227V11.2307V11.2343V11.238V11.2417V11.2454V11.2491V11.2528V11.2565V11.2602V11.2639V11.2676V11.2713V11.275V11.2787V11.2824V11.286V11.2897V11.2934V11.2971V11.3008V11.3045V11.3082V11.3119V11.3156V11.3193V11.323V11.3267V11.3304V11.334V11.3377V11.3414V11.3451V11.3488V11.3525V11.3562V11.3599V11.3636V11.3673V11.371V11.3747V11.3784V11.3821V11.3857V11.3894V11.3931V11.3968V11.4005V11.4042V11.4079V11.4116V11.4153V11.419V11.4227V11.4264V11.4301V11.4338V11.4374V11.4411V11.4448V11.4485V11.4522V11.4559V11.4596V11.4633V11.467V11.4707V11.4744V11.4781V11.4818V11.4854V11.4891V11.4928V11.4965V11.5002V11.5039V11.5076V11.5113V11.515V11.5187V11.5224V11.5261V11.5298V11.5335V11.5371V11.5408V11.5445V11.5482V11.5519V11.5556V11.5593V11.563V11.5667V11.5704V11.5741V11.5778V11.5815V11.5851V11.5888V11.5925V11.5962V11.5999V11.6036V11.6073V11.611V11.6147V11.6184V11.6221V11.6258V11.6295V11.6332V11.6368V11.6405V11.6442V11.6479V11.6516V11.6553V11.659V11.6627V11.6664V11.6701V11.6738V11.6775V11.6812V11.6848V11.6885V11.6922V11.6959V11.6996V11.7033V11.707V11.7107V11.7144V11.7181V11.7218V11.7255V11.7292V11.7329V11.7365V11.7402V11.7439V11.7476V11.7513V11.755V11.7587V11.7624V11.7661V11.7698V11.7735V11.7772V11.7809V11.7845V11.7882V11.7919V11.7956V11.7993V11.803V11.8067V11.8104V11.8141V11.8178V11.8215V11.8252V11.8289V11.8326V11.8362V11.8399V11.8436V11.8473V11.851V11.8547V11.8584V11.8621V11.8658V11.8695V11.8732V11.8769V11.8806V11.8842V11.8879V11.8916V11.8953V11.899V11.9027V11.9064V11.9101V11.9138V11.9175V11.9212V11.9249V11.9286V11.9323V11.9359V11.9396V11.9433V11.947V11.9507V11.9544V11.9581V11.9618V11.9655V11.9692V11.9729V11.9766V11.9803V11.9839V11.9876V11.9913V11.995V11.9987V12.0024V12.0061V12.0098V12.0135V12.0172V12.0209V12.0246V12.0283V12.032V12.0356V12.0393V12.043V12.0467V12.0504V12.0541V12.0578V12.0615V12.0652V12.0689V12.0726V12.0763V12.08V12.0836V12.0873V12.091V12.0947V12.0984V12.1021V12.1058V12.1095V12.1132V12.1169V12.1206V12.1243V12.128V12.1317V12.1353V12.139V12.1427V12.1464V12.1501V12.1538V12.1575V12.1612V12.1649V12.1686V12.1723V12.176V12.1797V12.1833V12.187V12.1907V12.1944V12.1981V12.2018V12.2055V12.2092V12.2129V12.2166V12.2203V12.224V12.2277V12.2314V12.235V12.2387V12.2424V12.2461V12.2498V12.2535V12.2572V12.2609V12.2646V12.2683V12.272V12.2757V12.2794V12.283V12.2867V12.2904V12.2941V12.2978V12.3015V12.3052V12.3089V12.3126V12.3163V12.32V12.3237V12.3274V12.3311V12.3347V12.3384V12.3421V12.3458V12.3495V12.3532V12.3569V12.3606V12.3643V12.368V12.3717V12.3754V12.3791V12.3827V12.3864V12.3901V12.3938V12.3975V12.4012V12.4049V12.4086V12.4123V12.416V12.4197V12.4234V12.4271V12.4308V12.4344V12.4381V12.4418V12.4455V12.4492V12.4529V12.4566V12.4603V12.464V12.4677V12.4714V12.4751V12.4788V12.4824V12.4861V12.4898V12.4935V12.4972V12.5009V12.5046V12.5083V12.512V12.5157V12.5194V12.5231V12.5268V12.5305V12.5341V12.5378V12.5415V12.5452V12.5489V12.5526V12.5563V12.56V12.5637V12.5674V12.5711V12.5748V12.5785V12.5821V12.5858V12.5895V12.5932V12.5969V12.6006V12.6043V12.608V12.6117V12.6154V12.6191V12.6228V12.6265V12.6302V12.6338V12.6375V12.6412V12.6449V12.6486V12.6523V12.656V12.6597V12.6634V12.6671V12.6708V12.6745V12.6782V12.6819V12.6855V12.6892V12.6929V12.6966V12.7003V12.704V12.7077V12.7114V12.7151V12.7188V12.7225V12.7262V12.7299V12.7335V12.7372V12.7409V12.7446V12.7483V12.752V12.7557V12.7594V12.7631V12.7668V12.7705V12.7742V12.7779V12.7816V12.7852V12.7889V12.7926V12.7963V12.8V12.8037V12.8074V12.8111V12.8148V12.8185V12.8222V12.8259V12.8296V12.8333V12.8369V12.8406V12.8443V12.848V12.8517V12.8554V12.8591V12.8628V12.8665V12.8702V12.8739V12.8776V12.8813V12.8849V12.8886V12.8923V12.896V12.8997V12.9034V12.9071V12.9108V12.9145V12.9182V12.9219V12.9343L23.175 12.9467C22.6276 17.3231 20.3503 20.4545 16.3581 22.3199L16.3492 22.324L16.3491 22.3238C15.2494 22.7734 14.1135 23.0574 12.9419 23.1756L12.9319 23.1766H12.9219H12.9182H12.9145H12.9108H12.9071H12.9034H12.8997H12.896H12.8923H12.8886H12.8849H12.8813H12.8776H12.8739H12.8702H12.8665H12.8628H12.8591H12.8554H12.8517H12.848H12.8443H12.8406H12.8369H12.8333H12.8296H12.8259H12.8222H12.8185H12.8148H12.8111H12.8074H12.8037H12.8H12.7963H12.7926H12.7889H12.7852H12.7816H12.7779H12.7742H12.7705H12.7668H12.7631H12.7594H12.7557H12.752H12.7483H12.7446H12.7409H12.7372H12.7335H12.7299H12.7262H12.7225H12.7188H12.7151H12.7114H12.7077H12.704H12.7003H12.6966H12.6929H12.6892H12.6855H12.6819H12.6782H12.6745H12.6708H12.6671H12.6634H12.6597H12.656H12.6523H12.6486H12.6449H12.6412H12.6375H12.6338H12.6302H12.6265H12.6228H12.6191H12.6154H12.6117H12.608H12.6043H12.6006H12.5969H12.5932H12.5895H12.5858H12.5821H12.5785H12.5748H12.5711H12.5674H12.5637H12.56H12.5563H12.5526H12.5489H12.5452H12.5415H12.5378H12.5341H12.5305H12.5268H12.5231H12.5194H12.5157H12.512H12.5083H12.5046H12.5009H12.4972H12.4935H12.4898H12.4861H12.4824H12.4788H12.4751H12.4714H12.4677H12.464H12.4603H12.4566H12.4529H12.4492H12.4455H12.4418H12.4381H12.4344H12.4308H12.4271H12.4234H12.4197H12.416H12.4123H12.4086H12.4049H12.4012H12.3975H12.3938H12.3901H12.3864H12.3827H12.3791H12.3754H12.3717H12.368H12.3643H12.3606H12.3569H12.3532H12.3495H12.3458H12.3421H12.3384H12.3347H12.3311H12.3274H12.3237H12.32H12.3163H12.3126H12.3089H12.3052H12.3015H12.2978H12.2941H12.2904H12.2867H12.283H12.2794H12.2757H12.272H12.2683H12.2646H12.2609H12.2572H12.2535H12.2498H12.2461H12.2424H12.2387H12.235H12.2314H12.2277H12.224H12.2203H12.2166H12.2129H12.2092H12.2055H12.2018H12.1981H12.1944H12.1907H12.187H12.1833H12.1797H12.176H12.1723H12.1686H12.1649H12.1612H12.1575H12.1538H12.1501H12.1464H12.1427H12.139H12.1353H12.1317H12.128H12.1243H12.1206H12.1169H12.1132H12.1095H12.1058H12.1021H12.0984H12.0947H12.091H12.0873H12.0836H12.08H12.0763H12.0726H12.0689H12.0652H12.0615H12.0578H12.0541H12.0504H12.0467H12.043H12.0393H12.0356H12.032H12.0283H12.0246H12.0209H12.0172H12.0135H12.0098H12.0061H12.0024H11.9987H11.995H11.9913H11.9876H11.9839H11.9803H11.9766H11.9729H11.9692H11.9655H11.9618H11.9581H11.9544H11.9507H11.947H11.9433H11.9396H11.9359H11.9323H11.9286H11.9249H11.9212H11.9175H11.9138H11.9101H11.9064H11.9027H11.899H11.8953H11.8916H11.8879H11.8842H11.8806H11.8769H11.8732H11.8695H11.8658H11.8621H11.8584H11.8547H11.851H11.8473H11.8436H11.8399H11.8362H11.8326H11.8289H11.8252H11.8215H11.8178H11.8141H11.8104H11.8067H11.803H11.7993H11.7956H11.7919H11.7882H11.7845H11.7809H11.7772H11.7735H11.7698H11.7661H11.7624H11.7587H11.755H11.7513H11.7476H11.7439H11.7402H11.7365H11.7329H11.7292H11.7255H11.7218H11.7181H11.7144H11.7107H11.707H11.7033H11.6996H11.6959H11.6922H11.6885H11.6848H11.6812H11.6775H11.6738H11.6701H11.6664H11.6627H11.659H11.6553H11.6516H11.6479H11.6442H11.6405H11.6368H11.6332H11.6295H11.6258H11.6221H11.6184H11.6147H11.611H11.6073H11.6036H11.5999H11.5962H11.5925H11.5888H11.5851H11.5815H11.5778H11.5741H11.5704H11.5667H11.563H11.5593H11.5556H11.5519H11.5482H11.5445H11.5408H11.5371H11.5335H11.5298H11.5261H11.5224H11.5187H11.515H11.5113H11.5076H11.5039H11.5002H11.4965H11.4928H11.4891H11.4854H11.4818H11.4781H11.4744H11.4707H11.467H11.4633H11.4596H11.4559H11.4522H11.4485H11.4448H11.4411H11.4374H11.4338H11.4301H11.4264H11.4227H11.419H11.4153H11.4116H11.4079H11.4042H11.4005H11.3968H11.3931H11.3894H11.3857H11.3821H11.3784H11.3747H11.371H11.3673H11.3636H11.3599H11.3562H11.3525H11.3488H11.3451H11.3414H11.3377H11.334H11.3304H11.3267H11.323H11.3193H11.3156H11.3119H11.3082H11.3045H11.3008H11.2971H11.2934H11.2897H11.286H11.2824H11.2787H11.275H11.2713H11.2676H11.2639H11.2602H11.2565H11.2528H11.2491H11.2454H11.2417H11.238H11.2343H11.2307H11.227H11.2233H11.2196H11.2159H11.2122H11.2085H11.2048H11.2011H11.1974H11.1937H11.19H11.1863H11.1827H11.179H11.1753H11.1716H11.1679H11.1642H11.1605H11.1568H11.1531H11.1494H11.1457H11.142H11.1383H11.1346H11.131H11.1273H11.1236H11.1199H11.1162H11.1125H11.1088H11.1051H11.1014H11.0977H11.094H11.0903H11.0866H11.0829H11.0793H11.0756H11.0719H11.0682H11.0645H11.0608H11.0571H11.0534H11.0497H11.046H11.0423H11.0386H11.0349H11.0312H11.0188L11.0064 23.175C6.62999 22.6276 3.49862 20.3503 1.63326 16.3581L1.6291 16.3492L1.62933 16.3491C1.17972 15.2494 0.895701 14.1135 0.777572 12.9419L0.776562 12.9319V12.9219L11.0212 0.776562ZM11.0212 0.776562L11.0112 0.777572M11.0212 0.776562L11.0112 0.777572M11.0112 0.777572L11.0312 0.976562M11.0112 0.777572L11.0312 0.976562M11.0312 0.976562C9.879 1.09275 8.76181 1.37204 7.67969 1.81445M11.0312 0.976562L0.976562 11.0312C1.51543 6.72295 3.7498 3.65068 7.67969 1.81445M0.776562 11.0188L0.778109 11.0064L0.776562 11.0188ZM0.776562 11.0188V11.0312M0.776562 11.0188V11.0312M0.776562 11.0312V11.0349M0.776562 11.0312V11.0349M7.67969 1.81445L7.60391 1.6291L7.59502 1.63326L7.67969 1.81445ZM0.776562 11.0349V11.0386M0.776562 11.0349V11.0386M0.776562 11.0386V11.0423M0.776562 11.0386V11.0423M0.776562 11.0423V11.046M0.776562 11.0423V11.046M0.776562 11.046V11.0497M0.776562 11.046V11.0497M0.776562 11.0497V11.0534M0.776562 11.0497V11.0534M0.776562 11.0534V11.0571M0.776562 11.0534V11.0571M0.776562 11.0571V11.0608M0.776562 11.0571V11.0608M0.776562 11.0608V11.0645M0.776562 11.0608V11.0645M0.776562 11.0645V11.0682M0.776562 11.0645V11.0682M0.776562 11.0682V11.0719M0.776562 11.0682V11.0719M0.776562 11.0719V11.0756M0.776562 11.0719V11.0756M0.776562 11.0756V11.0793M0.776562 11.0756V11.0793M0.776562 11.0793V11.0829M0.776562 11.0793V11.0829M0.776562 11.0829V11.0866M0.776562 11.0829V11.0866M0.776562 11.0866V11.0903M0.776562 11.0866V11.0903M0.776562 11.0903V11.094M0.776562 11.0903V11.094M0.776562 11.094V11.0977M0.776562 11.094V11.0977M0.776562 11.0977V11.1014M0.776562 11.0977V11.1014M0.776562 11.1014V11.1051M0.776562 11.1014V11.1051M0.776562 11.1051V11.1088M0.776562 11.1051V11.1088M0.776562 11.1088V11.1125M0.776562 11.1088V11.1125M0.776562 11.1125V11.1162M0.776562 11.1125V11.1162M0.776562 11.1162V11.1199M0.776562 11.1162V11.1199M0.776562 11.1199V11.1236M0.776562 11.1199V11.1236M0.776562 11.1236V11.1273M0.776562 11.1236V11.1273M0.776562 11.1273V11.131M0.776562 11.1273V11.131M0.776562 11.131V11.1346M0.776562 11.131V11.1346M0.776562 11.1346V11.1383M0.776562 11.1346V11.1383M0.776562 11.1383V11.142M0.776562 11.1383V11.142M0.776562 11.142V11.1457M0.776562 11.142V11.1457M0.776562 11.1457V11.1494M0.776562 11.1457V11.1494M0.776562 11.1494V11.1531M0.776562 11.1494V11.1531M0.776562 11.1531V11.1568M0.776562 11.1531V11.1568M0.776562 11.1568V11.1605M0.776562 11.1568V11.1605M0.776562 11.1605V11.1642M0.776562 11.1605V11.1642M0.776562 11.1642V11.1679M0.776562 11.1642V11.1679M0.776562 11.1679V11.1716M0.776562 11.1679V11.1716M0.776562 11.1716V11.1753M0.776562 11.1716V11.1753M0.776562 11.1753V11.179M0.776562 11.1753V11.179M0.776562 11.179V11.1827M0.776562 11.179V11.1827M0.776562 11.1827V11.1863M0.776562 11.1827V11.1863M0.776562 11.1863V11.19M0.776562 11.1863V11.19M0.776562 11.19V11.1937M0.776562 11.19V11.1937M0.776562 11.1937V11.1974M0.776562 11.1937V11.1974M0.776562 11.1974V11.2011M0.776562 11.1974V11.2011M0.776562 11.2011V11.2048M0.776562 11.2011V11.2048M0.776562 11.2048V11.2085M0.776562 11.2048V11.2085M0.776562 11.2085V11.2122M0.776562 11.2085V11.2122M0.776562 11.2122V11.2159M0.776562 11.2122V11.2159M0.776562 11.2159V11.2196M0.776562 11.2159V11.2196M0.776562 11.2196V11.2233M0.776562 11.2196V11.2233M0.776562 11.2233V11.227M0.776562 11.2233V11.227M0.776562 11.227V11.2307M0.776562 11.227V11.2307M0.776562 11.2307V11.2343M0.776562 11.2307V11.2343M0.776562 11.2343V11.238M0.776562 11.2343V11.238M0.776562 11.238V11.2417M0.776562 11.238V11.2417M0.776562 11.2417V11.2454M0.776562 11.2417V11.2454M0.776562 11.2454V11.2491M0.776562 11.2454V11.2491M0.776562 11.2491V11.2528M0.776562 11.2491V11.2528M0.776562 11.2528V11.2565M0.776562 11.2528V11.2565M0.776562 11.2565V11.2602M0.776562 11.2565V11.2602M0.776562 11.2602V11.2639M0.776562 11.2602V11.2639M0.776562 11.2639V11.2676M0.776562 11.2639V11.2676M0.776562 11.2676V11.2713M0.776562 11.2676V11.2713M0.776562 11.2713V11.275M0.776562 11.2713V11.275M0.776562 11.275V11.2787M0.776562 11.275V11.2787M0.776562 11.2787V11.2824M0.776562 11.2787V11.2824M0.776562 11.2824V11.286M0.776562 11.2824V11.286M0.776562 11.286V11.2897M0.776562 11.286V11.2897M0.776562 11.2897V11.2934M0.776562 11.2897V11.2934M0.776562 11.2934V11.2971M0.776562 11.2934V11.2971M0.776562 11.2971V11.3008M0.776562 11.2971V11.3008M0.776562 11.3008V11.3045M0.776562 11.3008V11.3045M0.776562 11.3045V11.3082M0.776562 11.3045V11.3082M0.776562 11.3082V11.3119M0.776562 11.3082V11.3119M0.776562 11.3119V11.3156M0.776562 11.3119V11.3156M0.776562 11.3156V11.3193M0.776562 11.3156V11.3193M0.776562 11.3193V11.323M0.776562 11.3193V11.323M0.776562 11.323V11.3267M0.776562 11.323V11.3267M0.776562 11.3267V11.3304M0.776562 11.3267V11.3304M0.776562 11.3304V11.334M0.776562 11.3304V11.334M0.776562 11.334V11.3377M0.776562 11.334V11.3377M0.776562 11.3377V11.3414M0.776562 11.3377V11.3414M0.776562 11.3414V11.3451M0.776562 11.3414V11.3451M0.776562 11.3451V11.3488M0.776562 11.3451V11.3488M0.776562 11.3488V11.3525M0.776562 11.3488V11.3525M0.776562 11.3525V11.3562M0.776562 11.3525V11.3562M0.776562 11.3562V11.3599M0.776562 11.3562V11.3599M0.776562 11.3599V11.3636M0.776562 11.3599V11.3636M0.776562 11.3636V11.3673M0.776562 11.3636V11.3673M0.776562 11.3673V11.371M0.776562 11.3673V11.371M0.776562 11.371V11.3747M0.776562 11.371V11.3747M0.776562 11.3747V11.3784M0.776562 11.3747V11.3784M0.776562 11.3784V11.3821M0.776562 11.3784V11.3821M0.776562 11.3821V11.3857M0.776562 11.3821V11.3857M0.776562 11.3857V11.3894M0.776562 11.3857V11.3894M0.776562 11.3894V11.3931M0.776562 11.3894V11.3931M0.776562 11.3931V11.3968M0.776562 11.3931V11.3968M0.776562 11.3968V11.4005M0.776562 11.3968V11.4005M0.776562 11.4005V11.4042M0.776562 11.4005V11.4042M0.776562 11.4042V11.4079M0.776562 11.4042V11.4079M0.776562 11.4079V11.4116M0.776562 11.4079V11.4116M0.776562 11.4116V11.4153M0.776562 11.4116V11.4153M0.776562 11.4153V11.419M0.776562 11.4153V11.419M0.776562 11.419V11.4227M0.776562 11.419V11.4227M0.776562 11.4227V11.4264M0.776562 11.4227V11.4264M0.776562 11.4264V11.4301M0.776562 11.4264V11.4301M0.776562 11.4301V11.4338M0.776562 11.4301V11.4338M0.776562 11.4338V11.4374M0.776562 11.4338V11.4374M0.776562 11.4374V11.4411M0.776562 11.4374V11.4411M0.776562 11.4411V11.4448M0.776562 11.4411V11.4448M0.776562 11.4448V11.4485M0.776562 11.4448V11.4485M0.776562 11.4485V11.4522M0.776562 11.4485V11.4522M0.776562 11.4522V11.4559M0.776562 11.4522V11.4559M0.776562 11.4559V11.4596M0.776562 11.4559V11.4596M0.776562 11.4596V11.4633M0.776562 11.4596V11.4633M0.776562 11.4633V11.467M0.776562 11.4633V11.467M0.776562 11.467V11.4707M0.776562 11.467V11.4707M0.776562 11.4707V11.4744M0.776562 11.4707V11.4744M0.776562 11.4744V11.4781M0.776562 11.4744V11.4781M0.776562 11.4781V11.4818M0.776562 11.4781V11.4818M0.776562 11.4818V11.4854M0.776562 11.4818V11.4854M0.776562 11.4854V11.4891M0.776562 11.4854V11.4891M0.776562 11.4891V11.4928M0.776562 11.4891V11.4928M0.776562 11.4928V11.4965M0.776562 11.4928V11.4965M0.776562 11.4965V11.5002M0.776562 11.4965V11.5002M0.776562 11.5002V11.5039M0.776562 11.5002V11.5039M0.776562 11.5039V11.5076M0.776562 11.5039V11.5076M0.776562 11.5076V11.5113M0.776562 11.5076V11.5113M0.776562 11.5113V11.515M0.776562 11.5113V11.515M0.776562 11.515V11.5187M0.776562 11.515V11.5187M0.776562 11.5187V11.5224M0.776562 11.5187V11.5224M0.776562 11.5224V11.5261M0.776562 11.5224V11.5261M0.776562 11.5261V11.5298M0.776562 11.5261V11.5298M0.776562 11.5298V11.5335M0.776562 11.5298V11.5335M0.776562 11.5335V11.5371M0.776562 11.5335V11.5371M0.776562 11.5371V11.5408M0.776562 11.5371V11.5408M0.776562 11.5408V11.5445M0.776562 11.5408V11.5445M0.776562 11.5445V11.5482M0.776562 11.5445V11.5482M0.776562 11.5482V11.5519M0.776562 11.5482V11.5519M0.776562 11.5519V11.5556M0.776562 11.5519V11.5556M0.776562 11.5556V11.5593M0.776562 11.5556V11.5593M0.776562 11.5593V11.563M0.776562 11.5593V11.563M0.776562 11.563V11.5667M0.776562 11.563V11.5667M0.776562 11.5667V11.5704M0.776562 11.5667V11.5704M0.776562 11.5704V11.5741M0.776562 11.5704V11.5741M0.776562 11.5741V11.5778M0.776562 11.5741V11.5778M0.776562 11.5778V11.5815M0.776562 11.5778V11.5815M0.776562 11.5815V11.5851M0.776562 11.5815V11.5851M0.776562 11.5851V11.5888M0.776562 11.5851V11.5888M0.776562 11.5888V11.5925M0.776562 11.5888V11.5925M0.776562 11.5925V11.5962M0.776562 11.5925V11.5962M0.776562 11.5962V11.5999M0.776562 11.5962V11.5999M0.776562 11.5999V11.6036M0.776562 11.5999V11.6036M0.776562 11.6036V11.6073M0.776562 11.6036V11.6073M0.776562 11.6073V11.611M0.776562 11.6073V11.611M0.776562 11.611V11.6147M0.776562 11.611V11.6147M0.776562 11.6147V11.6184M0.776562 11.6147V11.6184M0.776562 11.6184V11.6221M0.776562 11.6184V11.6221M0.776562 11.6221V11.6258M0.776562 11.6221V11.6258M0.776562 11.6258V11.6295M0.776562 11.6258V11.6295M0.776562 11.6295V11.6332M0.776562 11.6295V11.6332M0.776562 11.6332V11.6368M0.776562 11.6332V11.6368M0.776562 11.6368V11.6405M0.776562 11.6368V11.6405M0.776562 11.6405V11.6442M0.776562 11.6405V11.6442M0.776562 11.6442V11.6479M0.776562 11.6442V11.6479M0.776562 11.6479V11.6516M0.776562 11.6479V11.6516M0.776562 11.6516V11.6553M0.776562 11.6516V11.6553M0.776562 11.6553V11.659M0.776562 11.6553V11.659M0.776562 11.659V11.6627M0.776562 11.659V11.6627M0.776562 11.6627V11.6664M0.776562 11.6627V11.6664M0.776562 11.6664V11.6701M0.776562 11.6664V11.6701M0.776562 11.6701V11.6738M0.776562 11.6701V11.6738M0.776562 11.6738V11.6775M0.776562 11.6738V11.6775M0.776562 11.6775V11.6812M0.776562 11.6775V11.6812M0.776562 11.6812V11.6848M0.776562 11.6812V11.6848M0.776562 11.6848V11.6885M0.776562 11.6848V11.6885M0.776562 11.6885V11.6922M0.776562 11.6885V11.6922M0.776562 11.6922V11.6959M0.776562 11.6922V11.6959M0.776562 11.6959V11.6996M0.776562 11.6959V11.6996M0.776562 11.6996V11.7033M0.776562 11.6996V11.7033M0.776562 11.7033V11.707M0.776562 11.7033V11.707M0.776562 11.707V11.7107M0.776562 11.707V11.7107M0.776562 11.7107V11.7144M0.776562 11.7107V11.7144M0.776562 11.7144V11.7181M0.776562 11.7144V11.7181M0.776562 11.7181V11.7218M0.776562 11.7181V11.7218M0.776562 11.7218V11.7255M0.776562 11.7218V11.7255M0.776562 11.7255V11.7292M0.776562 11.7255V11.7292M0.776562 11.7292V11.7329M0.776562 11.7292V11.7329M0.776562 11.7329V11.7365M0.776562 11.7329V11.7365M0.776562 11.7365V11.7402M0.776562 11.7365V11.7402M0.776562 11.7402V11.7439M0.776562 11.7402V11.7439M0.776562 11.7439V11.7476M0.776562 11.7439V11.7476M0.776562 11.7476V11.7513M0.776562 11.7476V11.7513M0.776562 11.7513V11.755M0.776562 11.7513V11.755M0.776562 11.755V11.7587M0.776562 11.755V11.7587M0.776562 11.7587V11.7624M0.776562 11.7587V11.7624M0.776562 11.7624V11.7661M0.776562 11.7624V11.7661M0.776562 11.7661V11.7698M0.776562 11.7661V11.7698M0.776562 11.7698V11.7735M0.776562 11.7698V11.7735M0.776562 11.7735V11.7772M0.776562 11.7735V11.7772M0.776562 11.7772V11.7809M0.776562 11.7772V11.7809M0.776562 11.7809V11.7845M0.776562 11.7809V11.7845M0.776562 11.7845V11.7882M0.776562 11.7845V11.7882M0.776562 11.7882V11.7919M0.776562 11.7882V11.7919M0.776562 11.7919V11.7956M0.776562 11.7919V11.7956M0.776562 11.7956V11.7993M0.776562 11.7956V11.7993M0.776562 11.7993V11.803M0.776562 11.7993V11.803M0.776562 11.803V11.8067M0.776562 11.803V11.8067M0.776562 11.8067V11.8104M0.776562 11.8067V11.8104M0.776562 11.8104V11.8141M0.776562 11.8104V11.8141M0.776562 11.8141V11.8178M0.776562 11.8141V11.8178M0.776562 11.8178V11.8215M0.776562 11.8178V11.8215M0.776562 11.8215V11.8252M0.776562 11.8215V11.8252M0.776562 11.8252V11.8289M0.776562 11.8252V11.8289M0.776562 11.8289V11.8326M0.776562 11.8289V11.8326M0.776562 11.8326V11.8362M0.776562 11.8326V11.8362M0.776562 11.8362V11.8399M0.776562 11.8362V11.8399M0.776562 11.8399V11.8436M0.776562 11.8399V11.8436M0.776562 11.8436V11.8473M0.776562 11.8436V11.8473M0.776562 11.8473V11.851M0.776562 11.8473V11.851M0.776562 11.851V11.8547M0.776562 11.851V11.8547M0.776562 11.8547V11.8584M0.776562 11.8547V11.8584M0.776562 11.8584V11.8621M0.776562 11.8584V11.8621M0.776562 11.8621V11.8658M0.776562 11.8621V11.8658M0.776562 11.8658V11.8695M0.776562 11.8658V11.8695M0.776562 11.8695V11.8732M0.776562 11.8695V11.8732M0.776562 11.8732V11.8769M0.776562 11.8732V11.8769M0.776562 11.8769V11.8806M0.776562 11.8769V11.8806M0.776562 11.8806V11.8842M0.776562 11.8806V11.8842M0.776562 11.8842V11.8879M0.776562 11.8842V11.8879M0.776562 11.8879V11.8916M0.776562 11.8879V11.8916M0.776562 11.8916V11.8953M0.776562 11.8916V11.8953M0.776562 11.8953V11.899M0.776562 11.8953V11.899M0.776562 11.899V11.9027M0.776562 11.899V11.9027M0.776562 11.9027V11.9064M0.776562 11.9027V11.9064M0.776562 11.9064V11.9101M0.776562 11.9064V11.9101M0.776562 11.9101V11.9138M0.776562 11.9101V11.9138M0.776562 11.9138V11.9175M0.776562 11.9138V11.9175M0.776562 11.9175V11.9212M0.776562 11.9175V11.9212M0.776562 11.9212V11.9249M0.776562 11.9212V11.9249M0.776562 11.9249V11.9286M0.776562 11.9249V11.9286M0.776562 11.9286V11.9323M0.776562 11.9286V11.9323M0.776562 11.9323V11.9359M0.776562 11.9323V11.9359M0.776562 11.9359V11.9396M0.776562 11.9359V11.9396M0.776562 11.9396V11.9433M0.776562 11.9396V11.9433M0.776562 11.9433V11.947M0.776562 11.9433V11.947M0.776562 11.947V11.9507M0.776562 11.947V11.9507M0.776562 11.9507V11.9544M0.776562 11.9507V11.9544M0.776562 11.9544V11.9581M0.776562 11.9544V11.9581M0.776562 11.9581V11.9618M0.776562 11.9581V11.9618M0.776562 11.9618V11.9655M0.776562 11.9618V11.9655M0.776562 11.9655V11.9692M0.776562 11.9655V11.9692M0.776562 11.9692V11.9729M0.776562 11.9692V11.9729M0.776562 11.9729V11.9766M0.776562 11.9729V11.9766M0.776562 11.9766V11.9803M0.776562 11.9766V11.9803M0.776562 11.9803V11.9839M0.776562 11.9803V11.9839M0.776562 11.9839V11.9876M0.776562 11.9839V11.9876M0.776562 11.9876V11.9913M0.776562 11.9876V11.9913M0.776562 11.9913V11.995M0.776562 11.9913V11.995M0.776562 11.995V11.9987M0.776562 11.995V11.9987M0.776562 11.9987V12.0024M0.776562 11.9987V12.0024M0.776562 12.0024V12.0061M0.776562 12.0024V12.0061M0.776562 12.0061V12.0098M0.776562 12.0061V12.0098M0.776562 12.0098V12.0135M0.776562 12.0098V12.0135M0.776562 12.0135V12.0172M0.776562 12.0135V12.0172M0.776562 12.0172V12.0209M0.776562 12.0172V12.0209M0.776562 12.0209V12.0246M0.776562 12.0209V12.0246M0.776562 12.0246V12.0283M0.776562 12.0246V12.0283M0.776562 12.0283V12.032M0.776562 12.0283V12.032M0.776562 12.032V12.0356M0.776562 12.032V12.0356M0.776562 12.0356V12.0393M0.776562 12.0356V12.0393M0.776562 12.0393V12.043M0.776562 12.0393V12.043M0.776562 12.043V12.0467M0.776562 12.043V12.0467M0.776562 12.0467V12.0504M0.776562 12.0467V12.0504M0.776562 12.0504V12.0541M0.776562 12.0504V12.0541M0.776562 12.0541V12.0578M0.776562 12.0541V12.0578M0.776562 12.0578V12.0615M0.776562 12.0578V12.0615M0.776562 12.0615V12.0652M0.776562 12.0615V12.0652M0.776562 12.0652V12.0689M0.776562 12.0652V12.0689M0.776562 12.0689V12.0726M0.776562 12.0689V12.0726M0.776562 12.0726V12.0763M0.776562 12.0726V12.0763M0.776562 12.0763V12.08M0.776562 12.0763V12.08M0.776562 12.08V12.0836M0.776562 12.08V12.0836M0.776562 12.0836V12.0873M0.776562 12.0836V12.0873M0.776562 12.0873V12.091M0.776562 12.0873V12.091M0.776562 12.091V12.0947M0.776562 12.091V12.0947M0.776562 12.0947V12.0984M0.776562 12.0947V12.0984M0.776562 12.0984V12.1021M0.776562 12.0984V12.1021M0.776562 12.1021V12.1058M0.776562 12.1021V12.1058M0.776562 12.1058V12.1095M0.776562 12.1058V12.1095M0.776562 12.1095V12.1132M0.776562 12.1095V12.1132M0.776562 12.1132V12.1169M0.776562 12.1132V12.1169M0.776562 12.1169V12.1206M0.776562 12.1169V12.1206M0.776562 12.1206V12.1243M0.776562 12.1206V12.1243M0.776562 12.1243V12.128M0.776562 12.1243V12.128M0.776562 12.128V12.1317M0.776562 12.128V12.1317M0.776562 12.1317V12.1353M0.776562 12.1317V12.1353M0.776562 12.1353V12.139M0.776562 12.1353V12.139M0.776562 12.139V12.1427M0.776562 12.139V12.1427M0.776562 12.1427V12.1464M0.776562 12.1427V12.1464M0.776562 12.1464V12.1501M0.776562 12.1464V12.1501M0.776562 12.1501V12.1538M0.776562 12.1501V12.1538M0.776562 12.1538V12.1575M0.776562 12.1538V12.1575M0.776562 12.1575V12.1612M0.776562 12.1575V12.1612M0.776562 12.1612V12.1649M0.776562 12.1612V12.1649M0.776562 12.1649V12.1686M0.776562 12.1649V12.1686M0.776562 12.1686V12.1723M0.776562 12.1686V12.1723M0.776562 12.1723V12.176M0.776562 12.1723V12.176M0.776562 12.176V12.1797M0.776562 12.176V12.1797M0.776562 12.1797V12.1833M0.776562 12.1797V12.1833M0.776562 12.1833V12.187M0.776562 12.1833V12.187M0.776562 12.187V12.1907M0.776562 12.187V12.1907M0.776562 12.1907V12.1944M0.776562 12.1907V12.1944M0.776562 12.1944V12.1981M0.776562 12.1944V12.1981M0.776562 12.1981V12.2018M0.776562 12.1981V12.2018M0.776562 12.2018V12.2055M0.776562 12.2018V12.2055M0.776562 12.2055V12.2092M0.776562 12.2055V12.2092M0.776562 12.2092V12.2129M0.776562 12.2092V12.2129M0.776562 12.2129V12.2166M0.776562 12.2129V12.2166M0.776562 12.2166V12.2203M0.776562 12.2166V12.2203M0.776562 12.2203V12.224M0.776562 12.2203V12.224M0.776562 12.224V12.2277M0.776562 12.224V12.2277M0.776562 12.2277V12.2314M0.776562 12.2277V12.2314M0.776562 12.2314V12.235M0.776562 12.2314V12.235M0.776562 12.235V12.2387M0.776562 12.235V12.2387M0.776562 12.2387V12.2424M0.776562 12.2387V12.2424M0.776562 12.2424V12.2461M0.776562 12.2424V12.2461M0.776562 12.2461V12.2498M0.776562 12.2461V12.2498M0.776562 12.2498V12.2535M0.776562 12.2498V12.2535M0.776562 12.2535V12.2572M0.776562 12.2535V12.2572M0.776562 12.2572V12.2609M0.776562 12.2572V12.2609M0.776562 12.2609V12.2646M0.776562 12.2609V12.2646M0.776562 12.2646V12.2683M0.776562 12.2646V12.2683M0.776562 12.2683V12.272M0.776562 12.2683V12.272M0.776562 12.272V12.2757M0.776562 12.272V12.2757M0.776562 12.2757V12.2794M0.776562 12.2757V12.2794M0.776562 12.2794V12.283M0.776562 12.2794V12.283M0.776562 12.283V12.2867M0.776562 12.283V12.2867M0.776562 12.2867V12.2904M0.776562 12.2867V12.2904M0.776562 12.2904V12.2941M0.776562 12.2904V12.2941M0.776562 12.2941V12.2978M0.776562 12.2941V12.2978M0.776562 12.2978V12.3015M0.776562 12.2978V12.3015M0.776562 12.3015V12.3052M0.776562 12.3015V12.3052M0.776562 12.3052V12.3089M0.776562 12.3052V12.3089M0.776562 12.3089V12.3126M0.776562 12.3089V12.3126M0.776562 12.3126V12.3163M0.776562 12.3126V12.3163M0.776562 12.3163V12.32M0.776562 12.3163V12.32M0.776562 12.32V12.3237M0.776562 12.32V12.3237M0.776562 12.3237V12.3274M0.776562 12.3237V12.3274M0.776562 12.3274V12.3311M0.776562 12.3274V12.3311M0.776562 12.3311V12.3347M0.776562 12.3311V12.3347M0.776562 12.3347V12.3384M0.776562 12.3347V12.3384M0.776562 12.3384V12.3421M0.776562 12.3384V12.3421M0.776562 12.3421V12.3458M0.776562 12.3421V12.3458M0.776562 12.3458V12.3495M0.776562 12.3458V12.3495M0.776562 12.3495V12.3532M0.776562 12.3495V12.3532M0.776562 12.3532V12.3569M0.776562 12.3532V12.3569M0.776562 12.3569V12.3606M0.776562 12.3569V12.3606M0.776562 12.3606V12.3643M0.776562 12.3606V12.3643M0.776562 12.3643V12.368M0.776562 12.3643V12.368M0.776562 12.368V12.3717M0.776562 12.368V12.3717M0.776562 12.3717V12.3754M0.776562 12.3717V12.3754M0.776562 12.3754V12.3791M0.776562 12.3754V12.3791M0.776562 12.3791V12.3827M0.776562 12.3791V12.3827M0.776562 12.3827V12.3864M0.776562 12.3827V12.3864M0.776562 12.3864V12.3901M0.776562 12.3864V12.3901M0.776562 12.3901V12.3938M0.776562 12.3901V12.3938M0.776562 12.3938V12.3975M0.776562 12.3938V12.3975M0.776562 12.3975V12.4012M0.776562 12.3975V12.4012M0.776562 12.4012V12.4049M0.776562 12.4012V12.4049M0.776562 12.4049V12.4086M0.776562 12.4049V12.4086M0.776562 12.4086V12.4123M0.776562 12.4086V12.4123M0.776562 12.4123V12.416M0.776562 12.4123V12.416M0.776562 12.416V12.4197M0.776562 12.416V12.4197M0.776562 12.4197V12.4234M0.776562 12.4197V12.4234M0.776562 12.4234V12.4271M0.776562 12.4234V12.4271M0.776562 12.4271V12.4308M0.776562 12.4271V12.4308M0.776562 12.4308V12.4344M0.776562 12.4308V12.4344M0.776562 12.4344V12.4381M0.776562 12.4344V12.4381M0.776562 12.4381V12.4418M0.776562 12.4381V12.4418M0.776562 12.4418V12.4455M0.776562 12.4418V12.4455M0.776562 12.4455V12.4492M0.776562 12.4455V12.4492M0.776562 12.4492V12.4529M0.776562 12.4492V12.4529M0.776562 12.4529V12.4566M0.776562 12.4529V12.4566M0.776562 12.4566V12.4603M0.776562 12.4566V12.4603M0.776562 12.4603V12.464M0.776562 12.4603V12.464M0.776562 12.464V12.4677M0.776562 12.464V12.4677M0.776562 12.4677V12.4714M0.776562 12.4677V12.4714M0.776562 12.4714V12.4751M0.776562 12.4714V12.4751M0.776562 12.4751V12.4788M0.776562 12.4751V12.4788M0.776562 12.4788V12.4824M0.776562 12.4788V12.4824M0.776562 12.4824V12.4861M0.776562 12.4824V12.4861M0.776562 12.4861V12.4898M0.776562 12.4861V12.4898M0.776562 12.4898V12.4935M0.776562 12.4898V12.4935M0.776562 12.4935V12.4972M0.776562 12.4935V12.4972M0.776562 12.4972V12.5009M0.776562 12.4972V12.5009M0.776562 12.5009V12.5046M0.776562 12.5009V12.5046M0.776562 12.5046V12.5083M0.776562 12.5046V12.5083M0.776562 12.5083V12.512M0.776562 12.5083V12.512M0.776562 12.512V12.5157M0.776562 12.512V12.5157M0.776562 12.5157V12.5194M0.776562 12.5157V12.5194M0.776562 12.5194V12.5231M0.776562 12.5194V12.5231M0.776562 12.5231V12.5268M0.776562 12.5231V12.5268M0.776562 12.5268V12.5305M0.776562 12.5268V12.5305M0.776562 12.5305V12.5341M0.776562 12.5305V12.5341M0.776562 12.5341V12.5378M0.776562 12.5341V12.5378M0.776562 12.5378V12.5415M0.776562 12.5378V12.5415M0.776562 12.5415V12.5452M0.776562 12.5415V12.5452M0.776562 12.5452V12.5489M0.776562 12.5452V12.5489M0.776562 12.5489V12.5526M0.776562 12.5489V12.5526M0.776562 12.5526V12.5563M0.776562 12.5526V12.5563M0.776562 12.5563V12.56M0.776562 12.5563V12.56M0.776562 12.56V12.5637V12.56Z" fill="#6A6A6A" stroke="#6A6A6A" stroke-width="0.4"/>
</g>
<g id="Group_2">
<path id="Vector_2" opacity="0.945" d="M7.70561 8.42788L7.69007 8.4294L7.67495 8.43331C7.05499 8.59367 6.55727 8.87767 6.19614 9.29377C5.83524 9.70959 5.62332 10.2428 5.5499 10.8804C5.5295 11.0438 5.54846 11.2009 5.621 11.3408C5.69388 11.4814 5.81157 11.5867 5.95752 11.6621L5.97493 11.6711L5.99375 11.6765C6.18504 11.7318 6.37527 11.7355 6.54454 11.6536C6.71428 11.5715 6.82835 11.42 6.90125 11.2356L6.91408 11.2032L6.91517 11.1683C6.92561 10.8344 7.02398 10.5339 7.21131 10.2621C7.53475 9.95878 7.83964 9.82348 8.128 9.81772C8.41582 9.81196 8.72489 9.9345 9.05871 10.2235C9.28811 10.5445 9.41406 10.9028 9.43749 11.3027L9.44193 11.3786L9.49572 11.4324L9.49602 11.4327L9.49631 11.433L9.4966 11.4333L9.4969 11.4336L9.49719 11.4339L9.49748 11.4342L9.49778 11.4345L9.49807 11.4348L9.49837 11.4351L9.49866 11.4354L9.49895 11.4357L9.49925 11.4359L9.49954 11.4362L9.49984 11.4365L9.50013 11.4368L9.50042 11.4371L9.50072 11.4374L9.50101 11.4377L9.5013 11.438L9.5016 11.4383L9.50189 11.4386L9.50219 11.4389L9.50248 11.4392L9.50277 11.4395L9.50307 11.4398L9.50336 11.4401L9.50365 11.4404L9.50395 11.4406L9.50424 11.4409L9.50454 11.4412L9.50483 11.4415L9.50512 11.4418L9.50542 11.4421L9.50571 11.4424L9.50601 11.4427L9.5063 11.443L9.50659 11.4433L9.50689 11.4436L9.50718 11.4439L9.50747 11.4442L9.50777 11.4445L9.50806 11.4448L9.50836 11.4451L9.50865 11.4453L9.50894 11.4456L9.50924 11.4459L9.50953 11.4462L9.50982 11.4465L9.51012 11.4468L9.51041 11.4471L9.51071 11.4474L9.511 11.4477L9.51129 11.448L9.51159 11.4483L9.51188 11.4486L9.51217 11.4489L9.51247 11.4492L9.51276 11.4495L9.51306 11.4498L9.51335 11.45L9.51364 11.4503L9.51394 11.4506L9.51423 11.4509L9.51452 11.4512L9.51482 11.4515L9.51511 11.4518L9.51541 11.4521L9.5157 11.4524L9.51599 11.4527L9.51629 11.453L9.51658 11.4533L9.51687 11.4536L9.51717 11.4539L9.51746 11.4542L9.51776 11.4545L9.51805 11.4547L9.51834 11.455L9.51864 11.4553L9.51893 11.4556L9.51922 11.4559L9.51952 11.4562L9.51981 11.4565L9.52011 11.4568L9.5204 11.4571L9.52069 11.4574L9.52099 11.4577L9.52128 11.458L9.52157 11.4583L9.52187 11.4586L9.52216 11.4589L9.52246 11.4592L9.52275 11.4594L9.52304 11.4597L9.52334 11.46L9.52363 11.4603L9.52392 11.4606L9.52422 11.4609L9.52451 11.4612L9.52481 11.4615L9.5251 11.4618L9.52539 11.4621L9.52569 11.4624L9.52598 11.4627L9.52627 11.463L9.52657 11.4633L9.52686 11.4636L9.52716 11.4639L9.52745 11.4641L9.52774 11.4644L9.52804 11.4647L9.52833 11.465L9.52862 11.4653L9.52892 11.4656L9.52921 11.4659L9.52951 11.4662L9.5298 11.4665L9.53009 11.4668L9.53039 11.4671L9.53068 11.4674L9.53097 11.4677L9.53127 11.468L9.53156 11.4683L9.53186 11.4686L9.53215 11.4688L9.53244 11.4691L9.53274 11.4694L9.53303 11.4697L9.53332 11.47L9.53362 11.4703L9.53391 11.4706L9.5342 11.4709L9.5345 11.4712L9.53479 11.4715L9.53509 11.4718L9.53538 11.4721L9.53567 11.4724L9.53597 11.4727L9.53626 11.473L9.53655 11.4733L9.53685 11.4735L9.53714 11.4738L9.53744 11.4741L9.53773 11.4744L9.53802 11.4747L9.53832 11.475L9.53861 11.4753L9.5389 11.4756L9.5392 11.4759L9.53949 11.4762L9.53979 11.4765L9.54008 11.4768L9.54037 11.4771L9.54067 11.4774L9.54096 11.4777L9.54125 11.478L9.54155 11.4782L9.54184 11.4785L9.54214 11.4788L9.54243 11.4791L9.54272 11.4794L9.54302 11.4797L9.54331 11.48L9.5436 11.4803L9.5439 11.4806L9.54419 11.4809L9.54448 11.4812L9.54478 11.4815L9.54507 11.4818L9.54537 11.4821L9.54566 11.4824L9.54595 11.4827L9.54625 11.4829L9.54654 11.4832L9.54683 11.4835L9.54713 11.4838L9.54742 11.4841L9.54772 11.4844L9.54801 11.4847L9.5483 11.485L9.5486 11.4853L9.54889 11.4856L9.54918 11.4859L9.54948 11.4862L9.54977 11.4865L9.55007 11.4868L9.55036 11.4871L9.55065 11.4874L9.55095 11.4876L9.55124 11.4879L9.55153 11.4882L9.55183 11.4885L9.55212 11.4888L9.55241 11.4891L9.55271 11.4894L9.553 11.4897L9.5533 11.49L9.55359 11.4903L9.55388 11.4906L9.55418 11.4909L9.55447 11.4912L9.55476 11.4915L9.55506 11.4918L9.55535 11.4921L9.55565 11.4923L9.55594 11.4926L9.55623 11.4929L9.55653 11.4932L9.55682 11.4935L9.55711 11.4938L9.55741 11.4941L9.5577 11.4944L9.558 11.4947L9.55829 11.495L9.55858 11.4953L9.55888 11.4956L9.55917 11.4959L9.55946 11.4962L9.55976 11.4965L9.56005 11.4967L9.56034 11.497L9.56064 11.4973L9.56093 11.4976L9.56123 11.4979L9.56152 11.4982L9.56181 11.4985L9.56211 11.4988L9.5624 11.4991L9.56269 11.4994L9.56299 11.4997L9.56328 11.5L9.56358 11.5003L9.56387 11.5006L9.56416 11.5009L9.56446 11.5012L9.56475 11.5014L9.56504 11.5017L9.56534 11.502L9.56563 11.5023L9.56592 11.5026L9.56622 11.5029L9.56651 11.5032L9.56681 11.5035L9.5671 11.5038L9.56739 11.5041L9.56769 11.5044L9.56798 11.5047L9.56827 11.505L9.56857 11.5053L9.56886 11.5056L9.56916 11.5059L9.56945 11.5061L9.56974 11.5064L9.57004 11.5067L9.57033 11.507L9.57062 11.5073L9.57092 11.5076L9.57121 11.5079L9.5715 11.5082L9.5718 11.5085L9.57209 11.5088L9.57239 11.5091L9.57268 11.5094L9.57297 11.5097L9.57327 11.51L9.57356 11.5103L9.57385 11.5106L9.57415 11.5108L9.57444 11.5111L9.57474 11.5114L9.57503 11.5117L9.57532 11.512L9.57562 11.5123L9.57591 11.5126L9.5762 11.5129L9.5765 11.5132L9.57679 11.5135L9.57709 11.5138L9.57738 11.5141L9.57767 11.5144L9.57797 11.5147L9.57826 11.515L9.57855 11.5153L9.57885 11.5155L9.57914 11.5158L9.57943 11.5161L9.57973 11.5164L9.58002 11.5167L9.58032 11.517L9.58061 11.5173L9.5809 11.5176L9.5812 11.5179L9.58149 11.5182L9.58178 11.5185L9.58208 11.5188L9.58237 11.5191L9.58267 11.5194L9.58296 11.5197L9.58325 11.52L9.58355 11.5202L9.58384 11.5205L9.58413 11.5208L9.58443 11.5211L9.58472 11.5214L9.58501 11.5217L9.58531 11.522L9.5856 11.5223L9.5859 11.5226L9.58619 11.5229L9.58648 11.5232L9.58678 11.5235L9.58707 11.5238L9.58736 11.5241L9.58766 11.5244L9.58795 11.5247L9.58825 11.5249L9.58854 11.5252L9.58883 11.5255L9.58913 11.5258L9.58942 11.5261L9.58971 11.5264L9.59001 11.5267L9.5903 11.527L9.59059 11.5273L9.59089 11.5276L9.59118 11.5279L9.59148 11.5282L9.59177 11.5285L9.59206 11.5288L9.59236 11.5291L9.59265 11.5293L9.59294 11.5296L9.59324 11.5299L9.59353 11.5302L9.59383 11.5305L9.59412 11.5308L9.59441 11.5311L9.59471 11.5314L9.595 11.5317L9.59529 11.532L9.59559 11.5323L9.59588 11.5326L9.59618 11.5329L9.59647 11.5332L9.59676 11.5335L9.59706 11.5338L9.59735 11.534L9.59764 11.5343L9.59794 11.5346L9.59823 11.5349L9.59852 11.5352L9.59882 11.5355L9.59911 11.5358L9.59941 11.5361L9.5997 11.5364L9.59999 11.5367L9.60029 11.537L9.60058 11.5373L9.60087 11.5376L9.60117 11.5379L9.60146 11.5382L9.60176 11.5385L9.60205 11.5387L9.60234 11.539L9.60264 11.5393L9.60293 11.5396L9.60322 11.5399L9.60352 11.5402L9.60381 11.5405L9.60411 11.5408L9.6044 11.5411L9.60469 11.5414L9.60499 11.5417L9.60528 11.542L9.60557 11.5423L9.60587 11.5426L9.60616 11.5429L9.60646 11.5432L9.60675 11.5434L9.60704 11.5437L9.60734 11.544L9.60763 11.5443L9.60792 11.5446L9.60822 11.5449L9.60851 11.5452L9.6088 11.5455L9.6091 11.5458L9.60939 11.5461L9.60969 11.5464L9.60998 11.5467L9.61027 11.547L9.61057 11.5473L9.61086 11.5476L9.61115 11.5479L9.61145 11.5481L9.61174 11.5484L9.61204 11.5487L9.61233 11.549L9.61262 11.5493L9.61292 11.5496L9.61321 11.5499L9.6135 11.5502L9.6138 11.5505L9.61409 11.5508L9.61439 11.5511L9.61468 11.5514L9.61497 11.5517L9.61527 11.552L9.61556 11.5523L9.61585 11.5526L9.61615 11.5528L9.61644 11.5531L9.61674 11.5534L9.61703 11.5537L9.61732 11.554L9.61762 11.5543L9.61791 11.5546L9.6182 11.5549L9.6185 11.5552L9.61879 11.5555L9.61909 11.5558L9.61938 11.5561L9.61967 11.5564L9.61997 11.5567L9.62026 11.557L9.62055 11.5573L9.62085 11.5575L9.62114 11.5578L9.62144 11.5581L9.62173 11.5584L9.62202 11.5587L9.62232 11.559L9.62261 11.5593L9.6229 11.5596L9.6232 11.5599L9.62349 11.5602L9.62379 11.5605L9.62408 11.5608L9.62437 11.5611L9.62467 11.5614L9.62496 11.5617L9.62525 11.562L9.62555 11.5622L9.62584 11.5625L9.62614 11.5628L9.62643 11.5631L9.62672 11.5634L9.62702 11.5637L9.62731 11.564L9.6276 11.5643L9.6279 11.5646L9.62819 11.5649L9.62849 11.5652L9.62878 11.5655L9.62907 11.5658L9.62937 11.5661L9.62966 11.5664L9.62995 11.5667L9.63025 11.5669L9.63054 11.5672L9.63084 11.5675L9.63113 11.5678L9.63142 11.5681L9.63172 11.5684L9.63201 11.5687L9.6323 11.569L9.6326 11.5693L9.63289 11.5696L9.63319 11.5699L9.63348 11.5702L9.63377 11.5705L9.63407 11.5708L9.63436 11.5711L9.63465 11.5714L9.63495 11.5716L9.63524 11.5719L9.63554 11.5722L9.63583 11.5725L9.63612 11.5728L9.63642 11.5731L9.63671 11.5734L9.63701 11.5737L9.6373 11.574L9.63759 11.5743L9.63789 11.5746L9.63818 11.5749L9.63847 11.5752L9.63877 11.5755L9.63906 11.5758L9.63936 11.5761L9.63965 11.5763L9.63994 11.5766L9.64024 11.5769L9.64053 11.5772L9.64082 11.5775L9.64112 11.5778L9.64141 11.5781L9.64171 11.5784L9.642 11.5787L9.64229 11.579L9.64259 11.5793L9.64288 11.5796L9.64317 11.5799L9.64347 11.5802L9.64376 11.5805L9.64406 11.5808L9.64435 11.581L9.64464 11.5813L9.64494 11.5816L9.64523 11.5819L9.64553 11.5822L9.64582 11.5825L9.64611 11.5828L9.67243 11.6091L9.70645 11.6242C9.90818 11.7137 10.1151 11.7464 10.3069 11.6751C10.4998 11.6035 10.6329 11.4434 10.7221 11.2437L10.7356 11.2135L10.7386 11.1806C10.7776 10.7617 10.7152 10.3563 10.552 9.96752L10.5487 9.95964L10.5448 9.95206C10.2514 9.39241 9.86594 8.97578 9.38371 8.71703C8.90162 8.45834 8.33893 8.36608 7.70561 8.42788Z" fill="#6A6A6A" stroke="#6A6A6A" stroke-width="0.4"/>
</g>
<g id="Group_3">
<path id="Vector_3" opacity="0.945" d="M15.3543 8.42788L15.3377 8.42951L15.3216 8.43386C14.6075 8.62685 14.0615 8.9619 13.7089 9.45316C13.3563 9.94451 13.2144 10.5679 13.2621 11.3039L13.2669 11.3791L13.3202 11.4324C13.4853 11.5975 13.6764 11.7059 13.8913 11.7059C14.1063 11.7059 14.2974 11.5975 14.4625 11.4324L14.5036 11.3912L14.5163 11.3344L14.6022 10.9477L14.6835 10.5818C14.7978 10.337 14.9463 10.1576 15.1257 10.0341C15.3056 9.91017 15.5273 9.8352 15.7984 9.81599C16.2129 9.86611 16.5058 10.0057 16.7017 10.2162C16.9005 10.4298 17.0215 10.7404 17.0432 11.1721L17.0446 11.2L17.0535 11.2264C17.1034 11.3734 17.1895 11.498 17.3097 11.5962L17.3305 11.6133L17.3552 11.6242C17.5569 11.7137 17.7638 11.7464 17.9557 11.6751C18.1486 11.6035 18.2816 11.4434 18.3708 11.2437L18.3836 11.2151L18.387 11.184C18.4337 10.7614 18.3709 10.3536 18.1994 9.96426L18.1998 9.96408L18.1935 9.95206C17.9002 9.39241 17.5147 8.97578 17.0324 8.71703C16.5504 8.45834 15.9877 8.36608 15.3543 8.42788Z" fill="#6A6A6A" stroke="#6A6A6A" stroke-width="0.4"/>
</g>
<g id="Group_4">
<path id="Vector_4" opacity="0.948" d="M7.60054 14.1439L7.56585 14.1426L7.53276 14.1531C7.31851 14.2209 7.13943 14.3372 7.04563 14.5247C6.95202 14.712 6.96578 14.9255 7.03864 15.1388L7.05017 15.1726L7.07268 15.2003C7.71316 15.9886 8.50706 16.5747 9.45173 16.9569L9.45167 16.957L9.45876 16.9596C10.8549 17.4642 12.1738 17.5834 13.41 17.3049C14.6462 17.0265 15.7839 16.354 16.8234 15.3006L16.8493 15.2744L16.8641 15.2407C16.9148 15.1255 16.9545 15.0064 16.9832 14.8834L16.9949 14.8334L16.981 14.7839C16.9117 14.5367 16.7878 14.3292 16.5771 14.2294C16.3665 14.1296 16.1274 14.1651 15.892 14.2679L15.8525 14.2851L15.8236 14.3171C15.3098 14.8861 14.7044 15.327 14.006 15.6408C12.8707 16.0561 11.8204 16.148 10.8496 15.9293C9.87697 15.7101 8.96798 15.1753 8.12283 14.3113L8.1022 14.2902L8.07636 14.276C7.92833 14.1944 7.76893 14.1501 7.60054 14.1439Z" fill="#6A6A6A" stroke="#6A6A6A" stroke-width="0.4"/>
</g>
</g>
</svg>
