<svg width="22" height="22" viewBox="0 0 22 22" fill="none" xmlns="http://www.w3.org/2000/svg">
<g id="stay-home (1) 1" clip-path="url(#clip0_3372_19782)">
<g id="Group">
<path id="Vector" opacity="0.971" d="M15.9503 16.8107L15.9502 16.8108C14.4495 18.6301 12.8011 20.302 11.0051 21.8266H11.005H11.0047H11.0044H11.004H11.0037H11.0033H11.003H11.0027H11.0023H11.002H11.0017H11.0013H11.001H11.0007H11.0003H11H10.9997H10.9993H10.999H10.9986H10.9983H10.998H10.9976H10.9973H10.997H10.9966H10.9963H10.996H10.9956H10.9953H10.995H10.9946H10.9943H10.9939H10.9936H10.9933H10.9929H10.9926H10.9923H10.9919H10.9916H10.9913H10.9909H10.9906H10.9903H10.9899H10.9896H10.9892H10.9889H10.9886H10.9882H10.9879H10.9876H10.9872H10.9869H10.9866H10.9862H10.9859H10.9856H10.9852H10.9849H10.9845H10.9842H10.9839H10.9835H10.9832H10.9829H10.9825H10.9822H10.9819H10.9815H10.9812H10.9809H10.9805H10.9802H10.9798H10.9795H10.9792H10.9788H10.9785H10.9782H10.9778H10.9775H10.9772H10.9768H10.9765H10.9762H10.9758H10.9755H10.9751H10.9748H10.9745H10.9741H10.9738H10.9735H10.9731H10.9728H10.9725H10.9721H10.9718H10.9714H10.9711H10.9708H10.9704H10.9701H10.9698H10.9694H10.9691H10.9688H10.9684H10.9681H10.9678H10.9674H10.9671H10.9667H10.9664H10.9661H10.9657H10.9654H10.9651H10.9647H10.9644H10.9641H10.9637H10.9634H10.9631H10.9627H10.9624H10.962H10.9617H10.9614H10.961H10.9607H10.9604H10.96H10.9597H10.9594H10.959H10.9587H10.9584H10.958H10.9577H10.9573H10.957H10.9567H10.9563H10.956H10.9557H10.9553H10.955H10.9547H10.9543H10.954H10.9537H10.9533H10.953H10.9526H10.9523H10.952H10.9516H10.9513H10.951H10.9506H10.9503H10.95H10.9496H10.9493H10.949H10.9486H10.9483H10.9479H10.9476H10.9473H10.9469H10.9466H10.9463H10.9459H10.9456H10.9453H10.9449H10.9446H10.9443H10.9439H10.9436H10.9432H10.9432C8.59261 19.8317 6.5168 17.5898 4.71565 15.1007C3.83062 13.8265 3.13601 12.4519 2.63169 10.9767C1.91182 8.14531 2.44615 5.58902 4.23712 3.29374C5.78128 1.46284 7.74106 0.408325 10.1236 0.126563H10.1248H10.1282H10.1315H10.1349H10.1383H10.1416H10.145H10.1483H10.1517H10.155H10.1584H10.1618H10.1651H10.1685H10.1718H10.1752H10.1785H10.1819H10.1853H10.1886H10.192H10.1953H10.1987H10.202H10.2054H10.2088H10.2121H10.2155H10.2188H10.2222H10.2255H10.2289H10.2323H10.2356H10.239H10.2423H10.2457H10.249H10.2524H10.2557H10.2591H10.2625H10.2658H10.2692H10.2725H10.2759H10.2792H10.2826H10.286H10.2893H10.2927H10.296H10.2994H10.3027H10.3061H10.3095H10.3128H10.3162H10.3195H10.3229H10.3262H10.3296H10.333H10.3363H10.3397H10.343H10.3464H10.3497H10.3531H10.3565H10.3598H10.3632H10.3665H10.3699H10.3732H10.3766H10.38H10.3833H10.3867H10.39H10.3934H10.3967H10.4001H10.4035H10.4068H10.4102H10.4135H10.4169H10.4202H10.4236H10.427H10.4303H10.4337H10.437H10.4404H10.4437H10.4471H10.4504H10.4538H10.4572H10.4605H10.4639H10.4672H10.4706H10.4739H10.4773H10.4807H10.484H10.4874H10.4907H10.4941H10.4974H10.5008H10.5042H10.5075H10.5109H10.5142H10.5176H10.5209H10.5243H10.5277H10.531H10.5344H10.5377H10.5411H10.5444H10.5478H10.5512H10.5545H10.5579H10.5612H10.5646H10.5679H10.5713H10.5747H10.578H10.5814H10.5847H10.5881H10.5914H10.5948H10.5982H10.6015H10.6049H10.6082H10.6116H10.6149H10.6183H10.6217H10.625H10.6284H10.6317H10.6351H10.6384H10.6418H10.6452H10.6485H10.6519H10.6552H10.6586H10.6619H10.6653H10.6687H10.672H10.6754H10.6787H10.6821H10.6854H10.6888H10.6922H10.6955H10.6989H10.7022H10.7056H10.7089H10.7123H10.7156H10.719H10.7224H10.7257H10.7291H10.7324H10.7358H10.7391H10.7425H10.7459H10.7492H10.7526H10.7559H10.7593H10.7626H10.766H10.7694H10.7727H10.7761H10.7794H10.7828H10.7861H10.7895H10.7929H10.7962H10.7996H10.8029H10.8063H10.8096H10.813H10.8164H10.8197H10.8231H10.8264H10.8298H10.8331H10.8365H10.8399H10.8432H10.8466H10.8499H10.8533H10.8566H10.86H10.8634H10.8667H10.8701H10.8734H10.8768H10.8801H10.8835H10.8869H10.8902H10.8936H10.8969H10.9003H10.9036H10.907H10.9104H10.9137H10.9171H10.9204H10.9238H10.9271H10.9305H10.9339H10.9372H10.9406H10.9439H10.9473H10.9506H10.954H10.9574H10.9607H10.9641H10.9674H10.9708H10.9741H10.9775H10.9809H10.9842H10.9876H10.9909H10.9943H10.9976H11.001H11.0043H11.0077H11.0111H11.0144H11.0178H11.0211H11.0245H11.0278H11.0312H11.0346H11.0379H11.0413H11.0446H11.048H11.0513H11.0547H11.0581H11.0614H11.0648H11.0681H11.0715H11.0748H11.0782H11.0816H11.0849H11.0883H11.0916H11.095H11.0983H11.1017H11.1051H11.1084H11.1118H11.1151H11.1185H11.1218H11.1252H11.1286H11.1319H11.1353H11.1386H11.142H11.1453H11.1487H11.1521H11.1554H11.1588H11.1621H11.1655H11.1688H11.1722H11.1756H11.1789H11.1823H11.1856H11.189H11.1923H11.1957H11.1991H11.2024H11.2058H11.2091H11.2125H11.2158H11.2192H11.2226H11.2259H11.2293H11.2326H11.236H11.2393H11.2427H11.2461H11.2494H11.2528H11.2561H11.2595H11.2628H11.2662H11.2695H11.2729H11.2763H11.2796H11.283H11.2863H11.2897H11.293H11.2964H11.2998H11.3031H11.3065H11.3098H11.3132H11.3165H11.3199H11.3233H11.3266H11.33H11.3333H11.3367H11.34H11.3434H11.3468H11.3501H11.3535H11.3568H11.3602H11.3635H11.3669H11.3703H11.3736H11.377H11.3803H11.3837H11.387H11.3904H11.3938H11.3971H11.4005H11.4038H11.4072H11.4105H11.4139H11.4173H11.4206H11.424H11.4273H11.4307H11.434H11.4374H11.4408H11.4441H11.4475H11.4508H11.4542H11.4575H11.4609H11.4643H11.4676H11.471H11.4743H11.4777H11.481H11.4844H11.4878H11.4911H11.4945H11.4978H11.5012H11.5045H11.5079H11.5112H11.5146H11.518H11.5213H11.5247H11.528H11.5314H11.5347H11.5381H11.5415H11.5448H11.5482H11.5515H11.5549H11.5582H11.5616H11.565H11.5683H11.5717H11.575H11.5784H11.5817H11.5851H11.5885H11.5918H11.5952H11.5985H11.6019H11.6052H11.6086H11.612H11.6153H11.6187H11.622H11.6254H11.6287H11.6321H11.6355H11.6388H11.6422H11.6455H11.6489H11.6522H11.6556H11.659H11.6623H11.6657H11.669H11.6724H11.6757H11.6791H11.6825H11.6858H11.6892H11.6925H11.6959H11.6992H11.7026H11.7059H11.7093H11.7127H11.716H11.7194H11.7227H11.7261H11.7294H11.7328H11.7362H11.7395H11.7429H11.7462H11.7496H11.7529H11.7563H11.7597H11.763H11.7664H11.7697H11.7731H11.7764H11.7798H11.7832H11.7865H11.7899H11.7932H11.7966H11.7999H11.8033H11.8067H11.81H11.8134H11.8167H11.8201H11.8231C15.264 0.607151 17.6722 2.43375 19.0634 5.61839C19.8847 7.85828 19.814 10.0648 18.8514 12.2462C18.0708 13.8924 17.1038 15.4139 15.9503 16.8107ZM10.9387 1.5455L10.9387 1.54497L10.9261 1.5454C9.09385 1.60749 7.4852 2.24364 6.10578 3.45161L6.10562 3.45142L6.09945 3.45749C5.00422 4.53417 4.29608 5.71309 3.98402 6.99437C3.67196 8.27565 3.75859 9.64857 4.23585 11.1091L4.30623 11.3244L4.477 11.1756C6.62216 9.30546 8.77345 7.44316 10.9309 5.58865L12.5733 7.00802L14.3136 8.51193L14.5428 8.71007L14.5614 8.4076C14.6014 7.75323 14.6167 7.09836 14.6072 6.44297H14.6094H14.6129H14.6163H14.6198H14.6232H14.6266H14.6301H14.6335H14.637H14.6404H14.6439H14.6473H14.6507H14.6542H14.6576H14.6611H14.6645H14.6679H14.6714H14.6748H14.6783H14.6817H14.6851H14.6886H14.692H14.6955H14.6989H14.7023H14.7058H14.7092H14.7127H14.7161H14.7196H14.723H14.7264H14.7299H14.7333H14.7368H14.7402H14.7436H14.7471H14.7505H14.754H14.7574H14.7608H14.7643H14.7677H14.7712H14.7746H14.778H14.7815H14.7849H14.7884H14.7918H14.7953H14.7987H14.8021H14.8056H14.809H14.8125H14.8159H14.8193H14.8228H14.8262H14.8297H14.8331H14.8365H14.84H14.8434H14.8469H14.8503H14.8537H14.8572H14.8606H14.8641H14.8675H14.871H14.8744H14.8778H14.8813H14.8847H14.8882H14.8916H14.895H14.8985H14.9019H14.9054H14.9088H14.9122H14.9157H14.9191H14.9226H14.926H14.9294H14.9329H14.9363H14.9398H14.9432H14.9467H14.9501H14.9535H14.957H14.9604H14.9639H14.9673H14.9707H14.9742H14.9776H14.9811H14.9845H14.9879H14.9914H14.9948H14.9983H15.0017H15.0051H15.0086H15.012H15.0155H15.0189H15.0223H15.0258H15.0292H15.0327H15.0361H15.0396H15.043H15.0464H15.0499H15.0533H15.0568H15.0602H15.0636H15.0671H15.0705H15.074H15.0774H15.0808H15.0843H15.0877H15.0912H15.0946H15.098H15.1015H15.1049H15.1084H15.1118H15.1153H15.1187H15.1221H15.1256H15.129H15.1325H15.1359H15.1393H15.1428H15.1462H15.1497H15.1531H15.1565H15.16H15.1634H15.1669H15.1703H15.1737H15.1772H15.1806H15.1841H15.1875H15.1909H15.1944H15.1978H15.2013H15.2047H15.2082H15.2116H15.215H15.2185H15.2219H15.2254H15.2288H15.2322H15.2357H15.2391H15.2426H15.246H15.2494H15.2529H15.2563H15.2598H15.2632H15.2666H15.2701H15.2735H15.277H15.2804H15.2839H15.2873H15.2907H15.2942H15.2976H15.3011H15.3045H15.3079H15.3114H15.3148H15.3183H15.3217H15.3251H15.3286H15.332H15.3355H15.3389H15.3423H15.3458H15.3492H15.3527H15.3561H15.3595H15.363H15.3664H15.3699H15.3733H15.3768H15.3802H15.3836H15.3871H15.3905H15.394H15.3974H15.4008H15.4043H15.4077H15.4112H15.4146H15.418H15.4215H15.4249H15.4284H15.4318H15.4352H15.4387H15.4421H15.4456H15.449H15.4525H15.4559H15.4593H15.4628H15.4662H15.4697H15.4731H15.4765H15.48H15.4834H15.4869H15.4903H15.4937H15.4972H15.5006H15.5041H15.5075H15.5109H15.5144H15.5178H15.5213H15.5247H15.5281H15.5316H15.535H15.5385H15.5419H15.5454H15.5488H15.5522H15.5557H15.5591H15.5626H15.566H15.5694H15.5729H15.5763H15.5798H15.5832H15.5866H15.5901H15.5935H15.597H15.6004H15.6038H15.6073H15.6107H15.6142H15.6176H15.6211H15.6245H15.6279H15.6314H15.6348H15.6383H15.6417H15.6451H15.6486H15.652H15.6555H15.6589H15.6623H15.6658H15.6692H15.6727H15.6761H15.6795H15.683H15.6864H15.6899H15.6933H15.6967H15.7002H15.7036H15.7071H15.7105H15.714H15.7174H15.7208H15.7243H15.7277H15.7312H15.7346H15.738H15.7415H15.7449H15.7484H15.7518H15.7552H15.7587H15.7621H15.7656H15.769H15.7724H15.7759H15.7793H15.7828H15.7862H15.7897H15.7931H15.7965H15.8H15.8034H15.8069H15.8103H15.8137H15.8172H15.8206H15.8241H15.8275H15.8309H15.8344H15.8378H15.8413H15.8447H15.8481H15.8516H15.855H15.8585H15.8619H15.8654H15.8688H15.8722H15.8757H15.8791H15.8826H15.886H15.8894H15.8929H15.8963H15.8998H15.9032H15.9066H15.9101H15.9135H15.917H15.9204H15.9238H15.9273H15.9307H15.9342H15.9376H15.9411H15.9445H15.9479H15.9514H15.9548H15.9583H15.9617H15.9651H15.9686H15.972H15.9755H15.9789H15.9823H15.9858H15.9892H15.9927H15.9961H15.9995H16.003H16.0064H16.0099H16.0133H16.0168H16.0202H16.0236H16.0271H16.0305H16.034H16.0374H16.0408H16.0443H16.0477H16.0512H16.0546H16.058H16.0615H16.0649H16.0655C16.0598 7.6257 16.0672 8.80832 16.0878 9.9909L16.089 10.0569L16.1385 10.1007C16.5704 10.4823 17.0085 10.8559 17.4531 11.2213L17.6144 11.354L17.6886 11.1587C18.3465 9.42708 18.3245 7.69765 17.6228 5.97847L17.623 5.97837L17.6191 5.97018C16.951 4.5801 16.0593 3.51115 14.9412 2.77065C13.8231 2.03018 12.487 1.62359 10.9387 1.5455ZM10.91 7.6055L10.8418 7.59548L10.7898 7.64068C8.87745 9.30241 6.97221 10.9713 5.07407 12.6473L4.98347 12.7273L5.04237 12.8329C5.35426 13.3918 5.69358 13.9332 6.06023 14.4571L6.0602 14.4571L6.06186 14.4594C7.47039 16.3937 9.07456 18.1633 10.8743 19.7682L10.9736 19.8568L11.0734 19.7687C13.3609 17.7489 15.304 15.4532 16.9023 12.8819L16.9702 12.7727L16.8726 12.6889C14.9556 11.044 13.0512 9.38308 11.1596 7.70612L11.1506 7.69817L11.1405 7.69175C11.0697 7.64677 10.9925 7.61763 10.91 7.6055Z" fill="#6A6A6A" stroke="#0C0C0F" stroke-width="0.3"/>
</g>
<g id="Group_2">
<path id="Vector_2" opacity="0.983" d="M9.79844 11.8141H9.7995H9.80453H9.80957H9.81461H9.81964H9.82468H9.82971H9.83475H9.83978H9.84482H9.84985H9.85489H9.85992H9.86496H9.87H9.87503H9.88007H9.8851H9.89014H9.89517H9.90021H9.90524H9.91028H9.91531H9.92035H9.92538H9.93042H9.93546H9.94049H9.94553H9.95056H9.9556H9.96063H9.96567H9.9707H9.97574H9.98077H9.98581H9.99084H9.99588H10.0009H10.006H10.011H10.016H10.0211H10.0261H10.0311H10.0362H10.0412H10.0462H10.0513H10.0563H10.0613H10.0664H10.0714H10.0764H10.0815H10.0865H10.0916H10.0966H10.1016H10.1067H10.1117H10.1167H10.1218H10.1268H10.1318H10.1369H10.1419H10.1469H10.152H10.157H10.162H10.1671H10.1721H10.1772H10.1822H10.1872H10.1923H10.1973H10.2023H10.2074H10.2124H10.2174H10.2225H10.2275H10.2325H10.2376H10.2426H10.2477H10.2527H10.2577H10.2628H10.2678H10.2728H10.2779H10.2829H10.2879H10.293H10.298H10.303H10.3081H10.3131H10.3181H10.3232H10.3282H10.3333H10.3383H10.3433H10.3484H10.3534H10.3584H10.3635H10.3685H10.3735H10.3786H10.3836H10.3886H10.3937H10.3987H10.4037H10.4088H10.4138H10.4189H10.4239H10.4289H10.434H10.439H10.444H10.4491H10.4541H10.4591H10.4642H10.4692H10.4742H10.4793H10.4843H10.4893H10.4944H10.4994H10.5045H10.5095H10.5145H10.5196H10.5246H10.5296H10.5347H10.5397H10.5447H10.5498H10.5548H10.5598H10.5649H10.5699H10.575H10.58H10.585H10.5901H10.5951H10.6001H10.6052H10.6102H10.6152H10.6203H10.6253H10.6303H10.6354H10.6404H10.6454H10.6505H10.6555H10.6606H10.6656H10.6706H10.6757H10.6807H10.6857H10.6908H10.6958H10.7008H10.7059H10.7109H10.7159H10.721H10.726H10.731H10.7361H10.7411H10.7462H10.7512H10.7562H10.7613H10.7663H10.7713H10.7764H10.7814H10.7864H10.7915H10.7965H10.8015H10.8066H10.8116H10.8167H10.8217H10.8267H10.8318H10.8368H10.8418H10.8469H10.8519H10.8569H10.862H10.867H10.872H10.8771H10.8821H10.8871H10.8922H10.8972H10.9023H10.9073H10.9123H10.9174H10.9224H10.9274H10.9325H10.9375H10.9425H10.9476H10.9526H10.9576H10.9627H10.9677H10.9727H10.9778H10.9828H10.9879H10.9929H10.9979H11.003H11.008H11.013H11.0181H11.0231H11.0281H11.0332H11.0382H11.0432H11.0483H11.0533H11.0583H11.0634H11.0684H11.0735H11.0785H11.0835H11.0886H11.0936H11.0986H11.1037H11.1087H11.1137H11.1188H11.1238H11.1288H11.1339H11.1389H11.144H11.149H11.154H11.1591H11.1641H11.1691H11.1742H11.1792H11.1842H11.1893H11.1943H11.1993H11.2044H11.2094H11.2144H11.2195H11.2245H11.2296H11.2346H11.2396H11.2447H11.2497H11.2547H11.2598H11.2648H11.2698H11.2749H11.2799H11.2849H11.29H11.295H11.3H11.3051H11.3101H11.3152H11.3202H11.3252H11.3303H11.3353H11.3403H11.3454H11.3504H11.3554H11.3605H11.3655H11.3705H11.3756H11.3806H11.3857H11.3907H11.3957H11.4008H11.4058H11.4108H11.4159H11.4209H11.4259H11.431H11.436H11.441H11.4461H11.4511H11.4561H11.4612H11.4662H11.4713H11.4763H11.4813H11.4864H11.4914H11.4964H11.5015H11.5065H11.5115H11.5166H11.5216H11.5266H11.5317H11.5367H11.5417H11.5468H11.5518H11.5569H11.5619H11.5669H11.572H11.577H11.582H11.5871H11.5921H11.5971H11.6022H11.6072H11.6122H11.6173H11.6223H11.6273H11.6324H11.6374H11.6425H11.6475H11.6525H11.6576H11.6626H11.6676H11.6727H11.6777H11.6827H11.6878H11.6928H11.6978H11.7029H11.7079H11.713H11.718H11.723H11.7281H11.7331H11.7381H11.7432H11.7482H11.7532H11.7583H11.7633H11.7683H11.7734H11.7784H11.7834H11.7885H11.7935H11.7986H11.8036H11.8086H11.8137H11.8187H11.8237H11.8288H11.8338H11.8388H11.8439H11.8489H11.8539H11.859H11.864H11.869H11.8741H11.8791H11.8842H11.8892H11.8942H11.8993H11.9043H11.9093H11.9144H11.9194H11.9244H11.9295H11.9345H11.9395H11.9446H11.9496H11.9547H11.9597H11.9647H11.9698H11.9748H11.9798H11.9849H11.9899H11.9949H12H12.005H12.01H12.0151H12.0201H12.0251H12.0302H12.0352H12.0403H12.0453H12.0503H12.0554H12.0604H12.0654H12.0705H12.0755H12.0766V11.8176V11.8228V11.8279V11.833V11.8381V11.8432V11.8484V11.8535V11.8586V11.8637V11.8688V11.874V11.8791V11.8842V11.8893V11.8944V11.8995V11.9047V11.9098V11.9149V11.92V11.9251V11.9303V11.9354V11.9405V11.9456V11.9507V11.9559V11.961V11.9661V11.9712V11.9763V11.9815V11.9866V11.9917V11.9968V12.0019V12.0071V12.0122V12.0173V12.0224V12.0275V12.0327V12.0378V12.0429V12.048V12.0531V12.0582V12.0634V12.0685V12.0736V12.0787V12.0838V12.089V12.0941V12.0992V12.1043V12.1094V12.1146V12.1197V12.1248V12.1299V12.135V12.1402V12.1453V12.1504V12.1555V12.1606V12.1658V12.1709V12.176V12.1811V12.1862V12.1913V12.1965V12.2016V12.2067V12.2118V12.2169V12.2221V12.2272V12.2323V12.2374V12.2425V12.2477V12.2528V12.2579V12.263V12.2681V12.2733V12.2784V12.2835V12.2886V12.2937V12.2989V12.304V12.3091V12.3142V12.3193V12.3245V12.3296V12.3347V12.3398V12.3449V12.35V12.3552V12.3603V12.3654V12.3705V12.3756V12.3808V12.3859V12.391V12.3961V12.4012V12.4064V12.4115V12.4166V12.4217V12.4268V12.432V12.4371V12.4422V12.4473V12.4524V12.4576V12.4627V12.4678V12.4729V12.478V12.4832V12.4883V12.4934V12.4985V12.5036V12.5087V12.5139V12.519V12.5241V12.5292V12.5343V12.5395V12.5446V12.5497V12.5548V12.5599V12.5651V12.5702V12.5753V12.5804V12.5855V12.5907V12.5958V12.6009V12.606V12.6111V12.6163V12.6214V12.6265V12.6316V12.6367V12.6419V12.647V12.6521V12.6572V12.6623V12.6674V12.6726V12.6777V12.6828V12.6879V12.693V12.6982V12.7033V12.7084V12.7135V12.7186V12.7238V12.7289V12.734V12.7391V12.7442V12.7494V12.7545V12.7596V12.7647V12.7698V12.775V12.7801V12.7852V12.7903V12.7954V12.8006V12.8057V12.8108V12.8159V12.821V12.8261V12.8313V12.8364V12.8415V12.8466V12.8517V12.8569V12.862V12.8671V12.8722V12.8773V12.8825V12.8876V12.8927V12.8978V12.9029V12.9081V12.9132V12.9183V12.9234V12.9285V12.9337V12.9388V12.9439V12.949V12.9541V12.9593V12.9644V12.9695V12.9746V12.9797V12.9848V12.99V12.9951V13.0002V13.0053V13.0104V13.0156V13.0207V13.0258V13.0309V13.036V13.0412V13.0463V13.0514V13.0565V13.0616V13.0668V13.0719V13.077V13.0821V13.0872V13.0924V13.0975V13.1026V13.1077V13.1128V13.118V13.1231V13.1282V13.1333V13.1384V13.1435V13.1487V13.1538V13.1589V13.164V13.1691V13.1743V13.1794V13.1845V13.1896V13.1947V13.1999V13.205V13.2101V13.2152V13.2203V13.2255V13.2306V13.2357V13.2408V13.2459V13.2511V13.2562V13.2613V13.2664V13.2715V13.2767V13.2818V13.2869V13.292V13.2971V13.3022V13.3074V13.3125V13.3176V13.3227V13.3278V13.333V13.3381V13.3432V13.3483V13.3534V13.3586V13.3637V13.3688V13.3739V13.379V13.3842V13.3893V13.3944V13.3995V13.4046V13.4098V13.4149V13.42V13.4251V13.4302V13.4354V13.4405V13.4456V13.4507V13.4558V13.4609V13.4661V13.4712V13.4763V13.4814V13.4865V13.4917V13.4968V13.5019V13.507V13.5121V13.5173V13.5224V13.5275V13.5326V13.5377V13.5429V13.548V13.5531V13.5582V13.5633V13.5685V13.5736V13.5787V13.5838V13.5889V13.5941V13.5992V13.6043V13.6094V13.6145V13.6196V13.6248V13.6299V13.635V13.6401V13.6452V13.6504V13.6555V13.6606V13.6657V13.6708V13.676V13.6811V13.6862V13.6913V13.6964V13.7016V13.7067V13.7118V13.7169V13.722V13.7272V13.7323V13.7374V13.7425V13.7476V13.7528V13.7579V13.763V13.7681V13.7732V13.7783V13.7835V13.7886V13.7937V13.7988V13.8039V13.8091V13.8142V13.8193V13.8244V13.8295V13.8347V13.8398V13.8449V13.85V13.8551V13.8603V13.8654V13.8705V13.8756V13.8807V13.8859V13.891V13.8961V13.9012V13.9063V13.9114V13.9166V13.9217V13.9268V13.9319V13.937V13.9422V13.9473V13.9524V13.9575V13.9626V13.9678V13.9729V13.978V13.9831V13.9882V13.9934V13.9985V14.0036V14.0087V14.0138V14.019V14.0241V14.0292V14.0343V14.0394V14.0446V14.0497V14.0548V14.0599V14.065V14.0701V14.0753V14.0804V14.0855V14.0906V14.0957V14.1009V14.106V14.1111V14.1162V14.1213V14.1265V14.1316V14.1352H12.0755H12.0705H12.0654H12.0604H12.0554H12.0503H12.0453H12.0403H12.0352H12.0302H12.0251H12.0201H12.0151H12.01H12.005H12H11.9949H11.9899H11.9849H11.9798H11.9748H11.9698H11.9647H11.9597H11.9547H11.9496H11.9446H11.9395H11.9345H11.9295H11.9244H11.9194H11.9144H11.9093H11.9043H11.8993H11.8942H11.8892H11.8842H11.8791H11.8741H11.869H11.864H11.859H11.8539H11.8489H11.8439H11.8388H11.8338H11.8288H11.8237H11.8187H11.8137H11.8086H11.8036H11.7986H11.7935H11.7885H11.7834H11.7784H11.7734H11.7683H11.7633H11.7583H11.7532H11.7482H11.7432H11.7381H11.7331H11.7281H11.723H11.718H11.713H11.7079H11.7029H11.6978H11.6928H11.6878H11.6827H11.6777H11.6727H11.6676H11.6626H11.6576H11.6525H11.6475H11.6425H11.6374H11.6324H11.6273H11.6223H11.6173H11.6122H11.6072H11.6022H11.5971H11.5921H11.5871H11.582H11.577H11.572H11.5669H11.5619H11.5569H11.5518H11.5468H11.5417H11.5367H11.5317H11.5266H11.5216H11.5166H11.5115H11.5065H11.5015H11.4964H11.4914H11.4864H11.4813H11.4763H11.4713H11.4662H11.4612H11.4561H11.4511H11.4461H11.441H11.436H11.431H11.4259H11.4209H11.4159H11.4108H11.4058H11.4008H11.3957H11.3907H11.3857H11.3806H11.3756H11.3705H11.3655H11.3605H11.3554H11.3504H11.3454H11.3403H11.3353H11.3303H11.3252H11.3202H11.3152H11.3101H11.3051H11.3H11.295H11.29H11.2849H11.2799H11.2749H11.2698H11.2648H11.2598H11.2547H11.2497H11.2447H11.2396H11.2346H11.2296H11.2245H11.2195H11.2144H11.2094H11.2044H11.1993H11.1943H11.1893H11.1842H11.1792H11.1742H11.1691H11.1641H11.1591H11.154H11.149H11.144H11.1389H11.1339H11.1288H11.1238H11.1188H11.1137H11.1087H11.1037H11.0986H11.0936H11.0886H11.0835H11.0785H11.0735H11.0684H11.0634H11.0583H11.0533H11.0483H11.0432H11.0382H11.0332H11.0281H11.0231H11.0181H11.013H11.008H11.003H10.9979H10.9929H10.9879H10.9828H10.9778H10.9727H10.9677H10.9627H10.9576H10.9526H10.9476H10.9425H10.9375H10.9325H10.9274H10.9224H10.9174H10.9123H10.9073H10.9023H10.8972H10.8922H10.8871H10.8821H10.8771H10.872H10.867H10.862H10.8569H10.8519H10.8469H10.8418H10.8368H10.8318H10.8267H10.8217H10.8167H10.8116H10.8066H10.8015H10.7965H10.7915H10.7864H10.7814H10.7764H10.7713H10.7663H10.7613H10.7562H10.7512H10.7462H10.7411H10.7361H10.731H10.726H10.721H10.7159H10.7109H10.7059H10.7008H10.6958H10.6908H10.6857H10.6807H10.6757H10.6706H10.6656H10.6606H10.6555H10.6505H10.6454H10.6404H10.6354H10.6303H10.6253H10.6203H10.6152H10.6102H10.6052H10.6001H10.5951H10.5901H10.585H10.58H10.575H10.5699H10.5649H10.5598H10.5548H10.5498H10.5447H10.5397H10.5347H10.5296H10.5246H10.5196H10.5145H10.5095H10.5045H10.4994H10.4944H10.4893H10.4843H10.4793H10.4742H10.4692H10.4642H10.4591H10.4541H10.4491H10.444H10.439H10.434H10.4289H10.4239H10.4189H10.4138H10.4088H10.4037H10.3987H10.3937H10.3886H10.3836H10.3786H10.3735H10.3685H10.3635H10.3584H10.3534H10.3484H10.3433H10.3383H10.3333H10.3282H10.3232H10.3181H10.3131H10.3081H10.303H10.298H10.293H10.2879H10.2829H10.2779H10.2728H10.2678H10.2628H10.2577H10.2527H10.2477H10.2426H10.2376H10.2325H10.2275H10.2225H10.2174H10.2124H10.2074H10.2023H10.1973H10.1923H10.1872H10.1822H10.1772H10.1721H10.1671H10.162H10.157H10.152H10.1469H10.1419H10.1369H10.1318H10.1268H10.1218H10.1167H10.1117H10.1067H10.1016H10.0966H10.0916H10.0865H10.0815H10.0764H10.0714H10.0664H10.0613H10.0563H10.0513H10.0462H10.0412H10.0362H10.0311H10.0261H10.0211H10.016H10.011H10.006H10.0009H9.99588H9.99084H9.98581H9.98077H9.97574H9.9707H9.96567H9.96063H9.9556H9.95056H9.94553H9.94049H9.93546H9.93042H9.92538H9.92035H9.91531H9.91028H9.90524H9.90021H9.89517H9.89014H9.8851H9.88007H9.87503H9.87H9.86496H9.85992H9.85489H9.84985H9.84482H9.83978H9.83475H9.82971H9.82468H9.81964H9.81461H9.80957H9.80453H9.7995H9.79844V14.1316V14.1265V14.1213V14.1162V14.1111V14.106V14.1009V14.0957V14.0906V14.0855V14.0804V14.0753V14.0701V14.065V14.0599V14.0548V14.0497V14.0446V14.0394V14.0343V14.0292V14.0241V14.019V14.0138V14.0087V14.0036V13.9985V13.9934V13.9882V13.9831V13.978V13.9729V13.9678V13.9626V13.9575V13.9524V13.9473V13.9422V13.937V13.9319V13.9268V13.9217V13.9166V13.9114V13.9063V13.9012V13.8961V13.891V13.8859V13.8807V13.8756V13.8705V13.8654V13.8603V13.8551V13.85V13.8449V13.8398V13.8347V13.8295V13.8244V13.8193V13.8142V13.8091V13.8039V13.7988V13.7937V13.7886V13.7835V13.7783V13.7732V13.7681V13.763V13.7579V13.7528V13.7476V13.7425V13.7374V13.7323V13.7272V13.722V13.7169V13.7118V13.7067V13.7016V13.6964V13.6913V13.6862V13.6811V13.676V13.6708V13.6657V13.6606V13.6555V13.6504V13.6452V13.6401V13.635V13.6299V13.6248V13.6196V13.6145V13.6094V13.6043V13.5992V13.5941V13.5889V13.5838V13.5787V13.5736V13.5685V13.5633V13.5582V13.5531V13.548V13.5429V13.5377V13.5326V13.5275V13.5224V13.5173V13.5121V13.507V13.5019V13.4968V13.4917V13.4865V13.4814V13.4763V13.4712V13.4661V13.4609V13.4558V13.4507V13.4456V13.4405V13.4354V13.4302V13.4251V13.42V13.4149V13.4098V13.4046V13.3995V13.3944V13.3893V13.3842V13.379V13.3739V13.3688V13.3637V13.3586V13.3534V13.3483V13.3432V13.3381V13.333V13.3278V13.3227V13.3176V13.3125V13.3074V13.3022V13.2971V13.292V13.2869V13.2818V13.2767V13.2715V13.2664V13.2613V13.2562V13.2511V13.2459V13.2408V13.2357V13.2306V13.2255V13.2203V13.2152V13.2101V13.205V13.1999V13.1947V13.1896V13.1845V13.1794V13.1743V13.1691V13.164V13.1589V13.1538V13.1487V13.1435V13.1384V13.1333V13.1282V13.1231V13.118V13.1128V13.1077V13.1026V13.0975V13.0924V13.0872V13.0821V13.077V13.0719V13.0668V13.0616V13.0565V13.0514V13.0463V13.0412V13.036V13.0309V13.0258V13.0207V13.0156V13.0104V13.0053V13.0002V12.9951V12.99V12.9848V12.9797V12.9746V12.9695V12.9644V12.9593V12.9541V12.949V12.9439V12.9388V12.9337V12.9285V12.9234V12.9183V12.9132V12.9081V12.9029V12.8978V12.8927V12.8876V12.8825V12.8773V12.8722V12.8671V12.862V12.8569V12.8517V12.8466V12.8415V12.8364V12.8313V12.8261V12.821V12.8159V12.8108V12.8057V12.8006V12.7954V12.7903V12.7852V12.7801V12.775V12.7698V12.7647V12.7596V12.7545V12.7494V12.7442V12.7391V12.734V12.7289V12.7238V12.7186V12.7135V12.7084V12.7033V12.6982V12.693V12.6879V12.6828V12.6777V12.6726V12.6674V12.6623V12.6572V12.6521V12.647V12.6419V12.6367V12.6316V12.6265V12.6214V12.6163V12.6111V12.606V12.6009V12.5958V12.5907V12.5855V12.5804V12.5753V12.5702V12.5651V12.5599V12.5548V12.5497V12.5446V12.5395V12.5343V12.5292V12.5241V12.519V12.5139V12.5087V12.5036V12.4985V12.4934V12.4883V12.4832V12.478V12.4729V12.4678V12.4627V12.4576V12.4524V12.4473V12.4422V12.4371V12.432V12.4268V12.4217V12.4166V12.4115V12.4064V12.4012V12.3961V12.391V12.3859V12.3808V12.3756V12.3705V12.3654V12.3603V12.3552V12.35V12.3449V12.3398V12.3347V12.3296V12.3245V12.3193V12.3142V12.3091V12.304V12.2989V12.2937V12.2886V12.2835V12.2784V12.2733V12.2681V12.263V12.2579V12.2528V12.2477V12.2425V12.2374V12.2323V12.2272V12.2221V12.2169V12.2118V12.2067V12.2016V12.1965V12.1913V12.1862V12.1811V12.176V12.1709V12.1658V12.1606V12.1555V12.1504V12.1453V12.1402V12.135V12.1299V12.1248V12.1197V12.1146V12.1094V12.1043V12.0992V12.0941V12.089V12.0838V12.0787V12.0736V12.0685V12.0634V12.0582V12.0531V12.048V12.0429V12.0378V12.0327V12.0275V12.0224V12.0173V12.0122V12.0071V12.0019V11.9968V11.9917V11.9866V11.9815V11.9763V11.9712V11.9661V11.961V11.9559V11.9507V11.9456V11.9405V11.9354V11.9303V11.9251V11.92V11.9149V11.9098V11.9047V11.8995V11.8944V11.8893V11.8842V11.8791V11.874V11.8688V11.8637V11.8586V11.8535V11.8484V11.8432V11.8381V11.833V11.8279V11.8228V11.8176V11.8141Z" fill="#6A6A6A" stroke="#0C0C0F" stroke-width="0.3"/>
</g>
</g>
<defs>
<clipPath id="clip0_3372_19782">
<rect width="22" height="22" fill="white"/>
</clipPath>
</defs>
</svg>
