<svg width="22" height="16" viewBox="0 0 22 16" fill="none" xmlns="http://www.w3.org/2000/svg">
<g id="Updated Logo">
<path id="Vector" d="M21.9948 6.92576V6.90351C21.9477 5.57603 21.3861 4.31891 20.4289 3.39794C19.4717 2.47696 18.1939 1.96431 16.8656 1.96838C16.2113 1.96838 15.0088 2.31623 15.0088 2.31623L14.866 2.25929C14.866 2.25929 12.6462 0.579998 11.0003 0.580078C9.35452 0.580158 7.13508 2.25929 7.13508 2.25929L6.99791 2.3183C6.99791 2.3183 5.79233 1.96838 5.13442 1.96838C3.80611 1.96431 2.52828 2.47696 1.57108 3.39794C0.613876 4.31891 0.0523368 5.57603 0.00517666 6.90351V6.91282L0 15.4181H0.743841C1.39062 15.4171 2.01064 15.1598 2.46803 14.7025C2.92542 14.2452 3.18288 13.6252 3.18397 12.9785V11.8526C4.32758 12.3213 5.60186 12.3619 6.77297 11.9669C7.94409 11.572 8.93351 10.7679 9.55968 9.70236V10.7992C9.56009 11.1801 9.71155 11.5453 9.98083 11.8147C10.2501 12.084 10.6152 12.2356 10.9961 12.2362H11.0003C11.3811 12.2356 11.7463 12.084 12.0156 11.8147C12.2848 11.5453 12.4363 11.1801 12.4367 10.7992V9.70236C13.063 10.7689 14.0531 11.5736 15.2252 11.9686C16.3972 12.3636 17.6724 12.3224 18.8165 11.8526V12.9785C18.8172 13.6256 19.0746 14.2461 19.5321 14.7037C19.9897 15.1613 20.6101 15.4188 21.2572 15.4196H22L21.9948 6.92576Z" fill="white"/>
<g id="Group 950683181">
<path id="Vector_2" d="M11.0255 4.22461H11.0198C10.5515 4.22461 10.1719 4.60422 10.1719 5.0725V10.7665C10.1719 11.2348 10.5515 11.6144 11.0198 11.6144H11.0255C11.4937 11.6144 11.8733 11.2348 11.8733 10.7665V5.0725C11.8733 4.60422 11.4937 4.22461 11.0255 4.22461Z" fill="#6A6A6A"/>
<path id="Vector_3" d="M0.615068 6.89579C0.654961 5.89079 1.02725 4.92745 1.67357 4.15681C2.31988 3.38617 3.20368 2.85181 4.18637 2.63751C5.16907 2.42322 6.19509 2.54111 7.10358 2.9727C8.01206 3.40429 8.75163 4.12517 9.20632 5.02231C9.66101 5.91946 9.80511 6.94213 9.61602 7.92999C9.42694 8.91784 8.91537 9.81502 8.16151 10.4808C7.40766 11.1467 6.45416 11.5435 5.45051 11.6091C4.44686 11.6747 3.44982 11.4053 2.61573 10.8433V12.949C2.61586 13.1922 2.56808 13.433 2.47512 13.6577C2.38216 13.8824 2.24583 14.0866 2.07393 14.2586C1.90203 14.4306 1.69792 14.567 1.47327 14.6601C1.24863 14.7532 1.00784 14.8011 0.764665 14.8011H0.609375L0.615068 6.89579ZM5.15628 9.91722C5.71936 9.91784 6.26998 9.75147 6.7385 9.43915C7.20703 9.12682 7.57242 8.68258 7.78847 8.1626C8.00452 7.64261 8.06152 7.07024 7.95228 6.51786C7.84303 5.96548 7.57243 5.4579 7.1747 5.0593C6.77698 4.66071 6.26999 4.38901 5.71785 4.27855C5.16571 4.1681 4.59321 4.22386 4.07276 4.43877C3.5523 4.65368 3.10726 5.0181 2.79392 5.48595C2.48058 5.95379 2.31301 6.50405 2.31239 7.06713V7.07023C2.31239 7.8245 2.6117 8.54794 3.14461 9.08172C3.67752 9.6155 4.40047 9.91599 5.15473 9.91722H5.15628Z" fill="#6A6A6A"/>
<path id="Vector_4" d="M21.4257 6.89579C21.3858 5.89079 21.0135 4.92745 20.3672 4.15681C19.7209 3.38617 18.8371 2.85181 17.8544 2.63751C16.8717 2.42322 15.8457 2.54111 14.9372 2.9727C14.0287 3.40429 13.2891 4.12517 12.8345 5.02231C12.3798 5.91946 12.2357 6.94213 12.4248 7.92999C12.6138 8.91784 13.1254 9.81502 13.8793 10.4808C14.6331 11.1467 15.5866 11.5435 16.5903 11.6091C17.5939 11.6747 18.5909 11.4053 19.425 10.8433V12.949C19.4249 13.1922 19.4727 13.433 19.5657 13.6577C19.6586 13.8824 19.7949 14.0866 19.9668 14.2586C20.1387 14.4306 20.3429 14.567 20.5675 14.6601C20.7921 14.7532 21.0329 14.8011 21.2761 14.8011H21.4314L21.4257 6.89579ZM16.886 9.91722C16.323 9.91784 15.7724 9.75147 15.3038 9.43915C14.8353 9.12682 14.4699 8.68258 14.2539 8.1626C14.0378 7.64261 13.9808 7.07024 14.0901 6.51786C14.1993 5.96548 14.4699 5.4579 14.8676 5.0593C15.2653 4.66071 15.7723 4.38901 16.3245 4.27855C16.8766 4.1681 17.4491 4.22386 17.9696 4.43877C18.49 4.65368 18.9351 5.0181 19.2484 5.48595C19.5617 5.95379 19.7293 6.50405 19.7299 7.06713V7.07023C19.7299 7.82476 19.4304 8.54844 18.8972 9.08226C18.3639 9.61609 17.6406 9.9164 16.886 9.91722Z" fill="#6A6A6A"/>
<path id="Vector_5" d="M7.00265 7.04625C7.00265 7.41031 6.89471 7.76621 6.69249 8.06895C6.49026 8.37169 6.20282 8.60767 5.8665 8.74708C5.53018 8.88649 5.16008 8.92306 4.80298 8.85218C4.44588 8.78129 4.11781 8.60612 3.86024 8.34881C3.60268 8.09151 3.42718 7.76362 3.35592 7.40659C3.28467 7.04957 3.32086 6.67943 3.45992 6.34297C3.59899 6.00651 3.83468 5.71882 4.13721 5.51629C4.43974 5.31375 4.79553 5.20545 5.15959 5.20508C5.23261 5.20508 5.30554 5.21012 5.37787 5.22017C5.23533 5.4151 5.15885 5.6505 5.15959 5.89198C5.15926 6.19767 5.28033 6.49098 5.49619 6.70742C5.71205 6.92387 6.00503 7.04575 6.31072 7.04625C6.5522 7.04699 6.78759 6.97051 6.98252 6.82797C6.99425 6.90018 7.00098 6.97311 7.00265 7.04625Z" fill="#6A6A6A"/>
<path id="Vector_6" d="M11.0241 1.1875C9.813 1.18758 8.17969 2.4231 8.17969 2.4231L9.38578 3.65093C9.38578 3.65093 10.3249 2.92882 11.0241 2.92882C11.7233 2.92882 12.6624 3.65093 12.6624 3.65093L13.869 2.4231C13.869 2.4231 12.2354 1.18742 11.0241 1.1875Z" fill="#6A6A6A"/>
<path id="Vector_7" d="M18.7188 7.04688C18.7186 7.411 18.6105 7.76691 18.4082 8.0696C18.2058 8.3723 17.9182 8.60819 17.5817 8.74744C17.2453 8.8867 16.8751 8.92307 16.518 8.85196C16.1609 8.78085 15.8329 8.60544 15.5755 8.34793C15.318 8.09041 15.1427 7.76234 15.0717 7.40521C15.0008 7.04807 15.0373 6.67791 15.1766 6.34152C15.316 6.00512 15.552 5.71761 15.8547 5.51533C16.1575 5.31304 16.5135 5.20508 16.8776 5.20508C16.9506 5.20529 17.0235 5.21054 17.0959 5.2208C16.9533 5.41573 16.8768 5.65113 16.8776 5.89261C16.8772 6.19797 16.9981 6.491 17.2135 6.70739C17.429 6.92379 17.7215 7.04588 18.0268 7.04688C18.2683 7.04762 18.5037 6.97114 18.6986 6.8286C18.7103 6.90081 18.7171 6.97374 18.7188 7.04688Z" fill="#6A6A6A"/>
</g>
</g>
</svg>
