<svg width="22" height="22" viewBox="0 0 22 22" fill="none" xmlns="http://www.w3.org/2000/svg">
<g id="Group 950682489">
<g id="Group">
<path id="Vector" opacity="0.967" d="M10.949 1.49566L10.949 1.49526L10.94 1.49573C10.3166 1.52825 9.69045 1.60229 9.06179 1.71783L9.06175 1.71764L9.05573 1.71913C5.36129 2.63776 2.9452 4.9182 1.81733 8.55125L1.76229 8.72851L1.94061 8.67696C2.81619 8.42381 3.69866 8.17902 4.588 7.9426C8.85914 6.93351 13.1297 6.93351 17.4007 7.9426C18.2903 8.17912 19.1727 8.42391 20.0481 8.67696L20.2256 8.72828L20.1715 8.5516C19.9274 7.7549 19.6057 6.98892 19.2065 6.25376L19.2067 6.25367L19.2034 6.24841C17.306 3.2178 14.5511 1.63189 10.949 1.49566ZM9.76343 8.60351L9.76342 8.60348L9.76078 8.60364C6.95853 8.78129 4.24056 9.37168 1.60724 10.3747L1.54748 10.3975L1.54308 10.4613C1.51003 10.9397 1.51003 11.4182 1.54308 11.8966L1.54894 11.9815L1.63363 11.9893C3.40515 12.1531 5.17628 12.3405 6.94697 12.5515C7.74167 12.8189 8.36823 13.2246 8.83136 13.7661C9.29622 14.3097 9.60081 14.9952 9.742 15.8271C9.96647 17.3147 10.1956 18.8015 10.4292 20.2876L10.4366 20.3344L10.4774 20.3584C10.631 20.4484 10.8007 20.5017 10.9851 20.5187L10.9994 20.52L11.0135 20.5173C11.1716 20.4864 11.328 20.4535 11.4827 20.4187L11.5493 20.4037L11.5596 20.3361C11.7996 18.7512 12.0449 17.1672 12.2955 15.5839C12.4535 14.8017 12.762 14.1613 13.2181 13.6583C13.6728 13.1568 14.2788 12.787 15.0405 12.5517C16.7997 12.3402 18.5627 12.1609 20.3296 12.0139L20.4068 12.0075L20.4199 11.9311C20.5048 11.4361 20.5132 10.9437 20.4449 10.4543L20.4367 10.396L20.3818 10.3748C16.9668 9.05888 13.4271 8.46841 9.76343 8.60351ZM1.97123 13.4568L1.82102 13.4428L1.86659 13.5866C2.96758 17.0612 5.28461 19.2758 8.80849 20.2216L8.95425 20.2607L8.93346 20.1112C8.72856 18.6381 8.50755 17.1668 8.27043 15.6973L8.27105 15.6972L8.26806 15.6865C8.13199 15.1969 7.90426 14.7975 7.58216 14.493C7.26005 14.1885 6.84853 13.9837 6.35218 13.8754L6.35233 13.8747L6.34054 13.8735C4.88384 13.7319 3.42739 13.593 1.97123 13.4568ZM20.1218 13.6364L20.1401 13.5803L20.0999 13.5372C20.0374 13.4702 19.9555 13.4419 19.8654 13.4573C18.4682 13.6057 17.0627 13.7444 15.6487 13.8735L15.6487 13.8727L15.6365 13.8754C15.1402 13.9837 14.7286 14.1885 14.4065 14.493C14.0844 14.7975 13.8567 15.1969 13.7206 15.6865L13.72 15.6863L13.7183 15.6973C13.4811 17.1668 13.2601 18.6381 13.0552 20.1112L13.0344 20.2607L13.1802 20.2216C16.6819 19.2814 18.9988 17.0835 20.1218 13.6364ZM9.9721 0.126619C13.7591 -0.106219 16.8939 1.18813 19.3854 4.01263C21.7497 7.00916 22.4464 10.3576 21.477 14.0676C20.2966 17.7235 17.8912 20.1742 14.2537 21.4265C10.4756 22.4693 7.05756 21.7898 3.98965 19.3865C0.940472 16.6692 -0.31499 13.2807 0.219787 9.20997C0.976959 5.42173 3.09121 2.69601 6.56852 1.02493C7.6648 0.557292 8.79927 0.257912 9.9721 0.126619Z" fill="#6A6A6A" stroke="#6A6A6A" stroke-width="0.2"/>
</g>
<g id="Group_2">
<path id="Vector_2" opacity="0.967" d="M9.53962 10.6577C9.69476 10.0841 10.0494 9.72146 10.6121 9.5593C11.2916 9.52085 11.7647 9.66248 12.0575 9.95852C12.3499 10.2542 12.4846 10.7264 12.4356 11.4008C12.2849 11.8429 12.059 12.1443 11.7646 12.3192C11.469 12.4948 11.0904 12.5512 10.6195 12.4755C10.1744 12.3249 9.87129 12.0988 9.6956 11.804C9.51941 11.5082 9.46308 11.1293 9.53962 10.6577Z" fill="#6A6A6A" stroke="#6A6A6A" stroke-width="0.2"/>
</g>
</g>
</svg>
