<svg xmlns="http://www.w3.org/2000/svg" width="24" height="24" viewBox="0 0 24 24" fill="none">
  <g clip-path="url(#clip0_2554_25816)">
    <path opacity="0.975" fill-rule="evenodd" clip-rule="evenodd" d="M10.9453 -0.0234375C11.6328 -0.0234375 12.3203 -0.0234375 13.0078 -0.0234375C17.7078 0.564412 21.0593 3.00191 23.0625 7.28906C23.5451 8.46956 23.8498 9.68831 23.9766 10.9453C23.9766 11.6328 23.9766 12.3203 23.9766 13.0078C23.3887 17.7078 20.9512 21.0593 16.6641 23.0625C15.4836 23.5451 14.2648 23.8498 13.0078 23.9766C12.3203 23.9766 11.6328 23.9766 10.9453 23.9766C6.24534 23.3887 2.89378 20.9512 0.890625 16.6641C0.407997 15.4836 0.103309 14.2648 -0.0234375 13.0078C-0.0234375 12.3203 -0.0234375 11.6328 -0.0234375 10.9453C0.564412 6.24534 3.00191 2.89378 7.28906 0.890625C8.46956 0.407997 9.68831 0.103309 10.9453 -0.0234375ZM11.3672 2.17969C15.4748 2.13495 18.5608 3.86933 20.625 7.38281C22.1692 10.4842 22.1535 13.5779 20.5781 16.6641C18.4998 20.1218 15.4295 21.8172 11.3672 21.75C7.78552 21.3993 5.10581 19.6727 3.32812 16.5703C1.78394 13.469 1.79956 10.3752 3.375 7.28906C5.1727 4.24488 7.8368 2.54175 11.3672 2.17969Z" fill="#EC3F3F"/>
    <path opacity="0.963" fill-rule="evenodd" clip-rule="evenodd" d="M11.788 18.8877C12.7687 18.8676 13.3312 18.3754 13.4755 17.4111C13.3213 16.3571 12.7119 15.8728 11.6474 15.958C11.1396 16.0829 10.788 16.3876 10.5927 16.8721C10.3408 17.9309 10.7392 18.6028 11.788 18.8877Z" fill="#EC3F3F"/>
    <path opacity="0.966" fill-rule="evenodd" clip-rule="evenodd" d="M11.6953 13.7784C12.4327 13.8598 12.8937 13.5473 13.0781 12.8409C13.1094 10.5596 13.1094 8.27841 13.0781 5.99714C12.8795 5.22193 12.3873 4.91724 11.6016 5.08308C11.1846 5.24991 10.9425 5.5546 10.875 5.99714C10.8437 8.27841 10.8437 10.5596 10.875 12.8409C10.9595 13.3236 11.2329 13.636 11.6953 13.7784Z" fill="#EC3F3F"/>
  </g>
  <defs>
    <clipPath id="clip0_2554_25816">
      <rect width="24" height="24" fill="white"/>
    </clipPath>
  </defs>
</svg>