<svg width="16" height="16" viewBox="0 0 16 16" fill="none" xmlns="http://www.w3.org/2000/svg">
<g id="video (1) 1" clip-path="url(#clip0_3372_19915)">
<g id="Group">
<path id="Vector" opacity="0.979" fill-rule="evenodd" clip-rule="evenodd" d="M2.51562 -0.015625C6.16147 -0.015625 9.80728 -0.015625 13.4531 -0.015625C14.849 0.276042 15.6927 1.11979 15.9844 2.51562C15.9844 6.16147 15.9844 9.80728 15.9844 13.4531C15.6931 14.8486 14.8493 15.6924 13.4531 15.9844C9.80728 15.9844 6.16147 15.9844 2.51562 15.9844C1.11973 15.6927 0.275978 14.8489 -0.015625 13.4531C-0.015625 9.80728 -0.015625 6.16147 -0.015625 2.51562C0.276042 1.11979 1.11979 0.276042 2.51562 -0.015625ZM2.70312 1.10938C3.0991 1.10417 3.49494 1.10938 3.89062 1.125C4.56609 2.06089 5.25359 2.98798 5.95312 3.90625C4.33856 3.92188 2.72399 3.92709 1.10938 3.92188C1.10417 3.5155 1.10938 3.10924 1.125 2.70312C1.3025 1.82252 1.82854 1.29127 2.70312 1.10938ZM5.29688 1.14062C6.39575 1.10424 7.49994 1.09903 8.60938 1.125C9.29688 2.05208 9.98438 2.97917 10.6719 3.90625C9.56772 3.92709 8.46353 3.92709 7.35938 3.90625C6.68819 2.96982 6.00069 2.04795 5.29688 1.14062ZM10.0469 1.14062C11.1145 1.10424 12.1874 1.09903 13.2656 1.125C14.1458 1.29688 14.6719 1.82292 14.8438 2.70312C14.8594 3.10924 14.8646 3.5155 14.8594 3.92188C13.9427 3.92709 13.026 3.92188 12.1094 3.90625C11.4141 2.98747 10.7266 2.06559 10.0469 1.14062ZM1.10938 5.04688C5.69272 5.04688 10.276 5.04688 14.8594 5.04688C14.8646 7.78647 14.8594 10.5261 14.8438 13.2656C14.6719 14.1458 14.1458 14.6719 13.2656 14.8438C9.74478 14.8646 6.22397 14.8646 2.70312 14.8438C1.82292 14.6719 1.29688 14.1458 1.125 13.2656C1.10938 10.5261 1.10417 7.78647 1.10938 5.04688ZM6.85938 8.42188C7.73384 8.93144 8.60884 9.44184 9.48438 9.95312C8.62228 10.4754 7.7525 10.9858 6.875 11.4844C6.85938 10.4636 6.85416 9.44275 6.85938 8.42188Z" fill="white"/>
</g>
<g id="Group_2">
<path id="Vector_2" opacity="0.963" fill-rule="evenodd" clip-rule="evenodd" d="M6.17188 6.8604C6.33863 6.85262 6.49488 6.88909 6.64063 6.96978C8.09898 7.81353 9.55729 8.65728 11.0156 9.50103C11.3201 9.85621 11.2889 10.1791 10.9219 10.4698C9.4897 11.2848 8.0626 12.1077 6.64063 12.9385C6.16132 13.1644 5.85404 13.0238 5.71876 12.5167C5.69791 10.8187 5.69791 9.12081 5.71876 7.4229C5.75116 7.13568 5.90223 6.94818 6.17188 6.8604ZM6.85938 8.4229C6.85416 9.44378 6.85938 10.4646 6.87501 11.4854C7.75251 10.9868 8.62229 10.4764 9.48438 9.95415C8.60885 9.44287 7.73385 8.93246 6.85938 8.4229Z" fill="white"/>
</g>
</g>
<defs>
<clipPath id="clip0_3372_19915">
<rect width="16" height="16" fill="white"/>
</clipPath>
</defs>
</svg>
