<svg width="20" height="21" viewBox="0 0 20 21" fill="none" xmlns="http://www.w3.org/2000/svg">
<g id="Icon feather-clock">
<path id="Path 12040" d="M19 10.5C19 12.28 18.4722 14.0201 17.4832 15.5001C16.4943 16.9802 15.0887 18.1337 13.4442 18.8149C11.7996 19.4961 9.99002 19.6743 8.24419 19.3271C6.49836 18.9798 4.89471 18.1226 3.63604 16.864C2.37737 15.6053 1.5202 14.0016 1.17294 12.2558C0.82567 10.51 1.0039 8.70038 1.68509 7.05585C2.36628 5.41131 3.51983 4.00571 4.99987 3.01677C6.47991 2.02784 8.21997 1.5 10 1.5C12.3869 1.5 14.6761 2.44821 16.364 4.13604C18.0518 5.82387 19 8.11305 19 10.5Z" stroke="black" stroke-width="1.75" stroke-linecap="round" stroke-linejoin="round"/>
<path id="Path 12041" d="M9.92188 5.01562V10.6052L13.6491 12.4688" stroke="black" stroke-width="1.75" stroke-linecap="round" stroke-linejoin="round"/>
</g>
</svg>
