<svg width="20" height="21" viewBox="0 0 20 21" fill="none" xmlns="http://www.w3.org/2000/svg">
<g id="Group 950682696">
<circle id="Ellipse 319" cx="10" cy="10.5" r="10" fill="#FC6666" fill-opacity="0.1"/>
<path id="Vector" d="M8.99933 15.0678L7.14062 13.1328C7.09606 13.0863 7.06069 13.031 7.03656 12.9701C7.01243 12.9092 7 12.8438 7 12.7778C7 12.7118 7.01243 12.6465 7.03656 12.5855C7.06069 12.5246 7.09606 12.4693 7.14062 12.4228C7.22968 12.3297 7.35017 12.2774 7.47576 12.2774C7.60134 12.2774 7.72183 12.3297 7.81089 12.4228L9.51749 14.2028V7.00781C9.51749 6.8752 9.56758 6.74803 9.65673 6.65426C9.74588 6.56049 9.86679 6.50781 9.99287 6.50781C10.1189 6.50781 10.2399 6.56049 10.329 6.65426C10.4182 6.74803 10.4682 6.8752 10.4682 7.00781V14.2328L12.1844 12.4228C12.2285 12.3759 12.2811 12.3388 12.339 12.3134C12.397 12.288 12.4591 12.2749 12.5219 12.2749C12.5846 12.2749 12.6468 12.288 12.7047 12.3134C12.7626 12.3388 12.8152 12.3759 12.8594 12.4228C12.9039 12.4693 12.9393 12.5246 12.9634 12.5855C12.9876 12.6465 13 12.7118 13 12.7778C13 12.8438 12.9876 12.9092 12.9634 12.9701C12.9393 13.031 12.9039 13.0863 12.8594 13.1328L11.0149 15.0678C10.7475 15.3487 10.3851 15.5065 10.0071 15.5065C9.62921 15.5065 9.26673 15.3487 8.99933 15.0678Z" fill="#FC6666"/>
</g>
</svg>
