<svg width="28" height="28" viewBox="0 0 28 28" fill="none" xmlns="http://www.w3.org/2000/svg">
<g id="Group 950683304">
<path id="Vector" d="M21.764 1.08736L7.54005 15.3113C6.99679 15.8517 6.5661 16.4944 6.27292 17.2023C5.97974 17.9102 5.82989 18.6693 5.83205 19.4355V21.0023C5.83205 21.3118 5.95497 21.6085 6.17376 21.8273C6.39256 22.0461 6.6893 22.169 6.99872 22.169H8.56555C9.33177 22.1712 10.0908 22.0213 10.7987 21.7281C11.5066 21.435 12.1494 21.0043 12.6897 20.461L26.9137 6.23702C27.5955 5.55356 27.9784 4.62758 27.9784 3.66219C27.9784 2.69681 27.5955 1.77083 26.9137 1.08736C26.2203 0.424572 25.2981 0.0546875 24.3389 0.0546875C23.3797 0.0546875 22.4574 0.424572 21.764 1.08736ZM25.264 4.58736L11.04 18.8113C10.3822 19.4652 9.49306 19.8332 8.56555 19.8357H8.16539V19.4355C8.16782 18.508 8.53588 17.6189 9.18972 16.961L23.4137 2.73703C23.6629 2.49898 23.9943 2.36614 24.3389 2.36614C24.6835 2.36614 25.0148 2.49898 25.264 2.73703C25.509 2.98263 25.6465 3.31533 25.6465 3.66219C25.6465 4.00905 25.509 4.34176 25.264 4.58736Z" fill="url(#paint0_linear_3372_17560)"/>
<path id="Vector_2" d="M26.8333 10.4755C26.5239 10.4755 26.2271 10.5984 26.0084 10.8172C25.7896 11.036 25.6666 11.3327 25.6666 11.6422V17.5H21C20.0717 17.5 19.1815 17.8687 18.5251 18.5251C17.8687 19.1815 17.5 20.0717 17.5 21V25.6666H5.83333C4.90507 25.6666 4.01483 25.2979 3.35846 24.6415C2.70208 23.9851 2.33333 23.0949 2.33333 22.1666V5.83333C2.33333 4.90507 2.70208 4.01483 3.35846 3.35846C4.01483 2.70208 4.90507 2.33333 5.83333 2.33333H16.3823C16.6917 2.33333 16.9885 2.21042 17.2073 1.99162C17.4261 1.77283 17.549 1.47608 17.549 1.16667C17.549 0.857247 17.4261 0.560501 17.2073 0.341708C16.9885 0.122916 16.6917 0 16.3823 0L5.83333 0C4.2868 0.0018525 2.80415 0.617028 1.71059 1.71059C0.617028 2.80415 0.0018525 4.2868 0 5.83333L0 22.1666C0.0018525 23.7132 0.617028 25.1958 1.71059 26.2894C2.80415 27.3829 4.2868 27.9981 5.83333 28H19.0668C19.8332 28.0022 20.5924 27.8523 21.3005 27.5592C22.0087 27.266 22.6516 26.8353 23.1921 26.292L26.2908 23.191C26.8342 22.6507 27.265 22.008 27.5584 21.3001C27.8518 20.5922 28.0019 19.8331 28 19.0668V11.6422C28 11.3327 27.8771 11.036 27.6583 10.8172C27.4395 10.5984 27.1427 10.4755 26.8333 10.4755ZM21.5425 24.6423C21.0735 25.1102 20.4804 25.434 19.8333 25.5756V21C19.8333 20.6906 19.9562 20.3938 20.175 20.175C20.3938 19.9562 20.6906 19.8333 21 19.8333H25.5791C25.4348 20.4791 25.1113 21.0711 24.6458 21.5413L21.5425 24.6423Z" fill="url(#paint1_linear_3372_17560)"/>
</g>
<defs>
<linearGradient id="paint0_linear_3372_17560" x1="5.83203" y1="-29.468" x2="18.266" y2="29.076" gradientUnits="userSpaceOnUse">
<stop stop-color="#FFDA46"/>
<stop offset="1" stop-color="#FFAE00"/>
</linearGradient>
<linearGradient id="paint1_linear_3372_17560" x1="-3.8906e-07" y1="-37.38" x2="15.764" y2="36.736" gradientUnits="userSpaceOnUse">
<stop stop-color="#FFDA46"/>
<stop offset="1" stop-color="#FFAE00"/>
</linearGradient>
</defs>
</svg>
