<svg width="20" height="21" viewBox="0 0 20 21" fill="none" xmlns="http://www.w3.org/2000/svg">
<g id="Group 26068">
<g id="Group 23869">
<path id="Vector" d="M0.615959 8.43108C1.90765 6.40432 4.84581 3.00391 10.0026 3.00391C15.1593 3.00391 18.0975 6.40432 19.3892 8.43108C19.7885 9.05332 20 9.77042 20 10.502C20 11.2335 19.7885 11.9506 19.3892 12.5729C18.0975 14.5996 15.1593 18.0001 10.0026 18.0001C4.84581 18.0001 1.90765 14.5996 0.615959 12.5729C0.21665 11.9506 0.0051384 11.2335 0.0051384 10.502C0.0051384 9.77042 0.21665 9.05332 0.615959 8.43108ZM2.0359 11.7328C3.14521 13.4707 5.65613 16.3953 10.0026 16.3953C14.349 16.3953 16.8599 13.4707 17.9692 11.7328C18.2065 11.363 18.3321 10.9368 18.3321 10.502C18.3321 10.0672 18.2065 9.64101 17.9692 9.27116C16.8599 7.53324 14.349 4.60863 10.0026 4.60863C5.65613 4.60863 3.14521 7.53003 2.0359 9.27116C1.79866 9.64101 1.67301 10.0672 1.67301 10.502C1.67301 10.9368 1.79866 11.363 2.0359 11.7328Z" fill="black"/>
<path id="Vector_2" d="M10 6.48438C10.8236 6.48438 11.6287 6.71966 12.3134 7.16049C12.9982 7.60131 13.5319 8.22787 13.8471 8.96093C14.1623 9.69399 14.2447 10.5006 14.084 11.2789C13.9234 12.0571 13.5268 12.7719 12.9444 13.333C12.3621 13.894 11.6201 14.2761 10.8124 14.4309C10.0046 14.5857 9.16737 14.5063 8.40649 14.2026C7.64561 13.899 6.99528 13.3848 6.53772 12.725C6.08017 12.0653 5.83595 11.2896 5.83595 10.4962C5.83728 9.43258 6.27641 8.4129 7.05704 7.66081C7.83766 6.90873 8.89604 6.48565 10 6.48438ZM10 12.9033C10.4942 12.9033 10.9772 12.7621 11.3881 12.4976C11.7989 12.2331 12.1192 11.8572 12.3083 11.4173C12.4974 10.9775 12.5468 10.4935 12.4504 10.0266C12.354 9.55966 12.1161 9.13076 11.7667 8.79412C11.4173 8.45748 10.9721 8.22823 10.4874 8.13535C10.0028 8.04247 9.50043 8.09014 9.0439 8.27233C8.58737 8.45451 8.19717 8.76304 7.92264 9.15888C7.64811 9.55472 7.50158 10.0201 7.50158 10.4962C7.50158 11.1346 7.7648 11.7468 8.23335 12.1983C8.7019 12.6497 9.33738 12.9033 10 12.9033Z" fill="black"/>
</g>
</g>
</svg>
