<svg width="60" height="40" viewBox="0 0 60 40" fill="none" xmlns="http://www.w3.org/2000/svg">
<g id="Group 950683187">
<path id="Vector" d="M59.287 17.1048V17.0448C59.1599 13.4666 57.6463 10.078 55.0661 7.59553C52.486 5.11304 49.0416 3.7312 45.4611 3.74215C43.6975 3.74215 40.4563 4.67978 40.4563 4.67978L40.0712 4.5263C40.0712 4.5263 34.0878 -0.000216396 29.6512 0C25.2151 0.000216372 19.2326 4.5263 19.2326 4.5263L18.8628 4.68536C18.8628 4.68536 15.6132 3.74215 13.8398 3.74215C10.2594 3.7312 6.81496 5.11304 4.23483 7.59553C1.6547 10.078 0.141074 13.4666 0.0139537 17.0448V17.0699L0 39.9958H2.00502C3.74841 39.9932 5.41968 39.2996 6.65258 38.067C7.88548 36.8343 8.57944 35.1632 8.58239 33.4198V30.3851C11.665 31.6485 15.0998 31.7579 18.2565 30.6932C21.4133 29.6286 24.0803 27.4613 25.7681 24.5891V27.5457C25.7692 28.5724 26.1775 29.5567 26.9033 30.2828C27.6291 31.0089 28.6133 31.4175 29.64 31.419H29.6512C30.6779 31.4175 31.6621 31.0089 32.3879 30.2828C33.1137 29.5567 33.522 28.5724 33.5231 27.5457V24.5891C35.2113 27.4639 37.8802 29.633 41.0394 30.6978C44.1986 31.7626 47.636 31.6515 50.72 30.3851V33.4198C50.7218 35.1642 51.4155 36.8366 52.6488 38.0702C53.8821 39.3038 55.5544 39.9978 57.2987 40H59.301L59.287 17.1048Z" fill="white"/>
<g id="Group 950683181">
<path id="Vector_2" d="M29.7149 9.84375H29.6995C28.4373 9.84375 27.4141 10.867 27.4141 12.1292V27.4773C27.4141 28.7396 28.4373 29.7628 29.6995 29.7628H29.7149C30.9771 29.7628 32.0004 28.7396 32.0004 27.4773V12.1292C32.0004 10.867 30.9771 9.84375 29.7149 9.84375Z" fill="black"/>
<path id="Vector_3" d="M1.66378 17.0367C1.77131 14.3277 2.77482 11.731 4.51697 9.65377C6.25911 7.57651 8.64137 6.13614 11.2902 5.55851C13.9391 4.98088 16.7047 5.29865 19.1535 6.462C21.6024 7.62534 23.5959 9.56848 24.8215 11.9867C26.0471 14.405 26.4355 17.1616 25.9258 19.8244C25.4162 22.4871 24.0372 24.9055 22.0052 26.7002C19.9732 28.4949 17.403 29.5645 14.6977 29.7413C11.9924 29.9181 9.30486 29.1921 7.05656 27.6771V33.3531C7.05692 34.0086 6.92814 34.6577 6.67755 35.2634C6.42697 35.8691 6.0595 36.4195 5.59614 36.8831C5.13278 37.3467 4.58262 37.7145 3.97708 37.9654C3.37154 38.2163 2.72249 38.3455 2.06702 38.3455H1.64844L1.66378 17.0367ZM13.9046 25.181C15.4224 25.1826 16.9066 24.7342 18.1695 23.8923C19.4324 23.0504 20.4173 21.853 20.9997 20.4514C21.582 19.0498 21.7357 17.5069 21.4412 16.018C21.1467 14.529 20.4173 13.1609 19.3453 12.0864C18.2732 11.012 16.9066 10.2797 15.4183 9.98194C13.93 9.68421 12.3869 9.83449 10.984 10.4138C9.5811 10.9931 8.3815 11.9754 7.53688 13.2365C6.69227 14.4975 6.24058 15.9807 6.23892 17.4985V17.5069C6.23892 19.54 7.04571 21.49 8.48216 22.9288C9.91861 24.3677 11.8673 25.1776 13.9004 25.181H13.9046Z" fill="#070707"/>
<path id="Vector_4" d="M57.7538 17.0367C57.6463 14.3277 56.6428 11.731 54.9007 9.65377C53.1585 7.57651 50.7763 6.13614 48.1274 5.55851C45.4785 4.98088 42.7129 5.29865 40.2641 6.462C37.8153 7.62534 35.8218 9.56848 34.5961 11.9867C33.3705 14.405 32.9821 17.1616 33.4918 19.8244C34.0015 22.4871 35.3804 24.9055 37.4124 26.7002C39.4444 28.4949 42.0146 29.5645 44.7199 29.7413C47.4252 29.9181 50.1128 29.1921 52.3611 27.6771V33.3531C52.3607 34.0086 52.4895 34.6577 52.7401 35.2634C52.9907 35.8691 53.3581 36.4195 53.8215 36.8831C54.2848 37.3467 54.835 37.7145 55.4405 37.9654C56.0461 38.2163 56.6951 38.3455 57.3506 38.3455H57.7692L57.7538 17.0367ZM45.5172 25.181C43.9994 25.1826 42.5152 24.7342 41.2523 23.8923C39.9894 23.0504 39.0045 21.853 38.4221 20.4514C37.8398 19.0498 37.6861 17.5069 37.9806 16.018C38.2751 14.529 39.0045 13.1609 40.0765 12.0864C41.1486 11.012 42.5152 10.2797 44.0035 9.98194C45.4918 9.68421 47.0349 9.83449 48.4378 10.4138C49.8407 10.9931 51.0403 11.9754 51.8849 13.2365C52.7295 14.4975 53.1812 15.9807 53.1829 17.4985V17.5069C53.1829 19.5407 52.3755 21.4914 50.9382 22.9303C49.5008 24.3692 47.551 25.1787 45.5172 25.181Z" fill="#070707"/>
<path id="Vector_5" d="M18.8789 17.4472C18.8789 18.4286 18.5879 19.3879 18.0428 20.2039C17.4977 21.02 16.7229 21.6561 15.8164 22.0318C14.9098 22.4076 13.9122 22.5062 12.9497 22.3151C11.9871 22.124 11.1028 21.6519 10.4085 20.9583C9.71424 20.2647 9.24118 19.3809 9.04911 18.4186C8.85704 17.4562 8.95459 16.4585 9.32944 15.5516C9.70429 14.6446 10.3396 13.8692 11.1551 13.3232C11.9705 12.7773 12.9296 12.4854 13.9109 12.4844C14.1077 12.4844 14.3043 12.498 14.4993 12.5251C14.1151 13.0505 13.9089 13.685 13.9109 14.3359C13.91 15.1599 14.2364 15.9505 14.8182 16.5339C15.4001 17.1174 16.1898 17.4459 17.0138 17.4472C17.6647 17.4492 18.2992 17.2431 18.8246 16.8589C18.8562 17.0535 18.8744 17.2501 18.8789 17.4472Z" fill="black"/>
<path id="Vector_6" d="M29.7061 1.65625C26.4417 1.65647 22.0391 4.9868 22.0391 4.9868L25.2901 8.29641C25.2901 8.29641 27.8215 6.34999 29.7061 6.34999C31.5908 6.34999 34.1222 8.29641 34.1222 8.29641L37.3746 4.9868C37.3746 4.9868 32.9711 1.65603 29.7061 1.65625Z" fill="#FFAE00"/>
<path id="Vector_7" d="M50.4609 17.4489C50.4606 18.4304 50.1693 19.3898 49.6237 20.2057C49.0782 21.0216 48.303 21.6574 47.3961 22.0328C46.4892 22.4082 45.4914 22.5062 44.5288 22.3145C43.5662 22.1229 42.6821 21.6501 41.9882 20.9559C41.2943 20.2618 40.8218 19.3775 40.6304 18.4148C40.4391 17.4522 40.5375 16.4544 40.9131 15.5476C41.2888 14.6409 41.9249 13.8659 42.741 13.3207C43.5571 12.7754 44.5166 12.4844 45.4981 12.4844C45.6949 12.4849 45.8915 12.4991 46.0864 12.5268C45.7022 13.0522 45.4961 13.6867 45.4981 14.3376C45.4972 15.1607 45.8228 15.9506 46.4036 16.5339C46.9843 17.1171 47.7727 17.4462 48.5958 17.4489C49.2467 17.4509 49.8812 17.2448 50.4067 16.8606C50.4383 17.0552 50.4564 17.2518 50.4609 17.4489Z" fill="black"/>
</g>
</g>
</svg>
