<svg width="87" height="87" viewBox="0 0 87 87" fill="none" xmlns="http://www.w3.org/2000/svg">
<g id="rocket-lunch 2" clip-path="url(#clip0_3372_17696)">
<path id="Vector" d="M18.5027 72.501C18.504 71.9755 18.4011 71.455 18.1999 70.9695C17.9987 70.4841 17.7033 70.0434 17.3307 69.6729C16.5806 68.923 15.5634 68.5018 14.5027 68.5018C13.4421 68.5018 12.4248 68.923 11.6747 69.6729L11.6374 69.7102L11.6118 69.7564C10.2102 72.2866 9.22582 75.0262 8.69655 77.8699L8.59647 78.4076L9.1341 78.3071C11.9787 77.7756 14.7193 76.7901 17.2509 75.3883L17.2968 75.3629L17.3339 75.3258C17.7057 74.9553 18.0004 74.5148 18.201 74.0298C18.4015 73.5451 18.504 73.0255 18.5027 72.501ZM18.5027 72.501C18.5027 72.5006 18.5027 72.5003 18.5027 72.5L18.1277 72.501L18.5027 72.502C18.5027 72.5017 18.5027 72.5013 18.5027 72.501ZM21.932 65.0798C23.8858 67.0556 24.9817 69.7222 24.9817 72.501C24.9817 75.2812 23.8847 77.9492 21.929 79.9253C21.1531 80.6999 19.9687 81.4198 18.5365 82.0752C17.1091 82.7286 15.4609 83.3066 13.7799 83.8073C10.4182 84.8086 6.95335 85.4926 4.91858 85.8523L21.932 65.0798ZM21.932 65.0798C19.9306 63.1709 17.2711 62.1056 14.5052 62.105C11.739 62.1043 9.07878 63.1686 7.07636 65.0768C6.3026 65.8526 5.58361 67.0362 4.92901 68.4671C4.27597 69.8946 3.69829 71.5427 3.19778 73.2238C2.1969 76.5854 1.51289 80.0502 1.15141 82.0853C1.15138 82.0855 1.15135 82.0856 1.15131 82.0858L0.348604 86.6551L4.9182 85.8523L21.932 65.0798ZM65.0012 55.4064L64.8623 55.5141L64.8562 55.6898C64.659 61.3942 63.2351 66.9891 60.6816 72.0939C58.3377 76.5247 54.819 80.2247 50.5114 82.7882C46.2025 85.3523 41.2706 86.6801 36.2568 86.626H36.2527H33.0027L33.0027 67.0635L33.0027 67.0617C32.986 63.6029 31.6046 60.2905 29.1589 57.8448C26.7132 55.3991 23.4008 54.0177 19.942 54.001H19.9402H0.377719L0.377741 50.751L0.377697 50.7469C0.323564 45.7331 1.6514 40.8012 4.21555 36.4923C6.77898 32.1846 10.479 28.666 14.9099 26.3221C20.0146 23.7686 25.6095 22.3447 31.3139 22.1475L31.4898 22.1414L31.5975 22.0023C36.8433 15.2265 43.58 9.75074 51.2848 6.00016C58.9895 2.24957 67.455 0.325046 76.024 0.376014L76.0286 0.375985C77.4147 0.367226 78.7889 0.632152 80.0724 1.15557C81.3559 1.67899 82.5235 2.45062 83.5082 3.4262C84.4928 4.40177 85.2753 5.56212 85.8106 6.84071C86.3459 8.1193 86.6236 9.49098 86.6277 10.8771L86.6277 10.8787C86.6887 19.4638 84.7692 27.9473 81.0184 35.67C77.2676 43.3927 71.7866 50.1464 65.0012 55.4064ZM7.18656 47.0691L7.12027 47.501H7.55722H15.757H15.9997L16.0991 47.2796C18.783 41.3018 21.9359 35.5459 25.5282 30.0657L26.0415 29.2827L25.1296 29.4949C22.5982 30.0838 20.1452 30.97 17.8219 32.1349L17.8219 32.1348L17.8149 32.1385C15.0006 33.6246 12.5735 35.7491 10.7279 38.3418C8.88223 40.9345 7.66942 43.9234 7.18656 47.0691ZM57.5088 61.8741L57.721 60.9622L56.938 61.4755C51.4578 65.0678 45.7019 68.2207 39.7241 70.9046L39.5027 71.004V71.2467V79.4465V79.8834L39.9346 79.8171C43.0803 79.3343 46.0692 78.1215 48.6619 76.2759C51.2546 74.4302 53.3791 72.0031 54.8652 69.1888L54.8653 69.1889L54.8688 69.1818C56.0337 66.8585 56.9199 64.4055 57.5088 61.8741ZM80.1276 10.7851L80.1279 10.7746L80.1276 10.764C80.0984 9.72266 79.6641 8.73378 78.9171 8.00769C78.1701 7.2816 77.1693 6.87558 76.1276 6.87599V6.87584L76.117 6.87614C66.7167 7.14395 58.8149 9.07995 51.724 13.1032C44.6359 17.1249 38.383 23.2181 32.2577 31.7622L32.2577 31.7622L32.2545 31.7668C28.8357 36.6891 25.8294 41.8854 23.2661 47.3027L23.058 47.7427L23.5364 47.8318C27.4202 48.5551 30.994 50.4373 33.7874 53.2308C36.5809 56.0243 38.4631 59.598 39.1864 63.4818L39.2755 63.9602L39.7155 63.7521C45.1328 61.1888 50.3291 58.1825 55.2514 54.7637L55.2514 54.7638L55.2563 54.7603C63.7931 48.6278 69.8827 42.3712 73.9025 35.2684C77.9239 28.163 79.8598 20.236 80.1276 10.7851ZM64.8777 30.8135C64.8777 33.1176 63.9624 35.3273 62.3332 36.9565C60.704 38.5857 58.4943 39.501 56.1902 39.501C53.8862 39.501 51.6764 38.5857 50.0472 36.9565C48.418 35.3273 47.5027 33.1176 47.5027 30.8135C47.5027 28.5094 48.418 26.2997 50.0472 24.6705C51.6764 23.0413 53.8862 22.126 56.1902 22.126C58.4943 22.126 60.704 23.0413 62.3332 24.6705C63.9624 26.2997 64.8777 28.5094 64.8777 30.8135Z" fill="url(#paint0_linear_3372_17696)" stroke="white" stroke-width="0.75"/>
</g>
<defs>
<linearGradient id="paint0_linear_3372_17696" x1="-0.113282" y1="-116.301" x2="48.9334" y2="114.298" gradientUnits="userSpaceOnUse">
<stop stop-color="#FFDA46"/>
<stop offset="1" stop-color="#FFAE00"/>
</linearGradient>
<clipPath id="clip0_3372_17696">
<rect width="87" height="87" fill="white"/>
</clipPath>
</defs>
</svg>
