<svg width="20" height="20" viewBox="0 0 19 19" fill="none" xmlns="http://www.w3.org/2000/svg">
<path id="Vector" d="M15.7914 18.5474H15.7914C16.0927 18.548 16.3912 18.4902 16.6692 18.3774C17.0814 18.2157 17.4341 17.9372 17.6812 17.5779C17.9283 17.2186 18.0582 16.7952 18.0538 16.3629C18.0538 16.3628 18.0538 16.3628 18.0538 16.3627L18.0538 4.24946C18.0538 3.75029 17.9525 3.25606 17.7557 2.79497C17.5589 2.3339 17.2705 1.91505 16.907 1.56231C16.5435 1.20957 16.1121 0.929841 15.6374 0.739018C15.1627 0.548197 14.6539 0.45 14.1402 0.45H4.86759C3.83012 0.45 2.83485 0.849946 2.1008 1.56231C1.3667 2.27472 0.954001 3.24129 0.954001 4.24946V16.363C0.94987 16.7956 1.08024 17.2192 1.32791 17.5786C1.57551 17.9378 1.92878 18.2161 2.34145 18.3773C2.75014 18.5468 3.20187 18.5929 3.63785 18.5096C4.07393 18.4263 4.47426 18.2175 4.78659 17.91C4.78665 17.91 4.78671 17.9099 4.78676 17.9099L9.50391 13.3559L14.221 17.9069C14.2211 17.9069 14.2211 17.907 14.2212 17.907C14.4265 18.1092 14.6709 18.2698 14.9404 18.3797C15.2099 18.4896 15.4991 18.5466 15.7914 18.5474ZM2.59944 16.3633V16.3632V4.24946C2.59944 3.66656 2.83803 3.10722 3.26323 2.69458C3.68848 2.28189 4.26556 2.04978 4.86759 2.04978H14.1418C14.7438 2.04978 15.3209 2.28189 15.7461 2.69458C16.1713 3.10722 16.4099 3.66656 16.4099 4.24946V16.3617V16.3618C16.4102 16.4765 16.3754 16.5889 16.3098 16.6847C16.2442 16.7805 16.1506 16.8556 16.0407 16.9001C15.9308 16.9446 15.8097 16.9566 15.6928 16.9343C15.5758 16.9121 15.4685 16.8568 15.3842 16.7756L10.0873 11.6622L10.0872 11.6621C9.93299 11.5133 9.72464 11.4301 9.50776 11.4301C9.29089 11.4301 9.08253 11.5133 8.92829 11.6621L3.62514 16.7771C3.54087 16.8583 3.43352 16.9136 3.31657 16.9359C3.19961 16.9581 3.07851 16.9461 2.96863 16.9016C2.85876 16.8571 2.76519 16.782 2.69957 16.6862C2.63396 16.5904 2.59918 16.478 2.59944 16.3633Z" fill="#ffffff" stroke="#ffffff" stroke-width="0.1"/>
</svg>
