<svg width="22" height="21" viewBox="0 0 22 21" fill="none" xmlns="http://www.w3.org/2000/svg">
<path id="Path 16536" fill-rule="evenodd" clip-rule="evenodd" d="M20.1836 0.5H20.6136C20.7801 0.588274 20.9163 0.724457 21.0045 0.890945V1.31826C18.4589 7.64126 15.9132 13.97 13.3675 20.3045C13.2936 20.3825 13.208 20.4484 13.1138 20.5H12.6838C12.5697 20.445 12.4696 20.3648 12.391 20.2654C11.1691 17.7804 9.95688 15.2932 8.75434 12.8038C6.25169 11.5716 3.7451 10.3418 1.23457 9.11442C1.13479 9.03592 1.05451 8.93541 1 8.82076V8.39163C1.04081 8.30253 1.10035 8.22327 1.17456 8.15925C1.24877 8.09524 1.33591 8.04798 1.43004 8.02068C7.6894 5.52409 13.9406 3.0172 20.1836 0.5ZM17.7988 2.80476C14.8955 5.73411 11.9786 8.65104 9.04801 11.5556C7.07328 10.5882 5.09371 9.63053 3.10928 8.68256C7.99761 6.70481 12.8941 4.74554 17.7988 2.80476ZM18.6971 3.70302C16.7575 8.60771 14.7976 13.5039 12.8174 18.3916C11.8707 16.4072 10.9136 14.4279 9.94627 12.4538C12.8508 9.52324 15.7677 6.60631 18.6971 3.70302Z" fill="black" stroke="black" stroke-width="0.25"/>
</svg>
