<svg width="20" height="21" viewBox="0 0 20 21" fill="none" xmlns="http://www.w3.org/2000/svg">
<g id="Group 950682696">
<circle id="Ellipse 319" cx="10" cy="10.5" r="10" fill="#00BC06" fill-opacity="0.1"/>
<path id="Vector" d="M8.99933 6.94L7.14062 8.875C7.09606 8.92148 7.06069 8.97678 7.03656 9.03771C7.01243 9.09864 7 9.16399 7 9.23C7 9.29601 7.01243 9.36136 7.03656 9.42229C7.06069 9.48322 7.09606 9.53852 7.14062 9.585C7.22968 9.67813 7.35017 9.7304 7.47576 9.7304C7.60134 9.7304 7.72183 9.67813 7.81089 9.585L9.51749 7.805V15C9.51749 15.1326 9.56758 15.2598 9.65673 15.3536C9.74588 15.4473 9.86679 15.5 9.99287 15.5C10.1189 15.5 10.2399 15.4473 10.329 15.3536C10.4182 15.2598 10.4682 15.1326 10.4682 15V7.775L12.1844 9.585C12.2285 9.63186 12.2811 9.66906 12.339 9.69445C12.397 9.71983 12.4591 9.7329 12.5219 9.7329C12.5846 9.7329 12.6468 9.71983 12.7047 9.69445C12.7626 9.66906 12.8152 9.63186 12.8594 9.585C12.9039 9.53852 12.9393 9.48322 12.9634 9.42229C12.9876 9.36136 13 9.29601 13 9.23C13 9.16399 12.9876 9.09864 12.9634 9.03771C12.9393 8.97678 12.9039 8.92148 12.8594 8.875L11.0149 6.94C10.7475 6.6591 10.3851 6.50132 10.0071 6.50132C9.62921 6.50132 9.26673 6.6591 8.99933 6.94Z" fill="#00BC06"/>
</g>
</svg>
