<svg width="20" height="21" viewBox="0 0 20 21" fill="none" xmlns="http://www.w3.org/2000/svg">
<g id="usd-circle 1" clip-path="url(#clip0_3372_17627)">
<path id="Vector" d="M10 0.5C4.48583 0.5 0 4.98583 0 10.5C0 16.0142 4.48583 20.5 10 20.5C15.5142 20.5 20 16.0142 20 10.5C20 4.98583 15.5142 0.5 10 0.5ZM10 18.8333C5.405 18.8333 1.66667 15.095 1.66667 10.5C1.66667 5.905 5.405 2.16667 10 2.16667C14.595 2.16667 18.3333 5.905 18.3333 10.5C18.3333 15.095 14.595 18.8333 10 18.8333ZM13.3333 12.1667C13.3333 13.545 12.2117 14.6667 10.8333 14.6667V15.5C10.8333 15.9608 10.4608 16.3333 10 16.3333C9.53917 16.3333 9.16667 15.9608 9.16667 15.5V14.6667H8.94333C8.05417 14.6667 7.22417 14.1883 6.77833 13.4175C6.5475 13.0183 6.68417 12.5092 7.08167 12.2792C7.48083 12.0467 7.99083 12.185 8.22 12.5825C8.36917 12.8408 8.64583 13 8.9425 13H10.8325C11.2925 13 11.6658 12.6267 11.6658 12.1667C11.6658 11.8517 11.44 11.585 11.1292 11.5333L8.595 11.1108C7.47667 10.925 6.66583 9.96667 6.66583 8.83333C6.66583 7.455 7.7875 6.33333 9.16583 6.33333V5.5C9.16583 5.04 9.53833 4.66667 9.99917 4.66667C10.46 4.66667 10.8325 5.04 10.8325 5.5V6.33333H11.0558C11.945 6.33333 12.775 6.8125 13.2208 7.58333C13.4517 7.98167 13.315 8.49083 12.9175 8.72167C12.5175 8.9525 12.0083 8.81583 11.7792 8.4175C11.63 8.16 11.3533 8.00083 11.0567 8.00083H9.16667C8.70667 8.00083 8.33333 8.375 8.33333 8.83417C8.33333 9.14917 8.55917 9.41583 8.87 9.4675L11.4042 9.89C12.5225 10.0758 13.3333 11.0342 13.3333 12.1675V12.1667Z" fill="black"/>
</g>
<defs>
<clipPath id="clip0_3372_17627">
<rect width="20" height="20" fill="white" transform="translate(0 0.5)"/>
</clipPath>
</defs>
</svg>
