<svg width="28" height="30" viewBox="0 0 28 30" fill="none" xmlns="http://www.w3.org/2000/svg">
<g id="view 1">
<g id="Group 950683309">
<g id="Group 950683308">
<g id="Group">
<path id="Vector" opacity="0.992" d="M8.26609 0.903639L8.2525 0.903666L8.23941 0.90732C7.06141 1.23614 6.30766 2.00028 5.98725 3.18921L5.98413 3.20077L5.98383 3.21273C5.94497 4.76639 5.94497 6.32003 5.98383 7.87372L5.98429 7.892L5.99119 7.90894C6.10803 8.19578 6.31214 8.39989 6.59898 8.51673L6.59868 8.51745L6.61075 8.52069C6.91298 8.60189 7.18529 8.59684 7.42034 8.49298C7.65562 8.38901 7.83993 8.19207 7.97751 7.91579L7.98766 7.89541L7.98799 7.87264L8.04615 3.80115C8.05848 3.61195 8.11101 3.45865 8.19948 3.33648C8.28552 3.21766 8.40985 3.12236 8.57781 3.05291C13.0091 2.9572 17.4425 2.93791 21.878 2.99505C22.1259 3.0275 22.31 3.11233 22.44 3.24229C22.5699 3.37219 22.6547 3.55624 22.6872 3.80392C22.726 11.249 22.726 18.6941 22.6872 26.1393C22.6547 26.3869 22.5699 26.571 22.44 26.7009C22.31 26.8309 22.1258 26.9157 21.878 26.9481C17.4425 27.0053 13.0091 26.986 8.57781 26.8903C8.40985 26.8208 8.28552 26.7255 8.19948 26.6067C8.11101 26.4845 8.05848 26.3312 8.04615 26.142L7.98799 22.0705L7.98772 22.0517L7.98061 22.0342C7.86377 21.7474 7.65966 21.5433 7.37282 21.4265L7.37312 21.4257L7.36104 21.4225C7.05881 21.3413 6.78651 21.3463 6.55146 21.4502C6.31618 21.5542 6.13187 21.7511 5.99429 22.0274L5.98439 22.0473L5.98383 22.0695C5.94497 23.6231 5.94497 25.1768 5.98383 26.7305L5.98412 26.742L5.98703 26.7532C6.14115 27.3447 6.40604 27.8318 6.78425 28.21C7.16247 28.5882 7.64951 28.8531 8.24108 29.0072L8.25308 29.0103L8.26547 29.0104C12.9996 29.0493 17.7338 29.0493 22.4679 29.0104L22.4803 29.0103L22.4923 29.0072C23.0838 28.8531 23.5709 28.5882 23.9491 28.21C24.3273 27.8318 24.5922 27.3447 24.7463 26.7532L24.7495 26.741L24.7495 26.7284C24.7884 18.8905 24.7884 11.0527 24.7495 3.21474L24.7495 3.20218L24.7463 3.19002C24.5922 2.59844 24.3273 2.11139 23.9491 1.73318C23.5709 1.35496 23.0838 1.09008 22.4923 0.935968L22.4802 0.932817L22.4677 0.93274C17.7338 0.903639 13 0.893936 8.26609 0.903639Z" fill="url(#paint0_linear_3372_17549)" stroke="url(#paint1_linear_3372_17549)" stroke-width="0.2"/>
</g>
<g id="Group_2">
<path id="Vector_2" opacity="0.981" d="M13.1607 3.70051L13.1398 3.70065L13.1207 3.70913C12.9063 3.80442 12.7409 3.93832 12.6314 4.1135C12.5225 4.28773 12.4737 4.49526 12.4793 4.73088C12.4699 4.96442 12.5169 5.16949 12.6268 5.33997C12.7374 5.51129 12.9059 5.63896 13.1241 5.7266L13.1407 5.7333L13.1587 5.73377C14.6348 5.77262 16.111 5.77262 17.5872 5.73377L17.6054 5.73329L17.6223 5.72641C17.9091 5.60956 18.1132 5.40547 18.23 5.11863L18.2308 5.11892L18.234 5.10685C18.3152 4.80461 18.3102 4.53231 18.2063 4.29727C18.1023 4.06199 17.9054 3.87768 17.6291 3.7401L17.609 3.73007L17.5865 3.72963C16.1114 3.70051 14.6361 3.69081 13.1607 3.70051Z" fill="url(#paint2_linear_3372_17549)" stroke="url(#paint3_linear_3372_17549)" stroke-width="0.2"/>
</g>
<g id="Group_3">
<path id="Vector_3" opacity="0.964" d="M8.78484 9.28539L8.78482 9.28505L8.77668 9.28633C6.61798 9.62563 4.80283 10.6068 3.33461 12.228L3.33448 12.2279L3.33081 12.2324C2.60283 13.1375 2.23203 14.0513 2.23203 14.9723C2.23203 15.8933 2.60283 16.8071 3.33081 17.7122L3.33072 17.7122L3.33382 17.7157C4.69476 19.2547 6.39306 20.2069 8.42539 20.5706L8.42537 20.5707L8.43059 20.5714C11.651 20.9745 14.3131 19.9432 16.4053 17.4814L16.4056 17.4817L16.4104 17.4748C17.0454 16.5867 17.3537 15.7013 17.3237 14.8205C17.2937 13.9398 16.9258 13.0764 16.2318 12.2316L16.2319 12.2315L16.2282 12.2275C14.2306 10.0482 11.7466 9.06658 8.78484 9.28539ZM14.6252 13.6424L14.6257 13.6429C14.9848 14.0362 15.1713 14.4318 15.1985 14.8303C15.2256 15.2276 15.0953 15.6418 14.7946 16.0754C13.8796 17.1592 12.8532 17.8812 11.7161 18.2475C10.5785 18.614 9.32297 18.6268 7.94631 18.2807C6.39826 17.7981 5.2282 16.8573 4.43178 15.4554C4.32625 15.1328 4.32624 14.8119 4.43174 14.4894C5.26528 13.0308 6.4929 12.0708 8.1194 11.6061C8.65636 11.4752 9.19168 11.3891 9.72529 11.3477C11.6853 11.426 13.3167 12.1901 14.6252 13.6424Z" fill="url(#paint4_linear_3372_17549)" stroke="url(#paint5_linear_3372_17549)" stroke-width="0.2"/>
</g>
</g>
<g id="Group_4">
<path id="Vector_4" opacity="0.964" d="M9.45203 12.2474L9.44174 12.2484L9.43187 12.2515C8.64232 12.4998 8.06215 12.8974 7.70442 13.4507C7.34678 14.0038 7.21968 14.7 7.31171 15.5298L7.31273 15.539L7.31543 15.5479C7.55683 16.3407 7.94855 16.9229 8.49754 17.2809C9.04646 17.6389 9.73952 17.7643 10.5671 17.6689L10.5761 17.6678L10.5848 17.6652C11.3775 17.4238 11.9597 17.0321 12.3178 16.4831C12.6758 15.9342 12.8011 15.2411 12.7058 14.4136L12.7047 14.4044L12.702 14.3957C12.46 13.607 12.0681 13.025 11.5197 12.6626C10.9713 12.3002 10.279 12.1655 9.45203 12.2474ZM9.30038 15.0891C9.27312 14.9216 9.30612 14.7379 9.40937 14.5346C9.50983 14.4121 9.6263 14.3181 9.759 14.2513C10.2088 14.2485 10.4742 14.3536 10.6019 14.5286C10.7294 14.7035 10.7474 14.9865 10.605 15.4105C10.4501 15.5668 10.2904 15.6535 10.1259 15.6803C9.95956 15.7073 9.77708 15.6749 9.57541 15.5732C9.41573 15.4168 9.32744 15.2553 9.30038 15.0891Z" fill="url(#paint6_linear_3372_17549)" stroke="url(#paint7_linear_3372_17549)" stroke-width="0.2"/>
</g>
</g>
</g>
<defs>
<linearGradient id="paint0_linear_3372_17549" x1="6.05469" y1="-36.2993" x2="28.441" y2="33.8593" gradientUnits="userSpaceOnUse">
<stop stop-color="#FFDA46"/>
<stop offset="1" stop-color="#FFAE00"/>
</linearGradient>
<linearGradient id="paint1_linear_3372_17549" x1="6.05469" y1="-36.2993" x2="28.441" y2="33.8593" gradientUnits="userSpaceOnUse">
<stop stop-color="#FFDA46"/>
<stop offset="1" stop-color="#FFAE00"/>
</linearGradient>
<linearGradient id="paint2_linear_3372_17549" x1="12.5781" y1="1.30572" x2="12.9414" y2="6.44286" gradientUnits="userSpaceOnUse">
<stop stop-color="#FFDA46"/>
<stop offset="1" stop-color="#FFAE00"/>
</linearGradient>
<linearGradient id="paint3_linear_3372_17549" x1="12.5781" y1="1.30572" x2="12.9414" y2="6.44286" gradientUnits="userSpaceOnUse">
<stop stop-color="#FFDA46"/>
<stop offset="1" stop-color="#FFAE00"/>
</linearGradient>
<linearGradient id="paint4_linear_3372_17549" x1="2.33203" y1="-5.59777" x2="7.16548" y2="24.6192" gradientUnits="userSpaceOnUse">
<stop stop-color="#FFDA46"/>
<stop offset="1" stop-color="#FFAE00"/>
</linearGradient>
<linearGradient id="paint5_linear_3372_17549" x1="2.33203" y1="-5.59777" x2="7.16548" y2="24.6192" gradientUnits="userSpaceOnUse">
<stop stop-color="#FFDA46"/>
<stop offset="1" stop-color="#FFAE00"/>
</linearGradient>
<linearGradient id="paint6_linear_3372_17549" x1="7.38281" y1="5.28147" x2="10.3641" y2="19.2406" gradientUnits="userSpaceOnUse">
<stop stop-color="#FFDA46"/>
<stop offset="1" stop-color="#FFAE00"/>
</linearGradient>
<linearGradient id="paint7_linear_3372_17549" x1="7.38281" y1="5.28147" x2="10.3641" y2="19.2406" gradientUnits="userSpaceOnUse">
<stop stop-color="#FFDA46"/>
<stop offset="1" stop-color="#FFAE00"/>
</linearGradient>
</defs>
</svg>
