<svg xmlns="http://www.w3.org/2000/svg" width="20" height="20" viewBox="0 0 20 20" fill="none">
  <g clip-path="url(#clip0_1039_25391)">
    <path opacity="0.969" fill-rule="evenodd" clip-rule="evenodd" d="M4.43359 -0.0195312C5.12371 -0.0195312 5.81379 -0.0195312 6.50391 -0.0195312C6.77316 0.0738387 6.96195 0.25613 7.07031 0.527344C7.08984 1.06104 7.09637 1.59489 7.08984 2.12891C9.01692 2.12891 10.944 2.12891 12.8711 2.12891C12.8646 1.59489 12.8711 1.06104 12.8906 0.527344C12.999 0.25613 13.1878 0.0738387 13.457 -0.0195312C14.1472 -0.0195312 14.8372 -0.0195312 15.5273 -0.0195312C15.8397 0.0514559 16.0676 0.233748 16.2109 0.527344C16.2674 1.05834 16.287 1.59219 16.2695 2.12891C16.8816 2.1224 17.4936 2.12891 18.1055 2.14844C18.9292 2.30812 19.4305 2.7964 19.6094 3.61328C19.6354 8.5091 19.6354 13.405 19.6094 18.3008C19.4577 19.1616 18.9695 19.7215 18.1445 19.9805C12.7018 19.9805 7.2591 19.9805 1.81641 19.9805C0.991489 19.7215 0.503207 19.1616 0.351563 18.3008C0.325521 13.405 0.325521 8.5091 0.351563 3.61328C0.530449 2.7964 1.03175 2.30812 1.85547 2.14844C2.46731 2.12891 3.07929 2.1224 3.69141 2.12891C3.67399 1.59219 3.69352 1.05834 3.75 0.527344C3.89336 0.233748 4.12121 0.0514559 4.43359 -0.0195312ZM4.78516 0.957031C5.22785 0.957031 5.67059 0.957031 6.11328 0.957031C6.11328 1.82943 6.11328 2.70182 6.11328 3.57422C5.67059 3.57422 5.22785 3.57422 4.78516 3.57422C4.78516 2.70182 4.78516 1.82943 4.78516 0.957031ZM13.8086 0.957031C14.2904 0.957031 14.7722 0.957031 15.2539 0.957031C15.2539 1.82943 15.2539 2.70182 15.2539 3.57422C14.7722 3.57422 14.2904 3.57422 13.8086 3.57422C13.8086 2.70182 13.8086 1.82943 13.8086 0.957031ZM1.89453 3.14453C2.49349 3.14453 3.09245 3.14453 3.69141 3.14453C3.54143 3.93324 3.85393 4.40848 4.62891 4.57031C5.18879 4.59637 5.74871 4.59637 6.30859 4.57031C6.69391 4.51051 6.94781 4.29566 7.07031 3.92578C7.08984 3.66569 7.09633 3.40527 7.08984 3.14453C9.01692 3.14453 10.944 3.14453 12.8711 3.14453C12.8646 3.40527 12.8711 3.66569 12.8906 3.92578C13.0131 4.29566 13.267 4.51051 13.6523 4.57031C14.2122 4.59637 14.7722 4.59637 15.332 4.57031C16.107 4.40848 16.4195 3.93324 16.2695 3.14453C16.8686 3.13802 17.4676 3.14454 18.0664 3.16406C18.3844 3.2866 18.5732 3.51446 18.6328 3.84766C18.6523 4.79809 18.6589 5.74859 18.6523 6.69922C12.8711 6.69922 7.08984 6.69922 1.30859 6.69922C1.30209 5.74859 1.30859 4.79809 1.32813 3.84766C1.39543 3.51361 1.58423 3.27923 1.89453 3.14453ZM1.30859 7.71484C7.08984 7.71484 12.8711 7.71484 18.6523 7.71484C18.6589 11.1393 18.6523 14.5638 18.6328 17.9883C18.6135 18.4883 18.3726 18.8204 17.9102 18.9844C12.6237 19.0104 7.33723 19.0104 2.05078 18.9844C1.58834 18.8204 1.34745 18.4883 1.32813 17.9883C1.30859 14.5638 1.30208 11.1393 1.30859 7.71484Z" fill="current"/>
    <path opacity="0.956" fill-rule="evenodd" clip-rule="evenodd" d="M9.551 8.92376C9.78979 8.88118 9.99159 8.9463 10.1565 9.11907C10.5332 9.86595 10.9043 10.6147 11.2697 11.3652C12.1308 11.5 12.9902 11.6432 13.8479 11.7949C14.1032 12.0087 14.1488 12.2626 13.9846 12.5566C13.3987 13.1165 12.8127 13.6764 12.2268 14.2363C12.342 15.0709 12.4787 15.9043 12.6369 16.7363C12.5489 17.1776 12.2884 17.3274 11.8557 17.1855C11.1464 16.8243 10.4433 16.4532 9.74631 16.0722C9.00291 16.4569 8.26073 16.841 7.51975 17.2245C6.99897 17.2896 6.78412 17.0618 6.87522 16.5409C7.00451 15.7968 7.14123 15.0546 7.28537 14.3144C6.70049 13.7425 6.11455 13.1696 5.52756 12.5956C5.28315 12.242 5.34826 11.962 5.72287 11.7558C6.56104 11.64 7.3944 11.5032 8.22287 11.3456C8.59159 10.6213 8.94963 9.89212 9.29709 9.15813C9.37768 9.07087 9.46229 8.99274 9.551 8.92376ZM9.70725 10.6034C9.45979 11.1569 9.18635 11.6973 8.88694 12.2245C8.8092 12.2929 8.71807 12.332 8.6135 12.3417C8.06557 12.4125 7.51869 12.4907 6.97287 12.5761C7.4351 12.9863 7.87131 13.4225 8.28147 13.8847C8.30752 14.054 8.30752 14.2232 8.28147 14.3925C8.1901 14.8756 8.11198 15.3573 8.04709 15.8378C8.59885 15.5294 9.15873 15.243 9.72678 14.9784C10.2906 15.2245 10.844 15.498 11.3869 15.7988C11.3999 15.7662 11.413 15.7336 11.426 15.7011C11.3349 15.1672 11.2437 14.6334 11.1526 14.0995C11.1577 14.0115 11.1772 13.9269 11.2112 13.8456C11.6334 13.4104 12.0696 12.9872 12.5197 12.5761C11.8885 12.5008 11.2635 12.3967 10.6447 12.2636C10.3334 11.7387 10.047 11.1983 9.78537 10.6425C9.76752 10.6113 9.74147 10.5983 9.70725 10.6034Z" fill="current"/>
  </g>
  <defs>
    <clipPath id="clip0_1039_25391">
      <rect width="20" height="20" fill="current"/>
    </clipPath>
  </defs>
</svg>