<svg width="33" height="32" viewBox="0 0 33 32" fill="current" xmlns="http://www.w3.org/2000/svg">
<g id="cutlery (3) 1" clip-path="url(#clip0_1727_1312)">
<g id="Group">
<path id="Vector" opacity="0.937" d="M0.41875 7.65557H0.417611L0.419864 7.66606C0.884008 9.82803 1.83547 11.752 3.2739 13.4374C4.29126 14.7159 5.43861 15.5313 6.71654 15.8784C7.98589 16.2232 9.37863 16.1044 10.8927 15.5268C11.6443 16.3304 12.3864 17.1449 13.1189 17.97L13.1263 17.9784L13.1367 17.9828C13.3676 18.0809 13.6073 18.1027 13.8545 18.0481L13.8671 18.0454L13.8768 18.0368L19.1581 13.3806L19.1593 13.382L19.1668 13.3705C19.2589 13.2302 19.3137 13.0767 19.331 12.9107L19.3319 12.9019L19.3297 12.8933C19.2542 12.5959 19.1604 12.3037 19.0482 12.0166C18.888 11.1855 19.0307 10.4097 19.4771 9.68656C22.0573 7.04396 24.66 4.42048 27.2852 1.81606L27.2914 1.80991L27.2952 1.80203C27.354 1.67808 27.4067 1.55158 27.4533 1.42253L27.4586 1.40785L27.4546 1.39277C27.3735 1.08674 27.2392 0.879544 27.0415 0.792358C26.8439 0.705158 26.6006 0.745775 26.3205 0.892531L26.3138 0.896071L26.3084 0.901463L18.7146 8.49521L18.7144 8.49494L18.7106 8.49983C17.7178 9.77335 17.4203 11.1961 17.819 12.7634L16.7481 13.7119L15.6872 14.6515C14.9899 14.044 14.3118 13.4164 13.6531 12.7688C14.1491 11.5955 14.3228 10.4663 14.1717 9.3822C14.0192 8.2884 13.5365 7.24392 12.7263 6.249L12.7264 6.24888L12.7234 6.24574C12.0162 5.51732 11.2536 4.85915 10.4355 4.27127C8.76135 3.05271 6.88783 2.37241 4.81591 2.23068L4.81593 2.23036L4.81024 2.23062C3.625 2.28426 2.66317 2.61027 1.92892 3.21245C1.19463 3.81468 0.692647 4.68927 0.420115 5.83146L0.41875 5.83114V5.84307V5.84661V5.85015V5.85369V5.85723V5.86077V5.86431V5.86785V5.87139V5.87493V5.87847V5.88201V5.88555V5.88909V5.89263V5.89617V5.89971V5.90325V5.90679V5.91033V5.91387V5.91741V5.92095V5.92449V5.92803V5.93157V5.93511V5.93865V5.94219V5.94573V5.94927V5.95281V5.95635V5.95989V5.96343V5.96697V5.97051V5.97405V5.97759V5.98113V5.98467V5.98821V5.99175V5.99529V5.99883V6.00237V6.00591V6.00945V6.01299V6.01653V6.02007V6.02361V6.02715V6.03069V6.03424V6.03778V6.04132V6.04486V6.0484V6.05194V6.05548V6.05902V6.06256V6.0661V6.06964V6.07318V6.07672V6.08026V6.0838V6.08734V6.09088V6.09442V6.09796V6.1015V6.10504V6.10858V6.11212V6.11566V6.1192V6.12274V6.12628V6.12982V6.13336V6.1369V6.14044V6.14398V6.14752V6.15106V6.1546V6.15814V6.16168V6.16522V6.16876V6.1723V6.17584V6.17938V6.18292V6.18646V6.19V6.19354V6.19708V6.20062V6.20416V6.2077V6.21124V6.21478V6.21832V6.22186V6.2254V6.22894V6.23248V6.23602V6.23956V6.2431V6.24664V6.25018V6.25372V6.25726V6.2608V6.26434V6.26788V6.27142V6.27496V6.2785V6.28204V6.28558V6.28912V6.29266V6.2962V6.29974V6.30328V6.30682V6.31036V6.3139V6.31744V6.32098V6.32452V6.32806V6.3316V6.33514V6.33868V6.34222V6.34576V6.3493V6.35284V6.35638V6.35992V6.36346V6.367V6.37054V6.37408V6.37762V6.38116V6.3847V6.38824V6.39178V6.39532V6.39886V6.4024V6.40594V6.40948V6.41302V6.41656V6.4201V6.42364V6.42718V6.43072V6.43426V6.4378V6.44134V6.44488V6.44842V6.45196V6.4555V6.45904V6.46258V6.46612V6.46966V6.4732V6.47674V6.48028V6.48382V6.48736V6.4909V6.49444V6.49798V6.50152V6.50506V6.5086V6.51214V6.51568V6.51922V6.52276V6.5263V6.52984V6.53338V6.53692V6.54046V6.544V6.54754V6.55108V6.55462V6.55816V6.5617V6.56524V6.56878V6.57232V6.57586V6.5794V6.58294V6.58648V6.59002V6.59356V6.5971V6.60064V6.60418V6.60772V6.61126V6.6148V6.61834V6.62188V6.62542V6.62896V6.6325V6.63604V6.63958V6.64312V6.64666V6.6502V6.65374V6.65728V6.66082V6.66436V6.6679V6.67144V6.67498V6.67852V6.68206V6.6856V6.68914V6.69268V6.69622V6.69976V6.7033V6.70684V6.71038V6.71392V6.71746V6.721V6.72454V6.72808V6.73162V6.73516V6.7387V6.74224V6.74578V6.74932V6.75286V6.7564V6.75994V6.76348V6.76702V6.77056V6.7741V6.77764V6.78118V6.78472V6.78826V6.7918V6.79534V6.79888V6.80242V6.80596V6.8095V6.81304V6.81658V6.82012V6.82366V6.8272V6.83074V6.83428V6.83782V6.84136V6.8449V6.84844V6.85198V6.85552V6.85906V6.8626V6.86614V6.86968V6.87322V6.87676V6.8803V6.88384V6.88738V6.89092V6.89446V6.898V6.90154V6.90508V6.90862V6.91216V6.9157V6.91924V6.92278V6.92632V6.92986V6.9334V6.93694V6.94048V6.94402V6.94756V6.9511V6.95464V6.95818V6.96172V6.96526V6.9688V6.97234V6.97588V6.97942V6.98296V6.9865V6.99004V6.99358V6.99712V7.00066V7.0042V7.00774V7.01128V7.01482V7.01836V7.0219V7.02544V7.02898V7.03252V7.03606V7.0396V7.04314V7.04668V7.05022V7.05376V7.0573V7.06084V7.06438V7.06792V7.07146V7.075V7.07854V7.08208V7.08562V7.08916V7.0927V7.09624V7.09978V7.10332V7.10686V7.1104V7.11394V7.11748V7.12102V7.12456V7.1281V7.13164V7.13518V7.13872V7.14226V7.1458V7.14934V7.15288V7.15642V7.15996V7.1635V7.16704V7.17058V7.17412V7.17766V7.1812V7.18474V7.18828V7.19182V7.19536V7.1989V7.20244V7.20598V7.20952V7.21306V7.2166V7.22014V7.22368V7.22722V7.23076V7.2343V7.23784V7.24138V7.24492V7.24846V7.252V7.25554V7.25908V7.26262V7.26616V7.2697V7.27324V7.27678V7.28032V7.28386V7.2874V7.29094V7.29448V7.29802V7.30156V7.3051V7.30864V7.31218V7.31572V7.31926V7.3228V7.32634V7.32988V7.33342V7.33696V7.3405V7.34404V7.34758V7.35112V7.35466V7.3582V7.36174V7.36528V7.36882V7.37236V7.3759V7.37944V7.38298V7.38652V7.39006V7.3936V7.39714V7.40068V7.40422V7.40776V7.4113V7.41484V7.41838V7.42192V7.42546V7.429V7.43254V7.43608V7.43962V7.44316V7.4467V7.45024V7.45378V7.45732V7.46086V7.4644V7.46794V7.47148V7.47502V7.47856V7.4821V7.48564V7.48918V7.49272V7.49626V7.4998V7.50334V7.50688V7.51042V7.51396V7.5175V7.52104V7.52458V7.52812V7.53166V7.5352V7.53874V7.54228V7.54582V7.54936V7.5529V7.55644V7.55998V7.56352V7.56706V7.5706V7.57414V7.57768V7.58122V7.58476V7.58831V7.59185V7.59539V7.59893V7.60247V7.60601V7.60955V7.61309V7.61663V7.62017V7.62371V7.62725V7.63079V7.63433V7.63787V7.64141V7.64495V7.64849V7.65203V7.65557ZM8.44439 4.60548L8.44443 4.6055C9.80243 5.36154 10.9953 6.32595 12.0231 7.49898C12.8987 8.74905 13.1249 10.107 12.7025 11.5773C12.5292 12.0374 12.3323 12.483 12.1117 12.914L12.1041 12.9289L12.107 12.9454C12.1595 13.2455 12.312 13.4856 12.5626 13.6635L13.6543 14.6305L14.7052 15.5613C14.3413 15.875 13.9825 16.1951 13.6287 16.5216L12.7563 15.5288L11.8517 14.4995C11.6646 14.2374 11.4158 14.0646 11.1066 13.9823L11.0879 13.9773L11.0707 13.9862C9.72033 14.6887 8.47805 14.9129 7.34146 14.666C6.20487 14.4192 5.1664 13.6996 4.22687 12.4997L4.22688 12.4997L4.22593 12.4986C3.36713 11.4666 2.68227 10.3252 2.17129 9.07416L2.17111 9.07373C1.67062 7.88065 1.58778 6.664 1.92234 5.42206C2.37517 4.37275 3.16139 3.76024 4.28586 3.58046C5.76481 3.54212 7.15068 3.88372 8.44439 4.60548Z" fill="current" stroke="c" stroke-width="0.1"/>
</g>
<g id="Group_2">
<path id="Vector_2" opacity="0.956" d="M28.2817 2.41954L28.262 2.42008L28.2479 2.43391C26.1475 4.50307 24.0536 6.58652 21.9663 8.68426L21.9556 8.69505L21.9527 8.71C21.8842 9.06273 21.9166 9.33008 22.0758 9.48927C22.235 9.64846 22.5023 9.68081 22.855 9.61236L22.8701 9.60945L22.8809 9.59863L29.0371 3.44238L29.0458 3.43367L29.0495 3.42192C29.1513 3.09558 29.1474 2.83573 29.0123 2.6596C28.8775 2.48368 28.6262 2.41017 28.2817 2.41954Z" fill="current" stroke="current" stroke-width="0.1"/>
</g>
<g id="Group_3">
<path id="Vector_3" opacity="0.923" d="M30.0374 3.98163L30.0203 3.97952L30.0056 3.98836C29.9129 4.04386 29.811 4.09488 29.6995 4.14135L29.6904 4.14516L29.6834 4.15214L23.6521 10.1834L23.6463 10.1892L23.6427 10.1966C23.5769 10.3299 23.5238 10.4681 23.4831 10.6114L23.4795 10.6242L23.4827 10.6371C23.5527 10.9171 23.6761 11.1117 23.8613 11.2043C24.0463 11.2968 24.2786 11.2803 24.5499 11.1714L24.5594 11.1676L24.5666 11.1604L30.6604 5.06661L30.6679 5.05902L30.6717 5.049C30.7858 4.74851 30.7982 4.49924 30.6876 4.31306C30.5769 4.12665 30.3533 4.02058 30.0374 3.98163Z" fill="current" stroke="current" stroke-width="0.1"/>
</g>
<g id="Group_4">
<path id="Vector_4" opacity="0.934" d="M32.5199 6.21637V6.19867L32.5087 6.18491C32.3767 6.0219 32.2262 5.91763 32.0566 5.87806C31.8871 5.8385 31.7048 5.86505 31.5118 5.95204L31.5034 5.95584L31.4969 5.9624C28.8716 8.60844 26.2273 11.2319 23.564 13.8329C22.901 14.2375 22.1866 14.3801 21.4187 14.2613C21.0766 14.1542 20.7329 14.0605 20.3874 13.9802L20.3876 13.9795L20.3793 13.979C20.213 13.9682 20.0652 14.0134 19.9386 14.1148L19.9382 14.1143L19.9325 14.1206C15.3807 19.2243 10.8404 24.3373 6.3117 29.4596L6.12962 29.581L5.94612 29.7034C5.25469 29.992 4.60943 29.9114 4.00352 29.4604C3.60809 29.0283 3.40975 28.5969 3.39973 28.1658C3.3897 27.7345 3.56792 27.2947 3.94314 26.8453C6.28383 24.817 8.60595 22.7656 10.9096 20.691L10.9192 20.6823L10.9234 20.67C11.041 20.3249 11.0464 20.0519 10.9111 19.8695C10.7756 19.6869 10.5147 19.6163 10.1547 19.6352L10.1376 19.6361L10.1246 19.6473C7.62616 21.8089 5.15702 24.0071 2.71733 26.242L2.71685 26.2415L2.71166 26.2481C2.475 26.5518 2.30537 26.8912 2.20288 27.2657L2.20286 27.2657L2.20256 27.2669C1.92714 28.3833 2.16008 29.379 2.90053 30.2488L2.90001 30.2492L2.90633 30.2546C3.65211 30.8848 4.40271 31.2039 5.15735 31.2039C5.91199 31.2039 6.6626 30.8848 7.40838 30.2546L7.40875 30.255L7.4138 30.2492C10.1496 27.109 12.9182 23.998 15.7194 20.9162C18.5689 24.1288 21.4317 27.3337 24.3077 30.5311L24.307 30.5317L24.3147 30.5375C24.6036 30.756 24.9208 30.9252 25.266 31.0449L25.2659 31.045L25.2694 31.0459C26.0054 31.2427 26.6743 31.2393 27.2741 31.0323C27.8739 30.8253 28.4002 30.4161 28.8537 29.8088L28.8541 29.8091L28.8575 29.8029C29.1969 29.182 29.3521 28.5689 29.3203 27.9643C29.2885 27.3598 29.0698 26.7674 28.6672 26.1878L28.6683 26.1871L28.6596 26.1792C25.4801 23.3121 22.282 20.4682 19.0653 17.6475L19.0653 17.6475L19.0637 17.6462C18.9701 17.5709 18.8964 17.4822 18.8421 17.3799C19.4215 16.7097 20.0109 16.0491 20.6104 15.3982C22.1263 15.8485 23.5083 15.5818 24.7509 14.5993L24.7511 14.5996L24.7551 14.5955C27.3529 12.0083 29.9363 9.41442 32.5054 6.81401L32.5199 6.7994V6.77887V6.77777V6.77667V6.77557V6.77448V6.77338V6.77228V6.77118V6.77008V6.76898V6.76788V6.76679V6.76569V6.76459V6.76349V6.76239V6.76129V6.76019V6.75909V6.758V6.7569V6.7558V6.7547V6.7536V6.7525V6.7514V6.75031V6.74921V6.74811V6.74701V6.74591V6.74481V6.74371V6.74262V6.74152V6.74042V6.73932V6.73822V6.73712V6.73602V6.73492V6.73383V6.73273V6.73163V6.73053V6.72943V6.72833V6.72723V6.72614V6.72504V6.72394V6.72284V6.72174V6.72064V6.71954V6.71845V6.71735V6.71625V6.71515V6.71405V6.71295V6.71185V6.71075V6.70966V6.70856V6.70746V6.70636V6.70526V6.70416V6.70306V6.70197V6.70087V6.69977V6.69867V6.69757V6.69647V6.69537V6.69428V6.69318V6.69208V6.69098V6.68988V6.68878V6.68768V6.68658V6.68549V6.68439V6.68329V6.68219V6.68109V6.67999V6.67889V6.6778V6.6767V6.6756V6.6745V6.6734V6.6723V6.6712V6.67011V6.66901V6.66791V6.66681V6.66571V6.66461V6.66351V6.66241V6.66132V6.66022V6.65912V6.65802V6.65692V6.65582V6.65472V6.65363V6.65253V6.65143V6.65033V6.64923V6.64813V6.64703V6.64594V6.64484V6.64374V6.64264V6.64154V6.64044V6.63934V6.63824V6.63715V6.63605V6.63495V6.63385V6.63275V6.63165V6.63055V6.62946V6.62836V6.62726V6.62616V6.62506V6.62396V6.62286V6.62177V6.62067V6.61957V6.61847V6.61737V6.61627V6.61517V6.61408V6.61298V6.61188V6.61078V6.60968V6.60858V6.60748V6.60638V6.60529V6.60419V6.60309V6.60199V6.60089V6.59979V6.59869V6.5976V6.5965V6.5954V6.5943V6.5932V6.5921V6.591V6.58991V6.58881V6.58771V6.58661V6.58551V6.58441V6.58331V6.58221V6.58112V6.58002V6.57892V6.57782V6.57672V6.57562V6.57452V6.57343V6.57233V6.57123V6.57013V6.56903V6.56793V6.56683V6.56574V6.56464V6.56354V6.56244V6.56134V6.56024V6.55914V6.55804V6.55695V6.55585V6.55475V6.55365V6.55255V6.55145V6.55035V6.54926V6.54816V6.54706V6.54596V6.54486V6.54376V6.54266V6.54157V6.54047V6.53937V6.53827V6.53717V6.53607V6.53497V6.53387V6.53278V6.53168V6.53058V6.52948V6.52838V6.52728V6.52618V6.52509V6.52399V6.52289V6.52179V6.52069V6.51959V6.51849V6.5174V6.5163V6.5152V6.5141V6.513V6.5119V6.5108V6.5097V6.50861V6.50751V6.50641V6.50531V6.50421V6.50311V6.50201V6.50092V6.49982V6.49872V6.49762V6.49652V6.49542V6.49432V6.49323V6.49213V6.49103V6.48993V6.48883V6.48773V6.48663V6.48554V6.48444V6.48334V6.48224V6.48114V6.48004V6.47894V6.47784V6.47675V6.47565V6.47455V6.47345V6.47235V6.47125V6.47015V6.46906V6.46796V6.46686V6.46576V6.46466V6.46356V6.46246V6.46137V6.46027V6.45917V6.45807V6.45697V6.45587V6.45477V6.45367V6.45258V6.45148V6.45038V6.44928V6.44818V6.44708V6.44598V6.44489V6.44379V6.44269V6.44159V6.44049V6.43939V6.43829V6.4372V6.4361V6.435V6.4339V6.4328V6.4317V6.4306V6.4295V6.42841V6.42731V6.42621V6.42511V6.42401V6.42291V6.42181V6.42072V6.41962V6.41852V6.41742V6.41632V6.41522V6.41412V6.41303V6.41193V6.41083V6.40973V6.40863V6.40753V6.40643V6.40533V6.40424V6.40314V6.40204V6.40094V6.39984V6.39874V6.39764V6.39655V6.39545V6.39435V6.39325V6.39215V6.39105V6.38995V6.38886V6.38776V6.38666V6.38556V6.38446V6.38336V6.38226V6.38116V6.38007V6.37897V6.37787V6.37677V6.37567V6.37457V6.37347V6.37238V6.37128V6.37018V6.36908V6.36798V6.36688V6.36578V6.36469V6.36359V6.36249V6.36139V6.36029V6.35919V6.35809V6.35699V6.3559V6.3548V6.3537V6.3526V6.3515V6.3504V6.3493V6.34821V6.34711V6.34601V6.34491V6.34381V6.34271V6.34161V6.34052V6.33942V6.33832V6.33722V6.33612V6.33502V6.33392V6.33283V6.33173V6.33063V6.32953V6.32843V6.32733V6.32623V6.32513V6.32404V6.32294V6.32184V6.32074V6.31964V6.31854V6.31744V6.31635V6.31525V6.31415V6.31305V6.31195V6.31085V6.30975V6.30866V6.30756V6.30646V6.30536V6.30426V6.30316V6.30206V6.30096V6.29987V6.29877V6.29767V6.29657V6.29547V6.29437V6.29327V6.29218V6.29108V6.28998V6.28888V6.28778V6.28668V6.28558V6.28449V6.28339V6.28229V6.28119V6.28009V6.27899V6.27789V6.27679V6.2757V6.2746V6.2735V6.2724V6.2713V6.2702V6.2691V6.26801V6.26691V6.26581V6.26471V6.26361V6.26251V6.26141V6.26032V6.25922V6.25812V6.25702V6.25592V6.25482V6.25372V6.25262V6.25153V6.25043V6.24933V6.24823V6.24713V6.24603V6.24493V6.24384V6.24274V6.24164V6.24054V6.23944V6.23834V6.23724V6.23615V6.23505V6.23395V6.23285V6.23175V6.23065V6.22955V6.22845V6.22736V6.22626V6.22516V6.22406V6.22296V6.22186V6.22076V6.21967V6.21857V6.21747V6.21637ZM16.6005 19.8744C17.051 19.4115 17.4685 18.9247 17.8529 18.414C21.162 21.236 24.4276 24.1183 27.6496 27.061C27.9392 27.5375 28.0477 27.9826 27.9826 28.3983C27.9174 28.8148 27.6767 29.2096 27.2526 29.5822C26.9034 29.7952 26.5584 29.8951 26.2168 29.885C25.8755 29.875 25.5336 29.7552 25.1905 29.5222C22.3041 26.3247 19.4408 23.1088 16.6005 19.8744Z" fill="current" stroke="current" stroke-width="0.1"/>
</g>
</g>
<defs>
<clipPath id="clip0_1727_1312">
<rect width="32" height="32" fill="current" transform="translate(0.5)"/>
</clipPath>
</defs>
</svg>
