<svg width="32" height="32" viewBox="0 0 32 32" fill="current" xmlns="http://www.w3.org/2000/svg">
<g id="graduation-cap 1" clip-path="url(#clip0_1727_1395)">
<path id="Vector" d="M19.5011 2.41938L19.5008 2.41995L19.5135 2.42602L29.343 7.10879C29.3434 7.109 29.3438 7.10921 29.3442 7.10942C30.6761 7.77543 31.8592 9.17846 31.8508 10.6671V10.6679V26.6679C31.8508 27.3214 31.321 27.8512 30.6675 27.8512C30.0139 27.8512 29.4841 27.3214 29.4841 26.6679V15.6706V15.4326L29.2695 15.5353L26.6028 16.81L26.5175 16.8507V16.9453V23.4879C26.5159 26.3432 24.6583 28.8658 21.9324 29.715C20.0054 30.2699 18.0077 30.5404 16.0025 30.518L15.9993 30.518C13.9937 30.5383 11.9959 30.2655 10.0692 29.7083C7.34324 28.8591 5.48568 26.3365 5.48409 23.4812V16.948V16.8533L5.3986 16.8126L2.65924 15.5075C1.8739 15.0844 1.22289 14.4497 0.78012 13.6752L0.649901 13.7497L0.780117 13.6752C-0.527886 11.3876 0.266271 8.47283 2.55386 7.16482L2.55386 7.16484L2.55581 7.16368C2.58679 7.14534 2.62123 7.12744 2.65731 7.10936L12.5986 2.36598L12.5988 2.36638L12.6087 2.36067C14.7477 1.13202 17.3834 1.15446 19.5011 2.41938ZM21.2419 27.4495L21.2419 27.4496L21.2457 27.4484C22.9751 26.9045 24.1514 25.3009 24.1507 23.488C24.1507 23.488 24.1507 23.4879 24.1507 23.4879V18.2186V17.9807L23.936 18.0833L19.4014 20.25L19.4012 20.2495L19.3898 20.2562C18.3729 20.8564 17.212 21.169 16.0312 21.1607L16.0297 21.1607C14.7877 21.1638 13.568 20.8306 12.5 20.1964L12.5003 20.1958L12.4879 20.1899L8.06522 18.0832L7.85071 17.9811V18.2187V23.4879C7.85071 23.4879 7.85071 23.488 7.85071 23.488C7.85003 25.3009 9.02629 26.9045 10.7557 27.4484L10.7557 27.4484L10.7595 27.4495C12.4633 27.9363 14.2288 28.1727 16.0007 28.1513C17.7726 28.1727 19.5381 27.9363 21.2419 27.4495ZM28.332 13.37L28.3396 13.3663L28.3468 13.3619C29.0553 12.9197 29.4854 12.143 29.484 11.3077L29.484 11.3062C29.4735 10.4253 28.9917 9.61779 28.2215 9.19015L28.2217 9.1899L28.2132 9.18587L18.3885 4.50533C16.9639 3.63002 15.1737 3.60661 13.7267 4.44452L3.73875 9.21525L3.73857 9.21488L3.72891 9.22041C3.33886 9.44356 3.01905 9.77143 2.80575 10.167C2.17505 11.3365 2.61192 12.7959 3.78152 13.4266L3.78143 13.4268L3.78828 13.4301L13.6196 18.1065C15.0437 18.9836 16.8348 19.0071 18.2815 18.1674L28.332 13.37Z" fill="current" stroke="#101014" stroke-width="0.3"/>
</g>
<defs>
<clipPath id="clip0_1727_1395">
<rect width="32" height="32" fill="current"/>
</clipPath>
</defs>
</svg>
