<svg width="33" height="32" viewBox="0 0 33 32" fill="current" xmlns="http://www.w3.org/2000/svg">
<g id="event 1" clip-path="url(#clip0_1727_1334)">
<g id="Group">
<path id="Vector" opacity="0.969" fill-rule="evenodd" clip-rule="evenodd" d="M7.59375 -0.03125C8.69794 -0.03125 9.80206 -0.03125 10.9062 -0.03125C11.3371 0.118142 11.6391 0.409808 11.8125 0.84375C11.8438 1.69766 11.8542 2.55183 11.8438 3.40625C14.9271 3.40625 18.0104 3.40625 21.0938 3.40625C21.0833 2.55183 21.0938 1.69766 21.125 0.84375C21.2984 0.409808 21.6004 0.118142 22.0312 -0.03125C23.1354 -0.03125 24.2396 -0.03125 25.3438 -0.03125C25.8436 0.0823294 26.2081 0.373996 26.4375 0.84375C26.5279 1.69334 26.5591 2.5475 26.5312 3.40625C27.5106 3.39584 28.4898 3.40626 29.4688 3.4375C30.7867 3.69299 31.5888 4.47424 31.875 5.78125C31.9167 13.6146 31.9167 21.4479 31.875 29.2812C31.6324 30.6586 30.8511 31.5544 29.5312 31.9688C20.8229 31.9688 12.1146 31.9688 3.40625 31.9688C2.08638 31.5544 1.30513 30.6586 1.0625 29.2812C1.02083 21.4479 1.02083 13.6146 1.0625 5.78125C1.34872 4.47424 2.1508 3.69299 3.46875 3.4375C4.44769 3.40626 5.42686 3.39584 6.40625 3.40625C6.37839 2.5475 6.40964 1.69334 6.5 0.84375C6.72937 0.373996 7.09394 0.0823294 7.59375 -0.03125ZM8.15625 1.53125C8.86456 1.53125 9.57294 1.53125 10.2812 1.53125C10.2812 2.92708 10.2812 4.32292 10.2812 5.71875C9.57294 5.71875 8.86456 5.71875 8.15625 5.71875C8.15625 4.32292 8.15625 2.92708 8.15625 1.53125ZM22.5938 1.53125C23.3646 1.53125 24.1354 1.53125 24.9062 1.53125C24.9062 2.92708 24.9062 4.32292 24.9062 5.71875C24.1354 5.71875 23.3646 5.71875 22.5938 5.71875C22.5938 4.32292 22.5938 2.92708 22.5938 1.53125ZM3.53125 5.03125C4.48958 5.03125 5.44792 5.03125 6.40625 5.03125C6.16629 6.29319 6.66629 7.05356 7.90625 7.3125C8.80206 7.35419 9.69794 7.35419 10.5938 7.3125C11.2102 7.21681 11.6165 6.87306 11.8125 6.28125C11.8438 5.86511 11.8541 5.44844 11.8438 5.03125C14.9271 5.03125 18.0104 5.03125 21.0938 5.03125C21.0834 5.44844 21.0938 5.86511 21.125 6.28125C21.321 6.87306 21.7273 7.21681 22.3438 7.3125C23.2396 7.35419 24.1354 7.35419 25.0312 7.3125C26.2712 7.05356 26.7712 6.29319 26.5312 5.03125C27.4898 5.02084 28.4481 5.03126 29.4062 5.0625C29.9151 5.25856 30.2171 5.62314 30.3125 6.15625C30.3438 7.67694 30.3542 9.19775 30.3438 10.7188C21.0938 10.7188 11.8438 10.7188 2.59375 10.7188C2.58334 9.19775 2.59375 7.67694 2.625 6.15625C2.73269 5.62178 3.03478 5.24678 3.53125 5.03125ZM2.59375 12.3438C11.8438 12.3438 21.0938 12.3438 30.3438 12.3438C30.3542 17.8229 30.3438 23.3021 30.3125 28.7812C30.2816 29.5813 29.8962 30.1126 29.1562 30.375C20.6979 30.4167 12.2396 30.4167 3.78125 30.375C3.04134 30.1126 2.65593 29.5813 2.625 28.7812C2.59375 23.3021 2.58333 17.8229 2.59375 12.3438Z" fill="current"/>
</g>
<g id="Group_2">
<path id="Vector_2" opacity="0.956" fill-rule="evenodd" clip-rule="evenodd" d="M15.7863 14.2819C16.1683 14.2138 16.4912 14.318 16.755 14.5944C17.3578 15.7894 17.9515 16.9874 18.5363 18.1882C19.914 18.4039 21.289 18.633 22.6613 18.8757C23.0698 19.2179 23.1428 19.6241 22.88 20.0944C21.9425 20.9902 21.005 21.8861 20.0675 22.7819C20.2519 24.1174 20.4707 25.4507 20.7238 26.7819C20.5828 27.4881 20.1662 27.7277 19.4738 27.5007C18.3389 26.9229 17.2139 26.3291 16.0988 25.7194C14.9093 26.3349 13.7218 26.9495 12.5363 27.5632C11.703 27.6673 11.3593 27.3027 11.505 26.4694C11.7119 25.2788 11.9307 24.0913 12.1613 22.9069C11.2255 21.992 10.288 21.0753 9.34879 20.1569C8.95772 19.591 9.06191 19.1431 9.66129 18.8132C11.0023 18.6279 12.3357 18.4091 13.6613 18.1569C14.2512 16.9979 14.8241 15.8313 15.38 14.6569C15.509 14.5173 15.6443 14.3923 15.7863 14.2819ZM16.0363 16.9694C15.6403 17.855 15.2028 18.7196 14.7238 19.5632C14.5994 19.6726 14.4536 19.7351 14.2863 19.7507C13.4096 19.864 12.5346 19.989 11.6613 20.1257C12.4008 20.7819 13.0988 21.4799 13.755 22.2194C13.7967 22.4902 13.7967 22.7611 13.755 23.0319C13.6088 23.8048 13.4838 24.5756 13.38 25.3444C14.2628 24.851 15.1587 24.3927 16.0675 23.9694C16.9697 24.3632 17.8551 24.8007 18.7238 25.2819C18.7446 25.2299 18.7655 25.1777 18.7863 25.1257C18.6405 24.2715 18.4946 23.4173 18.3488 22.5632C18.357 22.4224 18.3882 22.287 18.4425 22.1569C19.1181 21.4605 19.816 20.7835 20.5363 20.1257C19.5263 20.0052 18.5263 19.8386 17.5363 19.6257C17.0382 18.7859 16.5798 17.9212 16.1613 17.0319C16.1327 16.982 16.091 16.9612 16.0363 16.9694Z" fill="current"/>
</g>
</g>
<defs>
<clipPath id="clip0_1727_1334">
<rect width="32" height="32" fill="current" transform="translate(0.5)"/>
</clipPath>
</defs>
</svg>
