<svg xmlns="http://www.w3.org/2000/svg" width="20" height="20" viewBox="0 0 20 20" fill="none">
<g opacity="0.7" clip-path="url(#clip0_1039_25375)">
<path d="M1.97748 7.4H2.05084H4.91667H5.04659L5.01334 7.5256C4.79952 8.3332 4.68864 9.16459 4.68334 10C4.68864 10.8354 4.79952 11.6668 5.01334 12.4744L5.04659 12.6H4.91667H2.05084H1.97748L1.95545 12.53C1.6977 11.7114 1.5666 10.8582 1.56667 10L1.97748 7.4ZM1.97748 7.4L1.95545 7.46997M1.97748 7.4L1.95545 7.46997M1.95545 7.46997C1.6977 8.28857 1.5666 9.14177 1.56667 9.99999L1.95545 7.46997ZM12.685 5.93333H12.8477L12.7742 5.78818C12.063 4.38291 11.1532 3.08736 10.0728 1.9414L9.99998 1.8642L9.92722 1.94142C8.84719 3.08769 7.93743 4.38316 7.22579 5.78815L7.15226 5.93333H7.315H12.685ZM13.447 7.46981L13.4249 7.4H13.3517H6.64667H6.57344L6.55134 7.46981C6.2922 8.28822 6.15693 9.14077 6.14999 9.99919L6.15001 10.0008C6.15693 10.8592 6.2922 11.7118 6.55134 12.5302L6.57344 12.6H6.64667H13.3517H13.4249L13.447 12.5302C13.7061 11.7118 13.8414 10.8592 13.8483 10.0008L13.8483 9.99919C13.8414 9.14077 13.7061 8.28822 13.447 7.46981ZM7.91076 2.02662L8.10817 1.78511L7.80714 1.86683C5.65812 2.45018 3.82579 3.85738 2.70769 5.78312L2.62048 5.93333H2.79417H5.47834H5.54405L5.57013 5.87302C6.16861 4.48876 6.95634 3.19428 7.91076 2.02662ZM2.79417 14.0667H2.62048L2.70769 14.2169C3.82579 16.1426 5.65812 17.5498 7.80714 18.1332L8.10817 18.2149L7.91076 17.9734C6.95634 16.8057 6.16861 15.5112 5.57013 14.127L5.54405 14.0667H5.47834H2.79417ZM7.315 14.0667H7.15232L7.22578 14.2118C7.93698 15.6171 8.8468 16.9126 9.92725 18.0586L10 18.1358L10.0728 18.0586C11.1528 16.9123 12.0626 15.6168 12.7742 14.2119L12.8478 14.0667H12.685H7.315ZM12.0934 17.9734L11.8962 18.215L12.1971 18.1332C14.3446 17.5488 16.1752 16.1417 17.2923 14.2169L17.3795 14.0667H17.2058H14.5217H14.4559L14.4299 14.127C13.8327 15.5111 13.0463 16.8055 12.0934 17.9734ZM17.9492 12.6H18.0225L18.0446 12.53C18.3023 11.7114 18.4334 10.8582 18.4333 9.99999V9.99995C18.4329 9.14163 18.3012 8.28843 18.0429 7.4699L18.0208 7.4H17.9475H15.0833H14.9534L14.9867 7.5256C15.2005 8.3332 15.3114 9.16459 15.3167 10C15.3114 10.8354 15.2005 11.6668 14.9867 12.4744L14.9534 12.6H15.0833H17.9492ZM14.4299 5.87295L14.4559 5.93333H14.5217H17.2058H17.3795L17.2923 5.78314C16.1752 3.85828 14.3446 2.45119 12.1971 1.86684L11.8962 1.78498L12.0934 2.02655C13.0463 3.19446 13.8327 4.48893 14.4299 5.87295ZM4.49986 1.76845C6.12789 0.680635 8.04193 0.10001 9.99995 0.1C12.6247 0.102853 15.1412 1.14681 16.9972 3.00281C18.8532 4.85883 19.8972 7.37531 19.9 10.0001C19.9 11.9581 19.3194 13.8721 18.2316 15.5001C17.1437 17.1282 15.5976 18.3971 13.7886 19.1464C11.9796 19.8957 9.98902 20.0918 8.06861 19.7098C6.1482 19.3278 4.38419 18.3849 2.99965 17.0004C1.61511 15.6158 0.672224 13.8518 0.29023 11.9314C-0.0917635 10.011 0.10429 8.02042 0.853597 6.21143C1.6029 4.40245 2.87181 2.85628 4.49986 1.76845Z" fill="current" stroke="#101014" stroke-width="0.2"/>
</g>
<defs>
<clipPath id="clip0_1039_25375">
<rect width="20" height="20" fill="current"/>
</clipPath>
</defs>
</svg>