<svg width="32" height="32" viewBox="0 0 32 32" fill="current" xmlns="http://www.w3.org/2000/svg">
<g id="martini 1" clip-path="url(#clip0_1727_1326)">
<g id="Group">
<path id="Vector" opacity="0.967" fill-rule="evenodd" clip-rule="evenodd" d="M7.84403 -0.03125C8.44822 -0.03125 9.05234 -0.03125 9.65653 -0.03125C12.3914 0.515931 14.1206 2.14093 14.844 4.84375C16.5937 4.91666 18.3437 4.92707 20.094 4.875C21.222 3.50464 22.3574 2.14006 23.5003 0.78125C24.0006 1.18804 24.4902 1.6047 24.969 2.03125C24.21 2.98823 23.4392 3.93614 22.6565 4.875C24.9064 4.90625 27.1564 4.91667 29.4065 4.90625C29.4169 5.55242 29.4065 6.19825 29.3753 6.84375C26.1281 10.8619 22.8573 14.8619 19.5628 18.8438C19.5315 22.5937 19.5211 26.3437 19.5315 30.0938C20.7815 30.0938 22.0315 30.0938 23.2815 30.0938C23.2815 30.7188 23.2815 31.3438 23.2815 31.9688C20.1357 31.9688 16.9898 31.9688 13.844 31.9688C13.844 31.3438 13.844 30.7188 13.844 30.0938C15.094 30.0938 16.344 30.0938 17.594 30.0938C17.6248 26.3177 17.5935 22.5469 17.5003 18.7812C15.5405 16.4153 13.5927 14.0403 11.6565 11.6562C8.80347 12.9395 6.27222 12.4812 4.06278 10.2812C2.51572 8.36987 2.14072 6.24489 2.93778 3.90625C3.879 1.72514 5.51442 0.412635 7.84403 -0.03125ZM8.65653 1.84375C10.6979 1.96809 12.0937 2.97851 12.844 4.875C11.1358 4.90625 9.42747 4.91666 7.71903 4.90625C7.70865 5.55242 7.71903 6.19825 7.75028 6.84375C8.58084 7.90356 9.43497 8.94525 10.3128 9.96875C10.343 10.028 10.3533 10.0905 10.344 10.1562C8.35284 10.7878 6.67572 10.3086 5.31278 8.71875C4.18778 7.01044 4.18778 5.30208 5.31278 3.59375C6.18286 2.53896 7.29747 1.95563 8.65653 1.84375ZM10.2815 6.90625C12.1251 6.8335 13.9793 6.82306 15.844 6.875C15.1563 7.95081 15.0417 9.08619 15.5003 10.2812C16.3075 11.5994 17.4638 12.0473 18.969 11.625C20.7735 10.9655 21.7527 9.67387 21.9065 7.75C21.902 7.46238 21.8603 7.18113 21.7815 6.90625C23.4687 6.83331 25.1562 6.82294 26.844 6.875C24.0911 10.2453 21.3307 13.6099 18.5628 16.9688C15.7872 13.6209 13.0268 10.2668 10.2815 6.90625ZM18.7815 6.84375C19.5004 6.70944 19.8963 7.00112 19.969 7.71875C19.8274 8.78731 19.2441 9.48525 18.219 9.8125C17.397 9.86506 17.0532 9.47969 17.1878 8.65625C17.4012 7.76619 17.9324 7.162 18.7815 6.84375Z" fill="current"/>
</g>
</g>
<defs>
<clipPath id="clip0_1727_1326">
<rect width="32" height="32" fill="current"/>
</clipPath>
</defs>
</svg>
