<svg width="44" height="32" viewBox="0 0 44 32" fill="current" xmlns="http://www.w3.org/2000/svg">
<g id="Updated Logo" filter="url(#filter0_d_1727_1299)">
<path id="Vector" d="M39.7831 10.2629V10.2269C39.7069 8.07994 38.7987 6.04681 37.2506 4.55732C35.7025 3.06783 33.6359 2.23872 31.4876 2.24529C30.4294 2.24529 28.4847 2.80787 28.4847 2.80787L28.2536 2.71578C28.2536 2.71578 24.6636 -0.000129838 22.0016 0C19.34 0.000129823 15.7505 2.71578 15.7505 2.71578L15.5286 2.81122C15.5286 2.81122 13.5789 2.24529 12.5148 2.24529C10.3666 2.23872 8.29992 3.06783 6.75184 4.55732C5.20376 6.04681 4.29558 8.07994 4.21931 10.2269V10.2419L4.21094 23.9975H5.41395C6.45999 23.9959 7.46275 23.5798 8.20249 22.8402C8.94222 22.1006 9.3586 21.0979 9.36037 20.0519V18.2311C11.2099 18.9891 13.2708 19.0547 15.1649 18.4159C17.0589 17.7772 18.6591 16.4768 19.6718 14.7535V16.5274C19.6725 17.1434 19.9174 17.734 20.3529 18.1697C20.7884 18.6054 21.3789 18.8505 21.9949 18.8514H22.0016C22.6177 18.8505 23.2082 18.6054 23.6437 18.1697C24.0792 17.734 24.3241 17.1434 24.3248 16.5274V14.7535C25.3377 16.4784 26.939 17.7798 28.8346 18.4187C30.7301 19.0575 32.7926 18.9909 34.6429 18.2311V20.0519C34.644 21.0985 35.0602 22.102 35.8002 22.8421C36.5402 23.5823 37.5436 23.9987 38.5902 24H39.7915L39.7831 10.2629Z" fill="url(#paint0_linear_1727_1299)"/>
<g id="Group 950683181">
<path id="Vector_2" d="M22.0406 5.89551H22.0314C21.2741 5.89551 20.6602 6.50945 20.6602 7.26679V16.4757C20.6602 17.233 21.2741 17.847 22.0314 17.847H22.0406C22.798 17.847 23.4119 17.233 23.4119 16.4757V7.26679C23.4119 6.50945 22.798 5.89551 22.0406 5.89551Z" fill="black"/>
<path id="Vector_3" d="M5.20452 10.2167C5.26904 8.59136 5.87114 7.03335 6.91643 5.78699C7.96172 4.54063 9.39107 3.67641 10.9804 3.32984C12.5697 2.98326 14.2291 3.17392 15.6984 3.87193C17.1677 4.56993 18.3638 5.73582 19.0991 7.18677C19.8345 8.63772 20.0676 10.2917 19.7618 11.8893C19.456 13.487 18.6286 14.938 17.4094 16.0148C16.1902 17.0917 14.6481 17.7334 13.0249 17.8395C11.4017 17.9456 9.78917 17.51 8.44018 16.601V20.0066C8.4404 20.3999 8.36313 20.7894 8.21278 21.1528C8.06243 21.5162 7.84195 21.8464 7.56393 22.1246C7.28592 22.4027 6.95582 22.6234 6.5925 22.774C6.22917 22.9245 5.83975 23.002 5.44646 23.002H5.19531L5.20452 10.2167ZM12.549 15.1033C13.4597 15.1043 14.3502 14.8352 15.1079 14.3301C15.8657 13.825 16.4566 13.1065 16.8061 12.2655C17.1555 11.4246 17.2477 10.4989 17.071 9.60551C16.8943 8.71215 16.4567 7.89124 15.8134 7.24659C15.1702 6.60195 14.3502 6.16253 13.4572 5.98389C12.5643 5.80525 11.6384 5.89542 10.7966 6.243C9.95491 6.59058 9.23515 7.17996 8.72838 7.9366C8.22161 8.69325 7.9506 9.58317 7.9496 10.4938V10.4989C7.9496 11.7187 8.43367 12.8888 9.29554 13.752C10.1574 14.6153 11.3266 15.1013 12.5465 15.1033H12.549Z" fill="#070707"/>
<path id="Vector_4" d="M38.8562 10.2167C38.7917 8.59136 38.1896 7.03335 37.1443 5.78699C36.099 4.54063 34.6697 3.67641 33.0803 3.32984C31.491 2.98326 29.8316 3.17392 28.3624 3.87193C26.8931 4.56993 25.697 5.73582 24.9616 7.18677C24.2262 8.63772 23.9932 10.2917 24.299 11.8893C24.6048 13.487 25.4321 14.938 26.6513 16.0148C27.8706 17.0917 29.4127 17.7334 31.0359 17.8395C32.659 17.9456 34.2716 17.51 35.6205 16.601V20.0066C35.6203 20.3999 35.6976 20.7894 35.8479 21.1528C35.9983 21.5162 36.2188 21.8464 36.4968 22.1246C36.7748 22.4027 37.1049 22.6234 37.4682 22.774C37.8316 22.9245 38.221 23.002 38.6143 23.002H38.8654L38.8562 10.2167ZM31.5142 15.1033C30.6036 15.1043 29.713 14.8352 28.9553 14.3301C28.1975 13.825 27.6066 13.1065 27.2572 12.2655C26.9078 11.4246 26.8156 10.4989 26.9923 9.60551C27.169 8.71215 27.6066 7.89124 28.2498 7.24659C28.8931 6.60195 29.713 6.16253 30.606 5.98389C31.499 5.80525 32.4249 5.89542 33.2666 6.243C34.1083 6.59058 34.8281 7.17996 35.3349 7.9366C35.8416 8.69325 36.1126 9.58317 36.1136 10.4938V10.4989C36.1136 11.7192 35.6292 12.8896 34.7668 13.7529C33.9044 14.6163 32.7345 15.102 31.5142 15.1033Z" fill="#070707"/>
<path id="Vector_5" d="M15.5297 10.4572C15.5297 11.046 15.3551 11.6216 15.028 12.1112C14.701 12.6008 14.2361 12.9825 13.6922 13.208C13.1482 13.4334 12.5497 13.4926 11.9721 13.3779C11.3946 13.2633 10.864 12.98 10.4475 12.5639C10.0309 12.1477 9.74705 11.6174 9.63181 11.04C9.51657 10.4626 9.5751 9.86396 9.80001 9.3198C10.0249 8.77564 10.4061 8.31037 10.8954 7.98281C11.3847 7.65525 11.9601 7.4801 12.5489 7.47949C12.667 7.47949 12.7849 7.48764 12.9019 7.50391C12.6714 7.81916 12.5477 8.19987 12.5489 8.59041C12.5483 9.0848 12.7442 9.55917 13.0933 9.90924C13.4424 10.2593 13.9162 10.4564 14.4106 10.4572C14.8011 10.4584 15.1818 10.3347 15.4971 10.1042C15.5161 10.221 15.527 10.3389 15.5297 10.4572Z" fill="black"/>
<path id="Vector_6" d="M22.0338 0.984375C20.0752 0.984505 17.4336 2.9827 17.4336 2.9827L19.3842 4.96847C19.3842 4.96847 20.903 3.80062 22.0338 3.80062C23.1646 3.80062 24.6835 4.96847 24.6835 4.96847L26.6349 2.9827C26.6349 2.9827 23.9928 0.984245 22.0338 0.984375Z" fill="black"/>
<path id="Vector_7" d="M34.4805 10.4582C34.4803 11.0471 34.3055 11.6227 33.9781 12.1123C33.6508 12.6018 33.1857 12.9833 32.6416 13.2086C32.0974 13.4338 31.4988 13.4926 30.9212 13.3776C30.3436 13.2626 29.8132 12.9789 29.3968 12.5624C28.9805 12.1459 28.697 11.6154 28.5822 11.0378C28.4674 10.4602 28.5264 9.8615 28.7518 9.31745C28.9772 8.77341 29.3589 8.30841 29.8485 7.98126C30.3382 7.65411 30.9139 7.47949 31.5027 7.47949C31.6209 7.47983 31.7388 7.48833 31.8558 7.50493C31.6252 7.82018 31.5015 8.20088 31.5027 8.59143C31.5022 9.08529 31.6976 9.5592 32.046 9.90918C32.3945 10.2592 32.8675 10.4566 33.3614 10.4582C33.752 10.4594 34.1327 10.3357 34.4479 10.1052C34.4669 10.222 34.4777 10.34 34.4805 10.4582Z" fill="black"/>
</g>
</g>
<defs>
<filter id="filter0_d_1727_1299" x="0.210938" y="0" width="43.582" height="32" filterUnits="userSpaceOnUse" color-interpolation-filters="sRGB">
<feFlood flood-opacity="0" result="BackgroundImageFix"/>
<feColorMatrix in="SourceAlpha" type="matrix" values="0 0 0 0 0 0 0 0 0 0 0 0 0 0 0 0 0 0 127 0" result="hardAlpha"/>
<feOffset dy="4"/>
<feGaussianBlur stdDeviation="2"/>
<feComposite in2="hardAlpha" operator="out"/>
<feColorMatrix type="matrix" values="0 0 0 0 0 0 0 0 0 0 0 0 0 0 0 0 0 0 0.25 0"/>
<feBlend mode="normal" in2="BackgroundImageFix" result="effect1_dropShadow_1727_1299"/>
<feBlend mode="normal" in="SourceGraphic" in2="effect1_dropShadow_1727_1299" result="shape"/>
</filter>
<linearGradient id="paint0_linear_1727_1299" x1="4.21094" y1="-32.04" x2="13.5453" y2="33.0227" gradientUnits="userSpaceOnUse">
<stop stop-color="#FFDA46"/>
<stop offset="1" stop-color="#FFAE00"/>
</linearGradient>
</defs>
</svg>
