<svg width="32" height="32" viewBox="0 0 32 32" fill="current" xmlns="http://www.w3.org/2000/svg">
<g id="home (2) (1) 1" clip-path="url(#clip0_1727_1344)">
<g id="Group">
<path id="Vector" opacity="0.984" fill-rule="evenodd" clip-rule="evenodd" d="M31.9688 15.0919C31.9688 15.3419 31.9688 15.5919 31.9688 15.8419C31.5808 16.4871 31.0391 16.6433 30.3438 16.3106C30.0625 16.0294 29.7812 15.7481 29.5 15.4669C29.4792 19.8836 29.4583 24.3002 29.4375 28.7169C29.1146 29.8731 28.375 30.6127 27.2188 30.9356C19.7188 30.9773 12.2188 30.9773 4.71875 30.9356C3.5625 30.6127 2.82292 29.8731 2.5 28.7169C2.47917 24.3002 2.45833 19.8836 2.4375 15.4669C2.11005 15.8362 1.74547 16.1592 1.34375 16.4356C0.72135 16.5927 0.263015 16.3948 -0.03125 15.8419C-0.03125 15.5919 -0.03125 15.3419 -0.03125 15.0919C4.26522 10.7016 8.59856 6.33705 12.9688 1.99811C14.4626 0.888398 16.0876 0.659229 17.8438 1.31061C18.2396 1.5084 18.6146 1.73757 18.9688 1.99811C23.3389 6.33705 27.6722 10.7016 31.9688 15.0919ZM15.4062 3.02936C16.2109 2.90538 16.94 3.08247 17.5938 3.56061C20.875 6.84186 24.1562 10.1231 27.4375 13.4044C27.4991 18.4066 27.4783 23.4066 27.375 28.4044C27.2151 28.7312 26.9547 28.9082 26.5938 28.9356C24.7189 28.9669 22.8439 28.9773 20.9688 28.9669C20.9792 26.1334 20.9688 23.3001 20.9375 20.4669C20.6146 19.1439 19.7917 18.321 18.4688 17.9981C16.8021 17.9564 15.1354 17.9564 13.4688 17.9981C12.1458 18.321 11.3229 19.1439 11 20.4669C10.9688 23.3001 10.9583 26.1334 10.9688 28.9669C9.09363 28.9773 7.21863 28.9669 5.34375 28.9356C4.98281 28.9082 4.72239 28.7312 4.5625 28.4044C4.45923 23.4066 4.43839 18.4066 4.5 13.4044C7.78125 10.1231 11.0625 6.84186 14.3438 3.56061C14.6862 3.3477 15.0404 3.17061 15.4062 3.02936ZM14.0312 19.9669C15.3231 19.9564 16.6147 19.9669 17.9062 19.9981C18.5279 20.099 18.8717 20.4636 18.9375 21.0919C18.9688 23.7168 18.9792 26.3418 18.9688 28.9669C16.9688 28.9669 14.9688 28.9669 12.9688 28.9669C12.9583 26.3418 12.9688 23.7168 13 21.0919C13.0763 20.4637 13.4201 20.0887 14.0312 19.9669Z" fill="current"/>
</g>
</g>
<defs>
<clipPath id="clip0_1727_1344">
<rect width="32" height="32" fill="current"/>
</clipPath>
</defs>
</svg>
