<svg xmlns="http://www.w3.org/2000/svg" width="23" height="23" viewBox="0 0 23 23" fill="none">
  <path d="M22.7312 21.3772L17.0156 15.6616C18.5732 13.7567 19.339 11.326 19.1546 8.87221C18.9703 6.41847 17.8498 4.12946 16.0251 2.47864C14.2004 0.827817 11.811 -0.0585053 9.35106 0.0029996C6.89117 0.0645046 4.54903 1.06913 2.80908 2.80908C1.06913 4.54903 0.0645046 6.89117 0.0029996 9.35106C-0.0585053 11.811 0.827817 14.2004 2.47864 16.0251C4.12946 17.8498 6.41847 18.9703 8.87221 19.1546C11.326 19.339 13.7567 18.5732 15.6616 17.0156L21.3772 22.7312C21.5578 22.9056 21.7997 23.0021 22.0508 23C22.3018 22.9978 22.542 22.8971 22.7195 22.7195C22.8971 22.542 22.9978 22.3018 23 22.0508C23.0021 21.7997 22.9056 21.5578 22.7312 21.3772ZM9.60611 17.2665C8.09104 17.2665 6.60998 16.8172 5.35024 15.9755C4.0905 15.1337 3.10865 13.9374 2.52885 12.5376C1.94906 11.1379 1.79736 9.59762 2.09293 8.11165C2.38851 6.62568 3.11809 5.26074 4.18941 4.18941C5.26074 3.11809 6.62568 2.38851 8.11165 2.09293C9.59762 1.79736 11.1379 1.94906 12.5376 2.52885C13.9374 3.10865 15.1337 4.0905 15.9755 5.35024C16.8172 6.60998 17.2665 8.09104 17.2665 9.60611C17.2642 11.6371 16.4564 13.5842 15.0203 15.0203C13.5842 16.4564 11.6371 17.2642 9.60611 17.2665Z" fill="#A7A7A7"/>
</svg>