<svg width="33" height="32" viewBox="0 0 33 32" fill="current" xmlns="http://www.w3.org/2000/svg">
<g id="shopping-bag 1" clip-path="url(#clip0_1727_1363)">
<g id="Group">
<path id="Vector" opacity="0.991" fill-rule="evenodd" clip-rule="evenodd" d="M20.2188 -0.03125C20.8021 -0.03125 21.3854 -0.03125 21.9688 -0.03125C24.5721 0.520016 26.145 2.10335 26.6875 4.71875C26.763 5.6756 26.7943 6.63394 26.7812 7.59375C28.4897 7.58331 30.1981 7.59375 31.9062 7.625C32.1678 7.7305 32.3553 7.90756 32.4688 8.15625C32.4688 15.3646 32.4688 22.5729 32.4688 29.7812C32.1354 30.9062 31.4062 31.6354 30.2812 31.9688C21.0729 31.9688 11.8646 31.9688 2.65625 31.9688C1.53071 31.6349 0.801538 30.9057 0.46875 29.7812C0.46875 25.0729 0.46875 20.3646 0.46875 15.6562C0.582176 15.4076 0.769676 15.2305 1.03125 15.125C3.94784 15.0938 6.8645 15.0833 9.78125 15.0938C9.77081 12.7811 9.78125 10.4686 9.8125 8.15625C9.90625 7.89581 10.0833 7.71875 10.3438 7.625C12.0519 7.59375 13.7603 7.58331 15.4688 7.59375C15.4583 6.63519 15.4688 5.67686 15.5 4.71875C16.0425 2.10335 17.6154 0.520016 20.2188 -0.03125ZM21.0312 1.84375C23.0234 1.99234 24.263 3.03401 24.75 4.96875C24.8307 5.84177 24.8619 6.71675 24.8438 7.59375C22.3646 7.59375 19.8854 7.59375 17.4062 7.59375C17.3958 6.69769 17.4062 5.80184 17.4375 4.90625C17.9409 3.05839 19.1388 2.03756 21.0312 1.84375ZM11.6562 9.46875C12.9271 9.46875 14.1979 9.46875 15.4688 9.46875C15.4396 9.95894 15.4916 10.4381 15.625 10.9062C15.8136 11.2245 16.0948 11.3704 16.4688 11.3438C16.8427 11.3704 17.1239 11.2245 17.3125 10.9062C17.402 10.4341 17.4333 9.95494 17.4062 9.46875C19.8854 9.46875 22.3646 9.46875 24.8438 9.46875C24.8146 9.95894 24.8666 10.4381 25 10.9062C25.1886 11.2245 25.4698 11.3704 25.8438 11.3438C26.2177 11.3704 26.4989 11.2245 26.6875 10.9062C26.777 10.4341 26.8083 9.95494 26.7812 9.46875C28.0521 9.46875 29.3229 9.46875 30.5938 9.46875C30.6042 16.0313 30.5938 22.5938 30.5625 29.1562C30.5101 29.5429 30.3123 29.8242 29.9688 30C28.7526 30.071 27.5338 30.1022 26.3125 30.0938C25.1979 30.0729 24.0833 30.0521 22.9688 30.0312C23.0061 29.9503 23.0374 29.867 23.0625 29.7812C23.1042 25.0729 23.1042 20.3646 23.0625 15.6562C22.9688 15.3958 22.7917 15.2188 22.5312 15.125C18.9063 15.0938 15.2813 15.0833 11.6562 15.0938C11.6562 13.2188 11.6562 11.3438 11.6562 9.46875ZM2.34375 16.9688C8.63544 16.9688 14.9271 16.9688 21.2188 16.9688C21.2292 21.0313 21.2188 25.0938 21.1875 29.1562C21.1354 29.7083 20.8333 30.0104 20.2812 30.0625C14.6146 30.1042 8.94794 30.1042 3.28125 30.0625C2.72917 30.0104 2.42708 29.7083 2.375 29.1562C2.34375 25.0938 2.33333 21.0313 2.34375 16.9688Z" fill="current"/>
</g>
<g id="Group_2">
<path id="Vector_2" opacity="0.963" fill-rule="evenodd" clip-rule="evenodd" d="M6.72347 18.846C7.3061 18.7054 7.73316 18.8929 8.00472 19.4085C8.01385 20.1635 8.07635 20.9135 8.19222 21.6585C8.91335 23.6803 10.3404 24.5865 12.4735 24.3772C14.0744 23.9638 15.064 22.9534 15.4422 21.346C15.5057 20.7016 15.5473 20.0558 15.5672 19.4085C15.839 18.8825 16.266 18.7055 16.8485 18.8772C17.1089 18.971 17.286 19.148 17.3797 19.4085C17.779 22.2598 16.7477 24.3953 14.286 25.8147C11.9619 26.7965 9.83691 26.484 7.91097 24.8772C6.3103 23.2348 5.79988 21.3076 6.37972 19.096C6.50568 19.0211 6.62027 18.9378 6.72347 18.846Z" fill="current"/>
</g>
</g>
<defs>
<clipPath id="clip0_1727_1363">
<rect width="32" height="32" fill="current" transform="translate(0.5)"/>
</clipPath>
</defs>
</svg>
