<svg width="34" height="34" viewBox="0 0 34 34" fill="current" xmlns="http://www.w3.org/2000/svg">
<path opacity="0.95" d="M15.5938 0.843116V0.84375H15.5991H15.6045H15.6099H15.6152H15.6206H15.626H15.6313H15.6367H15.6421H15.6475H15.6528H15.6582H15.6636H15.6689H15.6743H15.6797H15.6851H15.6904H15.6958H15.7012H15.7065H15.7119H15.7173H15.7227H15.728H15.7334H15.7388H15.7441H15.7495H15.7549H15.7603H15.7656H15.771H15.7764H15.7817H15.7871H15.7925H15.7979H15.8032H15.8086H15.814H15.8193H15.8247H15.8301H15.8355H15.8408H15.8462H15.8516H15.8569H15.8623H15.8677H15.8731H15.8784H15.8838H15.8892H15.8945H15.8999H15.9053H15.9106H15.916H15.9214H15.9268H15.9321H15.9375H15.9429H15.9482H15.9536H15.959H15.9644H15.9697H15.9751H15.9805H15.9858H15.9912H15.9966H16.002H16.0073H16.0127H16.0181H16.0234H16.0288H16.0342H16.0396H16.0449H16.0503H16.0557H16.061H16.0664H16.0718H16.0772H16.0825H16.0879H16.0933H16.0986H16.104H16.1094H16.1148H16.1201H16.1255H16.1309H16.1362H16.1416H16.147H16.1523H16.1577H16.1631H16.1685H16.1738H16.1792H16.1846H16.1899H16.1953H16.2007H16.2061H16.2114H16.2168H16.2222H16.2275H16.2329H16.2383H16.2437H16.249H16.2544H16.2598H16.2651H16.2705H16.2759H16.2813H16.2866H16.292H16.2974H16.3027H16.3081H16.3135H16.3189H16.3242H16.3296H16.335H16.3403H16.3457H16.3511H16.3565H16.3618H16.3672H16.3726H16.3779H16.3833H16.3887H16.394H16.3994H16.4048H16.4102H16.4155H16.4209H16.4263H16.4316H16.437H16.4424H16.4478H16.4531H16.4585H16.4639H16.4692H16.4746H16.48H16.4854H16.4907H16.4961H16.5015H16.5068H16.5122H16.5176H16.523H16.5283H16.5337H16.5391H16.5444H16.5498H16.5552H16.5606H16.5659H16.5713H16.5767H16.582H16.5874H16.5928H16.5981H16.6035H16.6089H16.6143H16.6196H16.625H16.6304H16.6357H16.6411H16.6465H16.6519H16.6572H16.6626H16.668H16.6733H16.6787H16.6841H16.6895H16.6948H16.7002H16.7056H16.7109H16.7163H16.7217H16.7271H16.7324H16.7378H16.7432H16.7485H16.7539H16.7593H16.7647H16.77H16.7754H16.7808H16.7861H16.7915H16.7969H16.8022H16.8076H16.813H16.8184H16.8237H16.8291H16.8345H16.8398H16.8452H16.8506H16.856H16.8613H16.8667H16.8721H16.8774H16.8828H16.8882H16.8936H16.8989H16.9043H16.9097H16.915H16.9204H16.9258H16.9312H16.9365H16.9419H16.9473H16.9526H16.958H16.9634H16.9688H16.9741H16.9795H16.9849H16.9902H16.9956H17.001H17.0063H17.0117H17.0171H17.0225H17.0278H17.0332H17.0386H17.0439H17.0493H17.0547H17.0601H17.0654H17.0708H17.0762H17.0815H17.0869H17.0923H17.0977H17.103H17.1084H17.1138H17.1191H17.1245H17.1299H17.1353H17.1406H17.146H17.1514H17.1567H17.1621H17.1675H17.1728H17.1782H17.1836H17.189H17.1943H17.1997H17.2051H17.2104H17.2158H17.2212H17.2266H17.2319H17.2373H17.2427H17.248H17.2534H17.2588H17.2642H17.2695H17.2749H17.2803H17.2856H17.291H17.2964H17.3018H17.3071H17.3125H17.3179H17.3232H17.3286H17.334H17.3394H17.3447H17.3501H17.3555H17.3608H17.3662H17.3716H17.3769H17.3823H17.3877H17.3931H17.3984H17.4038H17.4092H17.4145H17.4199H17.4253H17.4307H17.436H17.4414H17.4468H17.4521H17.4575H17.4629H17.4683H17.4736H17.479H17.4844H17.4897H17.4951H17.5005H17.5059H17.5112H17.5166H17.522H17.5273H17.5327H17.5381H17.5435H17.5488H17.5542H17.5596H17.5649H17.5703H17.5757H17.581H17.5864H17.5918H17.5972H17.6025H17.6079H17.6133H17.6186H17.624H17.6294H17.6348H17.6401H17.6455H17.6509H17.6562H17.6616H17.667H17.6724H17.6777H17.6831H17.6885H17.6938H17.6992H17.7046H17.71H17.7153H17.7207H17.7261H17.7314H17.7368H17.7422H17.7476H17.7529H17.7583H17.7637H17.769H17.7744H17.7798H17.7852H17.7905H17.7959H17.8013H17.8066H17.812H17.8174H17.8227H17.8281H17.8335H17.8389H17.8442H17.8496H17.855H17.8603H17.8657H17.8711H17.8765H17.8818H17.8872H17.8926H17.8979H17.9033H17.9087H17.9141H17.9194H17.9248H17.9302H17.9355H17.9409H17.9463H17.9517H17.957H17.9624H17.9678H17.9731H17.9785H17.9839H17.9893H17.9946H18H18.0054H18.0107H18.0161H18.0215H18.0268H18.0322H18.0376H18.043H18.0483H18.0537H18.0591H18.0644H18.0698H18.0752H18.0806H18.0859H18.0913H18.0967H18.102H18.1074H18.1128H18.1182H18.1235H18.1289H18.1343H18.1396H18.145H18.1504H18.1558H18.1611H18.1665H18.1719H18.1772H18.1826H18.188H18.1934H18.1987H18.2041H18.2095H18.2148H18.2202H18.2256H18.231H18.2363H18.2417H18.2471H18.2524H18.2578H18.2632H18.2686H18.2739H18.2793H18.2847H18.29H18.2954H18.3008H18.3062H18.3115H18.3169H18.3223H18.3276H18.333H18.3384H18.3438H18.3515L18.3593 0.844716C24.6685 1.63384 29.1742 4.91066 31.8632 10.6658L31.8658 10.6714L31.8657 10.6714C32.5137 12.2565 32.9229 13.8932 33.0931 15.5812L33.0944 15.5938H33.0938V15.5991V15.6045V15.6099V15.6152V15.6206V15.626V15.6313V15.6367V15.6421V15.6475V15.6528V15.6582V15.6636V15.6689V15.6743V15.6797V15.6851V15.6904V15.6958V15.7012V15.7065V15.7119V15.7173V15.7227V15.728V15.7334V15.7388V15.7441V15.7495V15.7549V15.7603V15.7656V15.771V15.7764V15.7817V15.7871V15.7925V15.7979V15.8032V15.8086V15.814V15.8193V15.8247V15.8301V15.8355V15.8408V15.8462V15.8516V15.8569V15.8623V15.8677V15.8731V15.8784V15.8838V15.8892V15.8945V15.8999V15.9053V15.9106V15.916V15.9214V15.9268V15.9321V15.9375V15.9429V15.9482V15.9536V15.959V15.9644V15.9697V15.9751V15.9805V15.9858V15.9912V15.9966V16.002V16.0073V16.0127V16.0181V16.0234V16.0288V16.0342V16.0396V16.0449V16.0503V16.0557V16.061V16.0664V16.0718V16.0772V16.0825V16.0879V16.0933V16.0986V16.104V16.1094V16.1148V16.1201V16.1255V16.1309V16.1362V16.1416V16.147V16.1523V16.1577V16.1631V16.1685V16.1738V16.1792V16.1846V16.1899V16.1953V16.2007V16.2061V16.2114V16.2168V16.2222V16.2275V16.2329V16.2383V16.2437V16.249V16.2544V16.2598V16.2651V16.2705V16.2759V16.2813V16.2866V16.292V16.2974V16.3027V16.3081V16.3135V16.3189V16.3242V16.3296V16.335V16.3403V16.3457V16.3511V16.3565V16.3618V16.3672V16.3726V16.3779V16.3833V16.3887V16.394V16.3994V16.4048V16.4102V16.4155V16.4209V16.4263V16.4316V16.437V16.4424V16.4478V16.4531V16.4585V16.4639V16.4692V16.4746V16.48V16.4854V16.4907V16.4961V16.5015V16.5068V16.5122V16.5176V16.523V16.5283V16.5337V16.5391V16.5444V16.5498V16.5552V16.5606V16.5659V16.5713V16.5767V16.582V16.5874V16.5928V16.5981V16.6035V16.6089V16.6143V16.6196V16.625V16.6304V16.6357V16.6411V16.6465V16.6519V16.6572V16.6626V16.668V16.6733V16.6787V16.6841V16.6895V16.6948V16.7002V16.7056V16.7109V16.7163V16.7217V16.7271V16.7324V16.7378V16.7432V16.7485V16.7539V16.7593V16.7647V16.77V16.7754V16.7808V16.7861V16.7915V16.7969V16.8022V16.8076V16.813V16.8184V16.8237V16.8291V16.8345V16.8398V16.8452V16.8506V16.856V16.8613V16.8667V16.8721V16.8774V16.8828V16.8882V16.8936V16.8989V16.9043V16.9097V16.915V16.9204V16.9258V16.9312V16.9365V16.9419V16.9473V16.9526V16.958V16.9634V16.9688V16.9741V16.9795V16.9849V16.9902V16.9956V17.001V17.0063V17.0117V17.0171V17.0225V17.0278V17.0332V17.0386V17.0439V17.0493V17.0547V17.0601V17.0654V17.0708V17.0762V17.0815V17.0869V17.0923V17.0977V17.103V17.1084V17.1138V17.1191V17.1245V17.1299V17.1353V17.1406V17.146V17.1514V17.1567V17.1621V17.1675V17.1728V17.1782V17.1836V17.189V17.1943V17.1997V17.2051V17.2104V17.2158V17.2212V17.2266V17.2319V17.2373V17.2427V17.248V17.2534V17.2588V17.2642V17.2695V17.2749V17.2803V17.2856V17.291V17.2964V17.3018V17.3071V17.3125V17.3179V17.3232V17.3286V17.334V17.3394V17.3447V17.3501V17.3555V17.3608V17.3662V17.3716V17.3769V17.3823V17.3877V17.3931V17.3984V17.4038V17.4092V17.4145V17.4199V17.4253V17.4307V17.436V17.4414V17.4468V17.4521V17.4575V17.4629V17.4683V17.4736V17.479V17.4844V17.4897V17.4951V17.5005V17.5059V17.5112V17.5166V17.522V17.5273V17.5327V17.5381V17.5435V17.5488V17.5542V17.5596V17.5649V17.5703V17.5757V17.581V17.5864V17.5918V17.5972V17.6025V17.6079V17.6133V17.6186V17.624V17.6294V17.6348V17.6401V17.6455V17.6509V17.6562V17.6616V17.667V17.6724V17.6777V17.6831V17.6885V17.6938V17.6992V17.7046V17.71V17.7153V17.7207V17.7261V17.7314V17.7368V17.7422V17.7476V17.7529V17.7583V17.7637V17.769V17.7744V17.7798V17.7852V17.7905V17.7959V17.8013V17.8066V17.812V17.8174V17.8227V17.8281V17.8335V17.8389V17.8442V17.8496V17.855V17.8603V17.8657V17.8711V17.8765V17.8818V17.8872V17.8926V17.8979V17.9033V17.9087V17.9141V17.9194V17.9248V17.9302V17.9355V17.9409V17.9463V17.9517V17.957V17.9624V17.9678V17.9731V17.9785V17.9839V17.9893V17.9946V18V18.0054V18.0107V18.0161V18.0215V18.0268V18.0322V18.0376V18.043V18.0483V18.0537V18.0591V18.0644V18.0698V18.0752V18.0806V18.0859V18.0913V18.0967V18.102V18.1074V18.1128V18.1182V18.1235V18.1289V18.1343V18.1396V18.145V18.1504V18.1558V18.1611V18.1665V18.1719V18.1772V18.1826V18.188V18.1934V18.1987V18.2041V18.2095V18.2148V18.2202V18.2256V18.231V18.2363V18.2417V18.2471V18.2524V18.2578V18.2632V18.2686V18.2739V18.2793V18.2847V18.29V18.2954V18.3008V18.3062V18.3115V18.3169V18.3223V18.3276V18.333V18.3384V18.3438V18.3515L33.0928 18.3593C32.3036 24.6685 29.0268 29.1742 23.2717 31.8632L23.2661 31.8658L23.2661 31.8657C21.681 32.5137 20.0443 32.9229 18.3563 33.0931L18.3438 33.0944V33.0938H18.3384H18.333H18.3276H18.3223H18.3169H18.3115H18.3062H18.3008H18.2954H18.29H18.2847H18.2793H18.2739H18.2686H18.2632H18.2578H18.2524H18.2471H18.2417H18.2363H18.231H18.2256H18.2202H18.2148H18.2095H18.2041H18.1987H18.1934H18.188H18.1826H18.1772H18.1719H18.1665H18.1611H18.1558H18.1504H18.145H18.1396H18.1343H18.1289H18.1235H18.1182H18.1128H18.1074H18.102H18.0967H18.0913H18.0859H18.0806H18.0752H18.0698H18.0644H18.0591H18.0537H18.0483H18.043H18.0376H18.0322H18.0268H18.0215H18.0161H18.0107H18.0054H18H17.9946H17.9893H17.9839H17.9785H17.9731H17.9678H17.9624H17.957H17.9517H17.9463H17.9409H17.9355H17.9302H17.9248H17.9194H17.9141H17.9087H17.9033H17.8979H17.8926H17.8872H17.8818H17.8765H17.8711H17.8657H17.8603H17.855H17.8496H17.8442H17.8389H17.8335H17.8281H17.8227H17.8174H17.812H17.8066H17.8013H17.7959H17.7905H17.7852H17.7798H17.7744H17.769H17.7637H17.7583H17.7529H17.7476H17.7422H17.7368H17.7314H17.7261H17.7207H17.7153H17.71H17.7046H17.6992H17.6938H17.6885H17.6831H17.6777H17.6724H17.667H17.6616H17.6562H17.6509H17.6455H17.6401H17.6348H17.6294H17.624H17.6186H17.6133H17.6079H17.6025H17.5972H17.5918H17.5864H17.581H17.5757H17.5703H17.5649H17.5596H17.5542H17.5488H17.5435H17.5381H17.5327H17.5273H17.522H17.5166H17.5112H17.5059H17.5005H17.4951H17.4897H17.4844H17.479H17.4736H17.4683H17.4629H17.4575H17.4521H17.4468H17.4414H17.436H17.4307H17.4253H17.4199H17.4145H17.4092H17.4038H17.3984H17.3931H17.3877H17.3823H17.3769H17.3716H17.3662H17.3608H17.3555H17.3501H17.3447H17.3394H17.334H17.3286H17.3232H17.3179H17.3125H17.3071H17.3018H17.2964H17.291H17.2856H17.2803H17.2749H17.2695H17.2642H17.2588H17.2534H17.248H17.2427H17.2373H17.2319H17.2266H17.2212H17.2158H17.2104H17.2051H17.1997H17.1943H17.189H17.1836H17.1782H17.1728H17.1675H17.1621H17.1567H17.1514H17.146H17.1406H17.1353H17.1299H17.1245H17.1191H17.1138H17.1084H17.103H17.0977H17.0923H17.0869H17.0815H17.0762H17.0708H17.0654H17.0601H17.0547H17.0493H17.0439H17.0386H17.0332H17.0278H17.0225H17.0171H17.0117H17.0063H17.001H16.9956H16.9902H16.9849H16.9795H16.9741H16.9688H16.9634H16.958H16.9526H16.9473H16.9419H16.9365H16.9312H16.9258H16.9204H16.915H16.9097H16.9043H16.8989H16.8936H16.8882H16.8828H16.8774H16.8721H16.8667H16.8613H16.856H16.8506H16.8452H16.8398H16.8345H16.8291H16.8237H16.8184H16.813H16.8076H16.8022H16.7969H16.7915H16.7861H16.7808H16.7754H16.77H16.7647H16.7593H16.7539H16.7485H16.7432H16.7378H16.7324H16.7271H16.7217H16.7163H16.7109H16.7056H16.7002H16.6948H16.6895H16.6841H16.6787H16.6733H16.668H16.6626H16.6572H16.6519H16.6465H16.6411H16.6357H16.6304H16.625H16.6196H16.6143H16.6089H16.6035H16.5981H16.5928H16.5874H16.582H16.5767H16.5713H16.5659H16.5606H16.5552H16.5498H16.5444H16.5391H16.5337H16.5283H16.523H16.5176H16.5122H16.5068H16.5015H16.4961H16.4907H16.4854H16.48H16.4746H16.4692H16.4639H16.4585H16.4531H16.4478H16.4424H16.437H16.4316H16.4263H16.4209H16.4155H16.4102H16.4048H16.3994H16.394H16.3887H16.3833H16.3779H16.3726H16.3672H16.3618H16.3565H16.3511H16.3457H16.3403H16.335H16.3296H16.3242H16.3189H16.3135H16.3081H16.3027H16.2974H16.292H16.2866H16.2813H16.2759H16.2705H16.2651H16.2598H16.2544H16.249H16.2437H16.2383H16.2329H16.2275H16.2222H16.2168H16.2114H16.2061H16.2007H16.1953H16.1899H16.1846H16.1792H16.1738H16.1685H16.1631H16.1577H16.1523H16.147H16.1416H16.1362H16.1309H16.1255H16.1201H16.1148H16.1094H16.104H16.0986H16.0933H16.0879H16.0825H16.0772H16.0718H16.0664H16.061H16.0557H16.0503H16.0449H16.0396H16.0342H16.0288H16.0234H16.0181H16.0127H16.0073H16.002H15.9966H15.9912H15.9858H15.9805H15.9751H15.9697H15.9644H15.959H15.9536H15.9482H15.9429H15.9375H15.9321H15.9268H15.9214H15.916H15.9106H15.9053H15.8999H15.8945H15.8892H15.8838H15.8784H15.8731H15.8677H15.8623H15.8569H15.8516H15.8462H15.8408H15.8355H15.8301H15.8247H15.8193H15.814H15.8086H15.8032H15.7979H15.7925H15.7871H15.7817H15.7764H15.771H15.7656H15.7603H15.7549H15.7495H15.7441H15.7388H15.7334H15.728H15.7227H15.7173H15.7119H15.7065H15.7012H15.6958H15.6904H15.6851H15.6797H15.6743H15.6689H15.6636H15.6582H15.6528H15.6475H15.6421H15.6367H15.6313H15.626H15.6206H15.6152H15.6099H15.6045H15.5991H15.5938H15.586L15.5782 33.0928C9.26903 32.3036 4.76334 29.0268 2.07425 23.2717L2.07166 23.2661L2.0718 23.2661C1.42379 21.681 1.01459 20.0443 0.844381 18.3563L0.843116 18.3438L15.5938 0.843116ZM15.5938 0.843116L15.5812 0.844381M15.5938 0.843116L15.5812 0.844381M15.5812 0.844381L15.5938 0.96875M15.5812 0.844381L15.5938 0.96875M15.5938 0.96875C13.9178 1.13775 12.2928 1.544 10.7188 2.1875M15.5938 0.96875L0.96875 15.5938C1.75255 9.32713 5.00255 4.85838 10.7188 2.1875M0.84375 15.586L0.844716 15.5782L0.84375 15.586ZM0.84375 15.586V15.5938M0.84375 15.586V15.5938M0.84375 15.5938V15.5991M0.84375 15.5938V15.5991M10.7188 2.1875L10.6714 2.07166L10.6658 2.07425L10.7188 2.1875ZM0.84375 15.5991V15.6045M0.84375 15.5991V15.6045M0.84375 15.6045V15.6099M0.84375 15.6045V15.6099M0.84375 15.6099V15.6152M0.84375 15.6099V15.6152M0.84375 15.6152V15.6206M0.84375 15.6152V15.6206M0.84375 15.6206V15.626M0.84375 15.6206V15.626M0.84375 15.626V15.6313M0.84375 15.626V15.6313M0.84375 15.6313V15.6367M0.84375 15.6313V15.6367M0.84375 15.6367V15.6421M0.84375 15.6367V15.6421M0.84375 15.6421V15.6475M0.84375 15.6421V15.6475M0.84375 15.6475V15.6528M0.84375 15.6475V15.6528M0.84375 15.6528V15.6582M0.84375 15.6528V15.6582M0.84375 15.6582V15.6636M0.84375 15.6582V15.6636M0.84375 15.6636V15.6689M0.84375 15.6636V15.6689M0.84375 15.6689V15.6743M0.84375 15.6689V15.6743M0.84375 15.6743V15.6797M0.84375 15.6743V15.6797M0.84375 15.6797V15.6851M0.84375 15.6797V15.6851M0.84375 15.6851V15.6904M0.84375 15.6851V15.6904M0.84375 15.6904V15.6958M0.84375 15.6904V15.6958M0.84375 15.6958V15.7012M0.84375 15.6958V15.7012M0.84375 15.7012V15.7065M0.84375 15.7012V15.7065M0.84375 15.7065V15.7119M0.84375 15.7065V15.7119M0.84375 15.7119V15.7173M0.84375 15.7119V15.7173M0.84375 15.7173V15.7227M0.84375 15.7173V15.7227M0.84375 15.7227V15.728M0.84375 15.7227V15.728M0.84375 15.728V15.7334M0.84375 15.728V15.7334M0.84375 15.7334V15.7388M0.84375 15.7334V15.7388M0.84375 15.7388V15.7441M0.84375 15.7388V15.7441M0.84375 15.7441V15.7495M0.84375 15.7441V15.7495M0.84375 15.7495V15.7549M0.84375 15.7495V15.7549M0.84375 15.7549V15.7603M0.84375 15.7549V15.7603M0.84375 15.7603V15.7656M0.84375 15.7603V15.7656M0.84375 15.7656V15.771M0.84375 15.7656V15.771M0.84375 15.771V15.7764M0.84375 15.771V15.7764M0.84375 15.7764V15.7817M0.84375 15.7764V15.7817M0.84375 15.7817V15.7871M0.84375 15.7817V15.7871M0.84375 15.7871V15.7925M0.84375 15.7871V15.7925M0.84375 15.7925V15.7979M0.84375 15.7925V15.7979M0.84375 15.7979V15.8032M0.84375 15.7979V15.8032M0.84375 15.8032V15.8086M0.84375 15.8032V15.8086M0.84375 15.8086V15.814M0.84375 15.8086V15.814M0.84375 15.814V15.8193M0.84375 15.814V15.8193M0.84375 15.8193V15.8247M0.84375 15.8193V15.8247M0.84375 15.8247V15.8301M0.84375 15.8247V15.8301M0.84375 15.8301V15.8355M0.84375 15.8301V15.8355M0.84375 15.8355V15.8408M0.84375 15.8355V15.8408M0.84375 15.8408V15.8462M0.84375 15.8408V15.8462M0.84375 15.8462V15.8516M0.84375 15.8462V15.8516M0.84375 15.8516V15.8569M0.84375 15.8516V15.8569M0.84375 15.8569V15.8623M0.84375 15.8569V15.8623M0.84375 15.8623V15.8677M0.84375 15.8623V15.8677M0.84375 15.8677V15.8731M0.84375 15.8677V15.8731M0.84375 15.8731V15.8784M0.84375 15.8731V15.8784M0.84375 15.8784V15.8838M0.84375 15.8784V15.8838M0.84375 15.8838V15.8892M0.84375 15.8838V15.8892M0.84375 15.8892V15.8945M0.84375 15.8892V15.8945M0.84375 15.8945V15.8999M0.84375 15.8945V15.8999M0.84375 15.8999V15.9053M0.84375 15.8999V15.9053M0.84375 15.9053V15.9106M0.84375 15.9053V15.9106M0.84375 15.9106V15.916M0.84375 15.9106V15.916M0.84375 15.916V15.9214M0.84375 15.916V15.9214M0.84375 15.9214V15.9268M0.84375 15.9214V15.9268M0.84375 15.9268V15.9321M0.84375 15.9268V15.9321M0.84375 15.9321V15.9375M0.84375 15.9321V15.9375M0.84375 15.9375V15.9429M0.84375 15.9375V15.9429M0.84375 15.9429V15.9482M0.84375 15.9429V15.9482M0.84375 15.9482V15.9536M0.84375 15.9482V15.9536M0.84375 15.9536V15.959M0.84375 15.9536V15.959M0.84375 15.959V15.9644M0.84375 15.959V15.9644M0.84375 15.9644V15.9697M0.84375 15.9644V15.9697M0.84375 15.9697V15.9751M0.84375 15.9697V15.9751M0.84375 15.9751V15.9805M0.84375 15.9751V15.9805M0.84375 15.9805V15.9858M0.84375 15.9805V15.9858M0.84375 15.9858V15.9912M0.84375 15.9858V15.9912M0.84375 15.9912V15.9966M0.84375 15.9912V15.9966M0.84375 15.9966V16.002M0.84375 15.9966V16.002M0.84375 16.002V16.0073M0.84375 16.002V16.0073M0.84375 16.0073V16.0127M0.84375 16.0073V16.0127M0.84375 16.0127V16.0181M0.84375 16.0127V16.0181M0.84375 16.0181V16.0234M0.84375 16.0181V16.0234M0.84375 16.0234V16.0288M0.84375 16.0234V16.0288M0.84375 16.0288V16.0342M0.84375 16.0288V16.0342M0.84375 16.0342V16.0396M0.84375 16.0342V16.0396M0.84375 16.0396V16.0449M0.84375 16.0396V16.0449M0.84375 16.0449V16.0503M0.84375 16.0449V16.0503M0.84375 16.0503V16.0557M0.84375 16.0503V16.0557M0.84375 16.0557V16.061M0.84375 16.0557V16.061M0.84375 16.061V16.0664M0.84375 16.061V16.0664M0.84375 16.0664V16.0718M0.84375 16.0664V16.0718M0.84375 16.0718V16.0772M0.84375 16.0718V16.0772M0.84375 16.0772V16.0825M0.84375 16.0772V16.0825M0.84375 16.0825V16.0879M0.84375 16.0825V16.0879M0.84375 16.0879V16.0933M0.84375 16.0879V16.0933M0.84375 16.0933V16.0986M0.84375 16.0933V16.0986M0.84375 16.0986V16.104M0.84375 16.0986V16.104M0.84375 16.104V16.1094M0.84375 16.104V16.1094M0.84375 16.1094V16.1148M0.84375 16.1094V16.1148M0.84375 16.1148V16.1201M0.84375 16.1148V16.1201M0.84375 16.1201V16.1255M0.84375 16.1201V16.1255M0.84375 16.1255V16.1309M0.84375 16.1255V16.1309M0.84375 16.1309V16.1362M0.84375 16.1309V16.1362M0.84375 16.1362V16.1416M0.84375 16.1362V16.1416M0.84375 16.1416V16.147M0.84375 16.1416V16.147M0.84375 16.147V16.1523M0.84375 16.147V16.1523M0.84375 16.1523V16.1577M0.84375 16.1523V16.1577M0.84375 16.1577V16.1631M0.84375 16.1577V16.1631M0.84375 16.1631V16.1685M0.84375 16.1631V16.1685M0.84375 16.1685V16.1738M0.84375 16.1685V16.1738M0.84375 16.1738V16.1792M0.84375 16.1738V16.1792M0.84375 16.1792V16.1846M0.84375 16.1792V16.1846M0.84375 16.1846V16.1899M0.84375 16.1846V16.1899M0.84375 16.1899V16.1953M0.84375 16.1899V16.1953M0.84375 16.1953V16.2007M0.84375 16.1953V16.2007M0.84375 16.2007V16.2061M0.84375 16.2007V16.2061M0.84375 16.2061V16.2114M0.84375 16.2061V16.2114M0.84375 16.2114V16.2168M0.84375 16.2114V16.2168M0.84375 16.2168V16.2222M0.84375 16.2168V16.2222M0.84375 16.2222V16.2275M0.84375 16.2222V16.2275M0.84375 16.2275V16.2329M0.84375 16.2275V16.2329M0.84375 16.2329V16.2383M0.84375 16.2329V16.2383M0.84375 16.2383V16.2437M0.84375 16.2383V16.2437M0.84375 16.2437V16.249M0.84375 16.2437V16.249M0.84375 16.249V16.2544M0.84375 16.249V16.2544M0.84375 16.2544V16.2598M0.84375 16.2544V16.2598M0.84375 16.2598V16.2651M0.84375 16.2598V16.2651M0.84375 16.2651V16.2705M0.84375 16.2651V16.2705M0.84375 16.2705V16.2759M0.84375 16.2705V16.2759M0.84375 16.2759V16.2813M0.84375 16.2759V16.2813M0.84375 16.2813V16.2866M0.84375 16.2813V16.2866M0.84375 16.2866V16.292M0.84375 16.2866V16.292M0.84375 16.292V16.2974M0.84375 16.292V16.2974M0.84375 16.2974V16.3027M0.84375 16.2974V16.3027M0.84375 16.3027V16.3081M0.84375 16.3027V16.3081M0.84375 16.3081V16.3135M0.84375 16.3081V16.3135M0.84375 16.3135V16.3189M0.84375 16.3135V16.3189M0.84375 16.3189V16.3242M0.84375 16.3189V16.3242M0.84375 16.3242V16.3296M0.84375 16.3242V16.3296M0.84375 16.3296V16.335M0.84375 16.3296V16.335M0.84375 16.335V16.3403M0.84375 16.335V16.3403M0.84375 16.3403V16.3457M0.84375 16.3403V16.3457M0.84375 16.3457V16.3511M0.84375 16.3457V16.3511M0.84375 16.3511V16.3565M0.84375 16.3511V16.3565M0.84375 16.3565V16.3618M0.84375 16.3565V16.3618M0.84375 16.3618V16.3672M0.84375 16.3618V16.3672M0.84375 16.3672V16.3726M0.84375 16.3672V16.3726M0.84375 16.3726V16.3779M0.84375 16.3726V16.3779M0.84375 16.3779V16.3833M0.84375 16.3779V16.3833M0.84375 16.3833V16.3887M0.84375 16.3833V16.3887M0.84375 16.3887V16.394M0.84375 16.3887V16.394M0.84375 16.394V16.3994M0.84375 16.394V16.3994M0.84375 16.3994V16.4048M0.84375 16.3994V16.4048M0.84375 16.4048V16.4102M0.84375 16.4048V16.4102M0.84375 16.4102V16.4155M0.84375 16.4102V16.4155M0.84375 16.4155V16.4209M0.84375 16.4155V16.4209M0.84375 16.4209V16.4263M0.84375 16.4209V16.4263M0.84375 16.4263V16.4316M0.84375 16.4263V16.4316M0.84375 16.4316V16.437M0.84375 16.4316V16.437M0.84375 16.437V16.4424M0.84375 16.437V16.4424M0.84375 16.4424V16.4478M0.84375 16.4424V16.4478M0.84375 16.4478V16.4531M0.84375 16.4478V16.4531M0.84375 16.4531V16.4585M0.84375 16.4531V16.4585M0.84375 16.4585V16.4639M0.84375 16.4585V16.4639M0.84375 16.4639V16.4692M0.84375 16.4639V16.4692M0.84375 16.4692V16.4746M0.84375 16.4692V16.4746M0.84375 16.4746V16.48M0.84375 16.4746V16.48M0.84375 16.48V16.4854M0.84375 16.48V16.4854M0.84375 16.4854V16.4907M0.84375 16.4854V16.4907M0.84375 16.4907V16.4961M0.84375 16.4907V16.4961M0.84375 16.4961V16.5015M0.84375 16.4961V16.5015M0.84375 16.5015V16.5068M0.84375 16.5015V16.5068M0.84375 16.5068V16.5122M0.84375 16.5068V16.5122M0.84375 16.5122V16.5176M0.84375 16.5122V16.5176M0.84375 16.5176V16.523M0.84375 16.5176V16.523M0.84375 16.523V16.5283M0.84375 16.523V16.5283M0.84375 16.5283V16.5337M0.84375 16.5283V16.5337M0.84375 16.5337V16.5391M0.84375 16.5337V16.5391M0.84375 16.5391V16.5444M0.84375 16.5391V16.5444M0.84375 16.5444V16.5498M0.84375 16.5444V16.5498M0.84375 16.5498V16.5552M0.84375 16.5498V16.5552M0.84375 16.5552V16.5606M0.84375 16.5552V16.5606M0.84375 16.5606V16.5659M0.84375 16.5606V16.5659M0.84375 16.5659V16.5713M0.84375 16.5659V16.5713M0.84375 16.5713V16.5767M0.84375 16.5713V16.5767M0.84375 16.5767V16.582M0.84375 16.5767V16.582M0.84375 16.582V16.5874M0.84375 16.582V16.5874M0.84375 16.5874V16.5928M0.84375 16.5874V16.5928M0.84375 16.5928V16.5981M0.84375 16.5928V16.5981M0.84375 16.5981V16.6035M0.84375 16.5981V16.6035M0.84375 16.6035V16.6089M0.84375 16.6035V16.6089M0.84375 16.6089V16.6143M0.84375 16.6089V16.6143M0.84375 16.6143V16.6196M0.84375 16.6143V16.6196M0.84375 16.6196V16.625M0.84375 16.6196V16.625M0.84375 16.625V16.6304M0.84375 16.625V16.6304M0.84375 16.6304V16.6357M0.84375 16.6304V16.6357M0.84375 16.6357V16.6411M0.84375 16.6357V16.6411M0.84375 16.6411V16.6465M0.84375 16.6411V16.6465M0.84375 16.6465V16.6519M0.84375 16.6465V16.6519M0.84375 16.6519V16.6572M0.84375 16.6519V16.6572M0.84375 16.6572V16.6626M0.84375 16.6572V16.6626M0.84375 16.6626V16.668M0.84375 16.6626V16.668M0.84375 16.668V16.6733M0.84375 16.668V16.6733M0.84375 16.6733V16.6787M0.84375 16.6733V16.6787M0.84375 16.6787V16.6841M0.84375 16.6787V16.6841M0.84375 16.6841V16.6895M0.84375 16.6841V16.6895M0.84375 16.6895V16.6948M0.84375 16.6895V16.6948M0.84375 16.6948V16.7002M0.84375 16.6948V16.7002M0.84375 16.7002V16.7056M0.84375 16.7002V16.7056M0.84375 16.7056V16.7109M0.84375 16.7056V16.7109M0.84375 16.7109V16.7163M0.84375 16.7109V16.7163M0.84375 16.7163V16.7217M0.84375 16.7163V16.7217M0.84375 16.7217V16.7271M0.84375 16.7217V16.7271M0.84375 16.7271V16.7324M0.84375 16.7271V16.7324M0.84375 16.7324V16.7378M0.84375 16.7324V16.7378M0.84375 16.7378V16.7432M0.84375 16.7378V16.7432M0.84375 16.7432V16.7485M0.84375 16.7432V16.7485M0.84375 16.7485V16.7539M0.84375 16.7485V16.7539M0.84375 16.7539V16.7593M0.84375 16.7539V16.7593M0.84375 16.7593V16.7647M0.84375 16.7593V16.7647M0.84375 16.7647V16.77M0.84375 16.7647V16.77M0.84375 16.77V16.7754M0.84375 16.77V16.7754M0.84375 16.7754V16.7808M0.84375 16.7754V16.7808M0.84375 16.7808V16.7861M0.84375 16.7808V16.7861M0.84375 16.7861V16.7915M0.84375 16.7861V16.7915M0.84375 16.7915V16.7969M0.84375 16.7915V16.7969M0.84375 16.7969V16.8022M0.84375 16.7969V16.8022M0.84375 16.8022V16.8076M0.84375 16.8022V16.8076M0.84375 16.8076V16.813M0.84375 16.8076V16.813M0.84375 16.813V16.8184M0.84375 16.813V16.8184M0.84375 16.8184V16.8237M0.84375 16.8184V16.8237M0.84375 16.8237V16.8291M0.84375 16.8237V16.8291M0.84375 16.8291V16.8345M0.84375 16.8291V16.8345M0.84375 16.8345V16.8398M0.84375 16.8345V16.8398M0.84375 16.8398V16.8452M0.84375 16.8398V16.8452M0.84375 16.8452V16.8506M0.84375 16.8452V16.8506M0.84375 16.8506V16.856M0.84375 16.8506V16.856M0.84375 16.856V16.8613M0.84375 16.856V16.8613M0.84375 16.8613V16.8667M0.84375 16.8613V16.8667M0.84375 16.8667V16.8721M0.84375 16.8667V16.8721M0.84375 16.8721V16.8774M0.84375 16.8721V16.8774M0.84375 16.8774V16.8828M0.84375 16.8774V16.8828M0.84375 16.8828V16.8882M0.84375 16.8828V16.8882M0.84375 16.8882V16.8936M0.84375 16.8882V16.8936M0.84375 16.8936V16.8989M0.84375 16.8936V16.8989M0.84375 16.8989V16.9043M0.84375 16.8989V16.9043M0.84375 16.9043V16.9097M0.84375 16.9043V16.9097M0.84375 16.9097V16.915M0.84375 16.9097V16.915M0.84375 16.915V16.9204M0.84375 16.915V16.9204M0.84375 16.9204V16.9258M0.84375 16.9204V16.9258M0.84375 16.9258V16.9312M0.84375 16.9258V16.9312M0.84375 16.9312V16.9365M0.84375 16.9312V16.9365M0.84375 16.9365V16.9419M0.84375 16.9365V16.9419M0.84375 16.9419V16.9473M0.84375 16.9419V16.9473M0.84375 16.9473V16.9526M0.84375 16.9473V16.9526M0.84375 16.9526V16.958M0.84375 16.9526V16.958M0.84375 16.958V16.9634M0.84375 16.958V16.9634M0.84375 16.9634V16.9688M0.84375 16.9634V16.9688M0.84375 16.9688V16.9741M0.84375 16.9688V16.9741M0.84375 16.9741V16.9795M0.84375 16.9741V16.9795M0.84375 16.9795V16.9849M0.84375 16.9795V16.9849M0.84375 16.9849V16.9902M0.84375 16.9849V16.9902M0.84375 16.9902V16.9956M0.84375 16.9902V16.9956M0.84375 16.9956V17.001M0.84375 16.9956V17.001M0.84375 17.001V17.0063M0.84375 17.001V17.0063M0.84375 17.0063V17.0117M0.84375 17.0063V17.0117M0.84375 17.0117V17.0171M0.84375 17.0117V17.0171M0.84375 17.0171V17.0225M0.84375 17.0171V17.0225M0.84375 17.0225V17.0278M0.84375 17.0225V17.0278M0.84375 17.0278V17.0332M0.84375 17.0278V17.0332M0.84375 17.0332V17.0386M0.84375 17.0332V17.0386M0.84375 17.0386V17.0439M0.84375 17.0386V17.0439M0.84375 17.0439V17.0493M0.84375 17.0439V17.0493M0.84375 17.0493V17.0547M0.84375 17.0493V17.0547M0.84375 17.0547V17.0601M0.84375 17.0547V17.0601M0.84375 17.0601V17.0654M0.84375 17.0601V17.0654M0.84375 17.0654V17.0708M0.84375 17.0654V17.0708M0.84375 17.0708V17.0762M0.84375 17.0708V17.0762M0.84375 17.0762V17.0815M0.84375 17.0762V17.0815M0.84375 17.0815V17.0869M0.84375 17.0815V17.0869M0.84375 17.0869V17.0923M0.84375 17.0869V17.0923M0.84375 17.0923V17.0977M0.84375 17.0923V17.0977M0.84375 17.0977V17.103M0.84375 17.0977V17.103M0.84375 17.103V17.1084M0.84375 17.103V17.1084M0.84375 17.1084V17.1138M0.84375 17.1084V17.1138M0.84375 17.1138V17.1191M0.84375 17.1138V17.1191M0.84375 17.1191V17.1245M0.84375 17.1191V17.1245M0.84375 17.1245V17.1299M0.84375 17.1245V17.1299M0.84375 17.1299V17.1353M0.84375 17.1299V17.1353M0.84375 17.1353V17.1406M0.84375 17.1353V17.1406M0.84375 17.1406V17.146M0.84375 17.1406V17.146M0.84375 17.146V17.1514M0.84375 17.146V17.1514M0.84375 17.1514V17.1567M0.84375 17.1514V17.1567M0.84375 17.1567V17.1621M0.84375 17.1567V17.1621M0.84375 17.1621V17.1675M0.84375 17.1621V17.1675M0.84375 17.1675V17.1728M0.84375 17.1675V17.1728M0.84375 17.1728V17.1782M0.84375 17.1728V17.1782M0.84375 17.1782V17.1836M0.84375 17.1782V17.1836M0.84375 17.1836V17.189M0.84375 17.1836V17.189M0.84375 17.189V17.1943M0.84375 17.189V17.1943M0.84375 17.1943V17.1997M0.84375 17.1943V17.1997M0.84375 17.1997V17.2051M0.84375 17.1997V17.2051M0.84375 17.2051V17.2104M0.84375 17.2051V17.2104M0.84375 17.2104V17.2158M0.84375 17.2104V17.2158M0.84375 17.2158V17.2212M0.84375 17.2158V17.2212M0.84375 17.2212V17.2266M0.84375 17.2212V17.2266M0.84375 17.2266V17.2319M0.84375 17.2266V17.2319M0.84375 17.2319V17.2373M0.84375 17.2319V17.2373M0.84375 17.2373V17.2427M0.84375 17.2373V17.2427M0.84375 17.2427V17.248M0.84375 17.2427V17.248M0.84375 17.248V17.2534M0.84375 17.248V17.2534M0.84375 17.2534V17.2588M0.84375 17.2534V17.2588M0.84375 17.2588V17.2642M0.84375 17.2588V17.2642M0.84375 17.2642V17.2695M0.84375 17.2642V17.2695M0.84375 17.2695V17.2749M0.84375 17.2695V17.2749M0.84375 17.2749V17.2803M0.84375 17.2749V17.2803M0.84375 17.2803V17.2856M0.84375 17.2803V17.2856M0.84375 17.2856V17.291M0.84375 17.2856V17.291M0.84375 17.291V17.2964M0.84375 17.291V17.2964M0.84375 17.2964V17.3018M0.84375 17.2964V17.3018M0.84375 17.3018V17.3071M0.84375 17.3018V17.3071M0.84375 17.3071V17.3125M0.84375 17.3071V17.3125M0.84375 17.3125V17.3179M0.84375 17.3125V17.3179M0.84375 17.3179V17.3232M0.84375 17.3179V17.3232M0.84375 17.3232V17.3286M0.84375 17.3232V17.3286M0.84375 17.3286V17.334M0.84375 17.3286V17.334M0.84375 17.334V17.3394M0.84375 17.334V17.3394M0.84375 17.3394V17.3447M0.84375 17.3394V17.3447M0.84375 17.3447V17.3501M0.84375 17.3447V17.3501M0.84375 17.3501V17.3555M0.84375 17.3501V17.3555M0.84375 17.3555V17.3608M0.84375 17.3555V17.3608M0.84375 17.3608V17.3662M0.84375 17.3608V17.3662M0.84375 17.3662V17.3716M0.84375 17.3662V17.3716M0.84375 17.3716V17.3769M0.84375 17.3716V17.3769M0.84375 17.3769V17.3823M0.84375 17.3769V17.3823M0.84375 17.3823V17.3877M0.84375 17.3823V17.3877M0.84375 17.3877V17.3931M0.84375 17.3877V17.3931M0.84375 17.3931V17.3984M0.84375 17.3931V17.3984M0.84375 17.3984V17.4038M0.84375 17.3984V17.4038M0.84375 17.4038V17.4092M0.84375 17.4038V17.4092M0.84375 17.4092V17.4145M0.84375 17.4092V17.4145M0.84375 17.4145V17.4199M0.84375 17.4145V17.4199M0.84375 17.4199V17.4253M0.84375 17.4199V17.4253M0.84375 17.4253V17.4307M0.84375 17.4253V17.4307M0.84375 17.4307V17.436M0.84375 17.4307V17.436M0.84375 17.436V17.4414M0.84375 17.436V17.4414M0.84375 17.4414V17.4468M0.84375 17.4414V17.4468M0.84375 17.4468V17.4521M0.84375 17.4468V17.4521M0.84375 17.4521V17.4575M0.84375 17.4521V17.4575M0.84375 17.4575V17.4629M0.84375 17.4575V17.4629M0.84375 17.4629V17.4683M0.84375 17.4629V17.4683M0.84375 17.4683V17.4736M0.84375 17.4683V17.4736M0.84375 17.4736V17.479M0.84375 17.4736V17.479M0.84375 17.479V17.4844M0.84375 17.479V17.4844M0.84375 17.4844V17.4897M0.84375 17.4844V17.4897M0.84375 17.4897V17.4951M0.84375 17.4897V17.4951M0.84375 17.4951V17.5005M0.84375 17.4951V17.5005M0.84375 17.5005V17.5059M0.84375 17.5005V17.5059M0.84375 17.5059V17.5112M0.84375 17.5059V17.5112M0.84375 17.5112V17.5166M0.84375 17.5112V17.5166M0.84375 17.5166V17.522M0.84375 17.5166V17.522M0.84375 17.522V17.5273M0.84375 17.522V17.5273M0.84375 17.5273V17.5327M0.84375 17.5273V17.5327M0.84375 17.5327V17.5381M0.84375 17.5327V17.5381M0.84375 17.5381V17.5435M0.84375 17.5381V17.5435M0.84375 17.5435V17.5488M0.84375 17.5435V17.5488M0.84375 17.5488V17.5542M0.84375 17.5488V17.5542M0.84375 17.5542V17.5596M0.84375 17.5542V17.5596M0.84375 17.5596V17.5649M0.84375 17.5596V17.5649M0.84375 17.5649V17.5703M0.84375 17.5649V17.5703M0.84375 17.5703V17.5757M0.84375 17.5703V17.5757M0.84375 17.5757V17.581M0.84375 17.5757V17.581M0.84375 17.581V17.5864M0.84375 17.581V17.5864M0.84375 17.5864V17.5918M0.84375 17.5864V17.5918M0.84375 17.5918V17.5972M0.84375 17.5918V17.5972M0.84375 17.5972V17.6025M0.84375 17.5972V17.6025M0.84375 17.6025V17.6079M0.84375 17.6025V17.6079M0.84375 17.6079V17.6133M0.84375 17.6079V17.6133M0.84375 17.6133V17.6186M0.84375 17.6133V17.6186M0.84375 17.6186V17.624M0.84375 17.6186V17.624M0.84375 17.624V17.6294M0.84375 17.624V17.6294M0.84375 17.6294V17.6348M0.84375 17.6294V17.6348M0.84375 17.6348V17.6401M0.84375 17.6348V17.6401M0.84375 17.6401V17.6455M0.84375 17.6401V17.6455M0.84375 17.6455V17.6509M0.84375 17.6455V17.6509M0.84375 17.6509V17.6562M0.84375 17.6509V17.6562M0.84375 17.6562V17.6616M0.84375 17.6562V17.6616M0.84375 17.6616V17.667M0.84375 17.6616V17.667M0.84375 17.667V17.6724M0.84375 17.667V17.6724M0.84375 17.6724V17.6777M0.84375 17.6724V17.6777M0.84375 17.6777V17.6831M0.84375 17.6777V17.6831M0.84375 17.6831V17.6885M0.84375 17.6831V17.6885M0.84375 17.6885V17.6938M0.84375 17.6885V17.6938M0.84375 17.6938V17.6992M0.84375 17.6938V17.6992M0.84375 17.6992V17.7046M0.84375 17.6992V17.7046M0.84375 17.7046V17.71M0.84375 17.7046V17.71M0.84375 17.71V17.7153M0.84375 17.71V17.7153M0.84375 17.7153V17.7207M0.84375 17.7153V17.7207M0.84375 17.7207V17.7261M0.84375 17.7207V17.7261M0.84375 17.7261V17.7314M0.84375 17.7261V17.7314M0.84375 17.7314V17.7368M0.84375 17.7314V17.7368M0.84375 17.7368V17.7422M0.84375 17.7368V17.7422M0.84375 17.7422V17.7476M0.84375 17.7422V17.7476M0.84375 17.7476V17.7529M0.84375 17.7476V17.7529M0.84375 17.7529V17.7583M0.84375 17.7529V17.7583M0.84375 17.7583V17.7637M0.84375 17.7583V17.7637M0.84375 17.7637V17.769M0.84375 17.7637V17.769M0.84375 17.769V17.7744M0.84375 17.769V17.7744M0.84375 17.7744V17.7798M0.84375 17.7744V17.7798M0.84375 17.7798V17.7852M0.84375 17.7798V17.7852M0.84375 17.7852V17.7905M0.84375 17.7852V17.7905M0.84375 17.7905V17.7959M0.84375 17.7905V17.7959M0.84375 17.7959V17.8013M0.84375 17.7959V17.8013M0.84375 17.8013V17.8066M0.84375 17.8013V17.8066M0.84375 17.8066V17.812M0.84375 17.8066V17.812M0.84375 17.812V17.8174M0.84375 17.812V17.8174M0.84375 17.8174V17.8227M0.84375 17.8174V17.8227M0.84375 17.8227V17.8281M0.84375 17.8227V17.8281M0.84375 17.8281V17.8335M0.84375 17.8281V17.8335M0.84375 17.8335V17.8389M0.84375 17.8335V17.8389M0.84375 17.8389V17.8442M0.84375 17.8389V17.8442M0.84375 17.8442V17.8496M0.84375 17.8442V17.8496M0.84375 17.8496V17.855V17.8496Z" fill="none" stroke="current" stroke-width="0.25"/>
<path opacity="0.945" d="M10.7704 11.9675L10.7607 11.9685L10.7513 11.9709C9.87508 12.1976 9.18301 12.5957 8.68403 13.1706C8.18519 13.7454 7.8872 14.4877 7.78347 15.3895C7.75684 15.6019 7.78252 15.7954 7.86946 15.963C7.95659 16.1311 8.09947 16.2621 8.28775 16.3593L8.29863 16.3649L8.31039 16.3683C8.5636 16.4414 8.79535 16.4408 8.99323 16.3451C9.1914 16.2492 9.334 16.0683 9.43007 15.8254L9.43809 15.8051L9.43877 15.7834C9.45513 15.26 9.61164 14.787 9.90895 14.3615C10.4033 13.8939 10.8883 13.6677 11.3654 13.6581C11.8421 13.6486 12.3348 13.8549 12.8459 14.3017C13.2053 14.7984 13.4028 15.355 13.439 15.9743L13.4418 16.0217L13.4754 16.0553L13.5848 16.1647L13.6942 16.2741L13.7106 16.2905L13.7319 16.3C14.0027 16.4201 14.2564 16.4533 14.4803 16.3702C14.7048 16.2868 14.8716 16.0967 14.9905 15.8304L14.9989 15.8116L15.0008 15.791C15.0549 15.2088 14.9684 14.6466 14.7416 14.1061L14.742 14.1059L14.737 14.0964C14.3226 13.3058 13.7835 12.727 13.1168 12.3692C12.4501 12.0115 11.6659 11.8802 10.7704 11.9675Z" fill="current" stroke="current" stroke-width="0.25"/>
<path opacity="0.945" d="M21.8987 11.9675L21.8883 11.9686L21.8782 11.9713C20.8655 12.245 20.1088 12.7151 19.6241 13.3905C19.1393 14.0659 18.9373 14.9314 19.0049 15.975L19.0079 16.022L19.0412 16.0553C19.2632 16.2773 19.5014 16.4045 19.7546 16.4045C20.0078 16.4045 20.246 16.2773 20.468 16.0553L20.4937 16.0296L20.5016 15.9941L20.6266 15.4316L20.7488 14.8819C20.9263 14.4951 21.1628 14.2039 21.4559 14.0021C21.7495 13.7999 22.1067 13.6827 22.5326 13.6549C23.1707 13.7294 23.6425 13.9453 23.9638 14.2905C24.2871 14.6379 24.4719 15.1313 24.5048 15.7857L24.5056 15.8031L24.5112 15.8196C24.5739 16.0043 24.6812 16.1594 24.8317 16.2825L24.8448 16.2931L24.8602 16.3C25.131 16.4201 25.3847 16.4533 25.6085 16.3702C25.8331 16.2868 25.9998 16.0967 26.1187 15.8304L26.1267 15.8126L26.1288 15.7932C26.1935 15.2074 26.1067 14.6436 25.869 14.104L25.8693 14.1039L25.8653 14.0964C25.4509 13.3058 24.9118 12.727 24.245 12.3692C23.5784 12.0115 22.7942 11.8802 21.8987 11.9675Z" fill="current" stroke="current" stroke-width="0.25"/>
<path opacity="0.948" d="M10.5982 20.2813L10.5765 20.2805L10.5558 20.2871C10.2686 20.3781 10.0547 20.5255 9.94559 20.7437C9.83658 20.9617 9.84612 21.2224 9.94403 21.5091L9.95124 21.5303L9.96531 21.5476C10.8792 22.6723 12.011 23.5079 13.3592 24.0534L13.3592 24.0535L13.3636 24.0551C15.3703 24.7803 17.2563 24.9484 19.018 24.5516C20.7798 24.1548 22.4075 23.1953 23.9013 21.6815L23.9175 21.6652L23.9267 21.6441C23.9963 21.486 24.0508 21.3224 24.0903 21.1535L24.0976 21.1222L24.0889 21.0912C23.9943 20.7536 23.8347 20.5057 23.5902 20.3898C23.3456 20.274 23.0526 20.3075 22.731 20.4479L22.7064 20.4587L22.6883 20.4787C21.9243 21.3248 21.0231 21.9806 19.9839 22.4466C18.3063 23.0612 16.7441 23.2011 15.2938 22.8743C13.8423 22.5472 12.4928 21.7503 11.2454 20.4751L11.2325 20.4619L11.2164 20.453C11.0236 20.3468 10.8171 20.2894 10.5982 20.2813Z" fill="current" stroke="current" stroke-width="0.25"/>
</svg>
