<svg width="32" height="32" viewBox="0 0 32 32" fill="current" xmlns="http://www.w3.org/2000/svg">
<g id="stay-home (1) 1" clip-path="url(#clip0_1727_1353)">
<g id="Group">
<path id="Vector" opacity="0.971" d="M23.2579 24.4982L23.2579 24.4983C21.0671 27.1542 18.6603 29.5943 16.0373 31.8188H16.0372H16.0367H16.0362H16.0357H16.0352H16.0347H16.0343H16.0338H16.0333H16.0328H16.0323H16.0318H16.0313H16.0308H16.0303H16.0299H16.0294H16.0289H16.0284H16.0279H16.0274H16.0269H16.0264H16.026H16.0255H16.025H16.0245H16.024H16.0235H16.023H16.0225H16.022H16.0216H16.0211H16.0206H16.0201H16.0196H16.0191H16.0186H16.0181H16.0177H16.0172H16.0167H16.0162H16.0157H16.0152H16.0147H16.0142H16.0137H16.0133H16.0128H16.0123H16.0118H16.0113H16.0108H16.0103H16.0098H16.0093H16.0089H16.0084H16.0079H16.0074H16.0069H16.0064H16.0059H16.0054H16.005H16.0045H16.004H16.0035H16.003H16.0025H16.002H16.0015H16.001H16.0006H16.0001H15.9996H15.9991H15.9986H15.9981H15.9976H15.9971H15.9967H15.9962H15.9957H15.9952H15.9947H15.9942H15.9937H15.9932H15.9927H15.9923H15.9918H15.9913H15.9908H15.9903H15.9898H15.9893H15.9888H15.9884H15.9879H15.9874H15.9869H15.9864H15.9859H15.9854H15.9849H15.9844H15.984H15.9835H15.983H15.9825H15.982H15.9815H15.981H15.9805H15.98H15.9796H15.9791H15.9786H15.9781H15.9776H15.9771H15.9766H15.9761H15.9757H15.9752H15.9747H15.9742H15.9737H15.9732H15.9727H15.9722H15.9717H15.9713H15.9708H15.9703H15.9698H15.9693H15.9688H15.9683H15.9678H15.9674H15.9669H15.9664H15.9659H15.9654H15.9649H15.9644H15.9639H15.9634H15.963H15.9625H15.962H15.9615H15.961H15.9605H15.96H15.9595H15.9591H15.9586H15.9581H15.9576H15.9571H15.9566H15.9561H15.9556H15.9551H15.9547H15.9542H15.9537H15.9532H15.9527H15.9522H15.9517H15.9512H15.9507H15.9503H15.9498H15.9493H15.9488H15.9483H15.9478H15.9473H15.9468H15.9464H15.9459H15.9454H15.9449H15.9444H15.9439H15.9434H15.9429H15.9424H15.942H15.9415H15.941H15.9405H15.94H15.9395H15.939H15.9385H15.9381H15.9376H15.9371H15.9366H15.9361H15.9356H15.9351H15.9346H15.9341H15.9337H15.9332H15.9327H15.9322H15.9317H15.9312H15.9307H15.9302H15.9297H15.9293H15.9288H15.9283H15.9278H15.9273H15.9268H15.9263H15.9258H15.9254H15.9249H15.9244H15.9239H15.9234H15.9229H15.9224H15.9219H15.9214H15.921H15.9205H15.92H15.9195H15.919H15.9185H15.918H15.9175H15.9171H15.9166H15.9161H15.9156H15.9151H15.9146H15.9141H15.9136H15.9131H15.9127H15.9122H15.9117H15.9112H15.9107H15.9102H15.9097H15.9092H15.9088H15.9083H15.9078H15.9073H15.9068H15.9063H15.9058H15.9053H15.9048H15.9044H15.9039H15.9034H15.9029H15.9024H15.9019H15.9014H15.9009H15.9005H15.9H15.8995H15.899H15.8985H15.898H15.8975H15.8973C12.4661 28.9094 9.43653 25.6388 6.80849 22.007C5.51685 20.1474 4.50322 18.1413 3.76748 15.9884C2.7141 11.8482 3.49584 8.10702 6.11511 4.75077C8.37333 2.07275 11.2413 0.529958 14.7261 0.11875H14.7271H14.732H14.7369H14.7418H14.7466H14.7515H14.7564H14.7613H14.7662H14.7711H14.7759H14.7808H14.7857H14.7906H14.7955H14.8004H14.8052H14.8101H14.815H14.8199H14.8248H14.8297H14.8345H14.8394H14.8443H14.8492H14.8541H14.859H14.8638H14.8687H14.8736H14.8785H14.8834H14.8882H14.8931H14.898H14.9029H14.9078H14.9127H14.9175H14.9224H14.9273H14.9322H14.9371H14.942H14.9468H14.9517H14.9566H14.9615H14.9664H14.9713H14.9761H14.981H14.9859H14.9908H14.9957H15.0006H15.0054H15.0103H15.0152H15.0201H15.025H15.0298H15.0347H15.0396H15.0445H15.0494H15.0543H15.0591H15.064H15.0689H15.0738H15.0787H15.0836H15.0884H15.0933H15.0982H15.1031H15.108H15.1129H15.1177H15.1226H15.1275H15.1324H15.1373H15.1422H15.147H15.1519H15.1568H15.1617H15.1666H15.1714H15.1763H15.1812H15.1861H15.191H15.1959H15.2007H15.2056H15.2105H15.2154H15.2203H15.2252H15.23H15.2349H15.2398H15.2447H15.2496H15.2545H15.2593H15.2642H15.2691H15.274H15.2789H15.2838H15.2886H15.2935H15.2984H15.3033H15.3082H15.313H15.3179H15.3228H15.3277H15.3326H15.3375H15.3423H15.3472H15.3521H15.357H15.3619H15.3668H15.3716H15.3765H15.3814H15.3863H15.3912H15.3961H15.4009H15.4058H15.4107H15.4156H15.4205H15.4254H15.4302H15.4351H15.44H15.4449H15.4498H15.4547H15.4595H15.4644H15.4693H15.4742H15.4791H15.4839H15.4888H15.4937H15.4986H15.5035H15.5084H15.5132H15.5181H15.523H15.5279H15.5328H15.5377H15.5425H15.5474H15.5523H15.5572H15.5621H15.567H15.5718H15.5767H15.5816H15.5865H15.5914H15.5963H15.6011H15.606H15.6109H15.6158H15.6207H15.6256H15.6304H15.6353H15.6402H15.6451H15.65H15.6548H15.6597H15.6646H15.6695H15.6744H15.6793H15.6841H15.689H15.6939H15.6988H15.7037H15.7086H15.7134H15.7183H15.7232H15.7281H15.733H15.7379H15.7427H15.7476H15.7525H15.7574H15.7623H15.7672H15.772H15.7769H15.7818H15.7867H15.7916H15.7965H15.8013H15.8062H15.8111H15.816H15.8209H15.8257H15.8306H15.8355H15.8404H15.8453H15.8502H15.855H15.8599H15.8648H15.8697H15.8746H15.8795H15.8843H15.8892H15.8941H15.899H15.9039H15.9088H15.9136H15.9185H15.9234H15.9283H15.9332H15.9381H15.9429H15.9478H15.9527H15.9576H15.9625H15.9674H15.9722H15.9771H15.982H15.9869H15.9918H15.9966H16.0015H16.0064H16.0113H16.0162H16.0211H16.0259H16.0308H16.0357H16.0406H16.0455H16.0504H16.0552H16.0601H16.065H16.0699H16.0748H16.0797H16.0845H16.0894H16.0943H16.0992H16.1041H16.109H16.1138H16.1187H16.1236H16.1285H16.1334H16.1383H16.1431H16.148H16.1529H16.1578H16.1627H16.1675H16.1724H16.1773H16.1822H16.1871H16.192H16.1968H16.2017H16.2066H16.2115H16.2164H16.2213H16.2261H16.231H16.2359H16.2408H16.2457H16.2506H16.2554H16.2603H16.2652H16.2701H16.275H16.2799H16.2847H16.2896H16.2945H16.2994H16.3043H16.3092H16.314H16.3189H16.3238H16.3287H16.3336H16.3384H16.3433H16.3482H16.3531H16.358H16.3629H16.3677H16.3726H16.3775H16.3824H16.3873H16.3922H16.397H16.4019H16.4068H16.4117H16.4166H16.4215H16.4263H16.4312H16.4361H16.441H16.4459H16.4508H16.4556H16.4605H16.4654H16.4703H16.4752H16.4801H16.4849H16.4898H16.4947H16.4996H16.5045H16.5093H16.5142H16.5191H16.524H16.5289H16.5338H16.5386H16.5435H16.5484H16.5533H16.5582H16.5631H16.5679H16.5728H16.5777H16.5826H16.5875H16.5924H16.5972H16.6021H16.607H16.6119H16.6168H16.6217H16.6265H16.6314H16.6363H16.6412H16.6461H16.651H16.6558H16.6607H16.6656H16.6705H16.6754H16.6802H16.6851H16.69H16.6949H16.6998H16.7047H16.7095H16.7144H16.7193H16.7242H16.7291H16.734H16.7388H16.7437H16.7486H16.7535H16.7584H16.7633H16.7681H16.773H16.7779H16.7828H16.7877H16.7926H16.7974H16.8023H16.8072H16.8121H16.817H16.8218H16.8267H16.8316H16.8365H16.8414H16.8463H16.8511H16.856H16.8609H16.8658H16.8707H16.8756H16.8804H16.8853H16.8902H16.8951H16.9H16.9049H16.9097H16.9146H16.9195H16.9244H16.9293H16.9342H16.939H16.9439H16.9488H16.9537H16.9586H16.9635H16.9683H16.9732H16.9781H16.983H16.9879H16.9927H16.9976H17.0025H17.0074H17.0123H17.0172H17.022H17.0269H17.0318H17.0367H17.0416H17.0465H17.0513H17.0562H17.0611H17.066H17.0709H17.0758H17.0806H17.0855H17.0904H17.0953H17.1002H17.105H17.1099H17.1148H17.1197H17.1246H17.1295H17.1343H17.1392H17.1441H17.149H17.1539H17.1588H17.1636H17.1685H17.1734H17.1783H17.1832H17.1881H17.1929H17.1978H17.2027H17.207C22.2386 0.820154 25.7632 3.4931 27.7968 8.14963C28.9983 11.4252 28.8952 14.6538 27.4872 17.8438C26.3494 20.2438 24.9396 22.4618 23.2579 24.4982ZM15.9124 2.31894L15.9124 2.31841L15.8998 2.31884C13.2504 2.40862 10.9256 3.32797 8.93103 5.07465L8.93087 5.07447L8.9247 5.08053C7.33907 6.6393 6.31656 8.34329 5.86615 10.1926C5.41574 12.0419 5.54005 14.0258 6.23102 16.1403L6.30139 16.3557L6.47217 16.2068C9.60729 13.4737 12.7514 10.752 15.9046 8.04177L18.338 10.1447L20.8693 12.3322L21.0986 12.5304L21.1171 12.2279C21.1766 11.2548 21.1985 10.2809 21.1826 9.30625H21.185H21.19H21.195H21.2H21.205H21.21H21.215H21.22H21.225H21.2301H21.2351H21.2401H21.2451H21.2501H21.2551H21.2601H21.2651H21.2701H21.2751H21.2801H21.2851H21.2901H21.2951H21.3001H21.3051H21.3101H21.3151H21.3201H21.3251H21.3302H21.3352H21.3402H21.3452H21.3502H21.3552H21.3602H21.3652H21.3702H21.3752H21.3802H21.3852H21.3902H21.3952H21.4002H21.4052H21.4102H21.4152H21.4202H21.4252H21.4302H21.4353H21.4403H21.4453H21.4503H21.4553H21.4603H21.4653H21.4703H21.4753H21.4803H21.4853H21.4903H21.4953H21.5003H21.5053H21.5103H21.5153H21.5203H21.5253H21.5303H21.5354H21.5404H21.5454H21.5504H21.5554H21.5604H21.5654H21.5704H21.5754H21.5804H21.5854H21.5904H21.5954H21.6004H21.6054H21.6104H21.6154H21.6204H21.6254H21.6304H21.6354H21.6405H21.6455H21.6505H21.6555H21.6605H21.6655H21.6705H21.6755H21.6805H21.6855H21.6905H21.6955H21.7005H21.7055H21.7105H21.7155H21.7205H21.7255H21.7305H21.7355H21.7406H21.7456H21.7506H21.7556H21.7606H21.7656H21.7706H21.7756H21.7806H21.7856H21.7906H21.7956H21.8006H21.8056H21.8106H21.8156H21.8206H21.8256H21.8306H21.8356H21.8406H21.8457H21.8507H21.8557H21.8607H21.8657H21.8707H21.8757H21.8807H21.8857H21.8907H21.8957H21.9007H21.9057H21.9107H21.9157H21.9207H21.9257H21.9307H21.9357H21.9407H21.9457H21.9508H21.9558H21.9608H21.9658H21.9708H21.9758H21.9808H21.9858H21.9908H21.9958H22.0008H22.0058H22.0108H22.0158H22.0208H22.0258H22.0308H22.0358H22.0408H22.0458H22.0509H22.0559H22.0609H22.0659H22.0709H22.0759H22.0809H22.0859H22.0909H22.0959H22.1009H22.1059H22.1109H22.1159H22.1209H22.1259H22.1309H22.1359H22.1409H22.1459H22.1509H22.156H22.161H22.166H22.171H22.176H22.181H22.186H22.191H22.196H22.201H22.206H22.211H22.216H22.221H22.226H22.231H22.236H22.241H22.246H22.251H22.256H22.2611H22.2661H22.2711H22.2761H22.2811H22.2861H22.2911H22.2961H22.3011H22.3061H22.3111H22.3161H22.3211H22.3261H22.3311H22.3361H22.3411H22.3461H22.3511H22.3561H22.3612H22.3662H22.3712H22.3762H22.3812H22.3862H22.3912H22.3962H22.4012H22.4062H22.4112H22.4162H22.4212H22.4262H22.4312H22.4362H22.4412H22.4462H22.4512H22.4562H22.4612H22.4663H22.4713H22.4763H22.4813H22.4863H22.4913H22.4963H22.5013H22.5063H22.5113H22.5163H22.5213H22.5263H22.5313H22.5363H22.5413H22.5463H22.5513H22.5563H22.5613H22.5663H22.5714H22.5764H22.5814H22.5864H22.5914H22.5964H22.6014H22.6064H22.6114H22.6164H22.6214H22.6264H22.6314H22.6364H22.6414H22.6464H22.6514H22.6564H22.6614H22.6664H22.6714H22.6765H22.6815H22.6865H22.6915H22.6965H22.7015H22.7065H22.7115H22.7165H22.7215H22.7265H22.7315H22.7365H22.7415H22.7465H22.7515H22.7565H22.7615H22.7665H22.7715H22.7766H22.7816H22.7866H22.7916H22.7966H22.8016H22.8066H22.8116H22.8166H22.8216H22.8266H22.8316H22.8366H22.8416H22.8466H22.8516H22.8566H22.8616H22.8666H22.8716H22.8766H22.8817H22.8867H22.8917H22.8967H22.9017H22.9067H22.9117H22.9167H22.9217H22.9267H22.9317H22.9367H22.9417H22.9467H22.9517H22.9567H22.9617H22.9667H22.9717H22.9767H22.9818H22.9868H22.9918H22.9968H23.0018H23.0068H23.0118H23.0168H23.0218H23.0268H23.0318H23.0368H23.0418H23.0468H23.0518H23.0568H23.0618H23.0668H23.0718H23.0768H23.0818H23.0869H23.0919H23.0969H23.1019H23.1069H23.1119H23.1169H23.1219H23.1269H23.1319H23.1369H23.1419H23.1469H23.1519H23.1569H23.1619H23.1669H23.1719H23.1769H23.1819H23.187H23.192H23.197H23.202H23.207H23.212H23.217H23.222H23.227H23.232H23.237H23.242H23.247H23.252H23.257H23.262H23.267H23.272H23.277H23.282H23.287H23.2921H23.2971H23.3021H23.3071H23.3121H23.3171H23.3221H23.3271H23.3321H23.3371H23.3421H23.3471H23.3521H23.3571H23.3621H23.3671H23.3721H23.3771H23.3821H23.3871H23.3922H23.3972H23.4022H23.4072H23.4122H23.4172H23.4222H23.4272H23.4322H23.4372H23.4415C23.4325 11.0489 23.4432 12.7914 23.4736 14.5339L23.4748 14.5999L23.5243 14.6437C24.1519 15.1982 24.7886 15.741 25.4346 16.2721L25.5959 16.4047L25.6701 16.2095C26.6209 13.7069 26.5891 11.2093 25.575 8.72457L25.5752 8.72446L25.5713 8.71628C24.604 6.70362 23.3144 5.159 21.6999 4.08972C20.0855 3.02048 18.1544 2.432 15.9124 2.31894ZM15.8642 11.1328L15.796 11.1228L15.744 11.168C12.9625 13.585 10.1914 16.0123 7.43057 18.4501L7.33997 18.5301L7.39887 18.6356C7.85141 19.4465 8.34373 20.2321 8.87571 20.9923L8.87568 20.9923L8.87734 20.9945C10.9232 23.8041 13.2533 26.3745 15.8675 28.7057L15.9669 28.7943L16.0666 28.7062C19.389 25.7726 22.211 22.4385 24.5322 18.7042L24.6002 18.5949L24.5025 18.5112C21.7138 16.1183 18.9436 13.7022 16.1919 11.2628L16.1829 11.2548L16.1728 11.2484C16.0777 11.188 15.9745 11.1491 15.8642 11.1328Z" fill="current" stroke="#0C0C0F" stroke-width="0.3"/>
</g>
<g id="Group_2">
<path id="Vector_2" opacity="0.983" d="M14.1813 17.1188H14.1851H14.1924H14.1997H14.207H14.2144H14.2217H14.229H14.2363H14.2437H14.251H14.2583H14.2656H14.2729H14.2803H14.2876H14.2949H14.3022H14.3096H14.3169H14.3242H14.3315H14.3389H14.3462H14.3535H14.3608H14.3682H14.3755H14.3828H14.3901H14.3975H14.4048H14.4121H14.4194H14.4268H14.4341H14.4414H14.4487H14.4561H14.4634H14.4707H14.478H14.4854H14.4927H14.5H14.5073H14.5146H14.522H14.5293H14.5366H14.5439H14.5513H14.5586H14.5659H14.5732H14.5806H14.5879H14.5952H14.6025H14.6099H14.6172H14.6245H14.6318H14.6392H14.6465H14.6538H14.6611H14.6685H14.6758H14.6831H14.6904H14.6978H14.7051H14.7124H14.7197H14.7271H14.7344H14.7417H14.749H14.7563H14.7637H14.771H14.7783H14.7856H14.793H14.8003H14.8076H14.8149H14.8223H14.8296H14.8369H14.8442H14.8516H14.8589H14.8662H14.8735H14.8809H14.8882H14.8955H14.9028H14.9102H14.9175H14.9248H14.9321H14.9395H14.9468H14.9541H14.9614H14.9688H14.9761H14.9834H14.9907H14.998H15.0054H15.0127H15.02H15.0273H15.0347H15.042H15.0493H15.0566H15.064H15.0713H15.0786H15.0859H15.0933H15.1006H15.1079H15.1152H15.1226H15.1299H15.1372H15.1445H15.1519H15.1592H15.1665H15.1738H15.1812H15.1885H15.1958H15.2031H15.2104H15.2178H15.2251H15.2324H15.2397H15.2471H15.2544H15.2617H15.269H15.2764H15.2837H15.291H15.2983H15.3057H15.313H15.3203H15.3276H15.335H15.3423H15.3496H15.3569H15.3643H15.3716H15.3789H15.3862H15.3936H15.4009H15.4082H15.4155H15.4229H15.4302H15.4375H15.4448H15.4521H15.4595H15.4668H15.4741H15.4814H15.4888H15.4961H15.5034H15.5107H15.5181H15.5254H15.5327H15.54H15.5474H15.5547H15.562H15.5693H15.5767H15.584H15.5913H15.5986H15.606H15.6133H15.6206H15.6279H15.6353H15.6426H15.6499H15.6572H15.6646H15.6719H15.6792H15.6865H15.6938H15.7012H15.7085H15.7158H15.7231H15.7305H15.7378H15.7451H15.7524H15.7598H15.7671H15.7744H15.7817H15.7891H15.7964H15.8037H15.811H15.8184H15.8257H15.833H15.8403H15.8477H15.855H15.8623H15.8696H15.877H15.8843H15.8916H15.8989H15.9062H15.9136H15.9209H15.9282H15.9355H15.9429H15.9502H15.9575H15.9648H15.9722H15.9795H15.9868H15.9941H16.0015H16.0088H16.0161H16.0234H16.0308H16.0381H16.0454H16.0527H16.0601H16.0674H16.0747H16.082H16.0894H16.0967H16.104H16.1113H16.1187H16.126H16.1333H16.1406H16.1479H16.1553H16.1626H16.1699H16.1772H16.1846H16.1919H16.1992H16.2065H16.2139H16.2212H16.2285H16.2358H16.2432H16.2505H16.2578H16.2651H16.2725H16.2798H16.2871H16.2944H16.3018H16.3091H16.3164H16.3237H16.3311H16.3384H16.3457H16.353H16.3604H16.3677H16.375H16.3823H16.3896H16.397H16.4043H16.4116H16.4189H16.4263H16.4336H16.4409H16.4482H16.4556H16.4629H16.4702H16.4775H16.4849H16.4922H16.4995H16.5068H16.5142H16.5215H16.5288H16.5361H16.5435H16.5508H16.5581H16.5654H16.5728H16.5801H16.5874H16.5947H16.6021H16.6094H16.6167H16.624H16.6313H16.6387H16.646H16.6533H16.6606H16.668H16.6753H16.6826H16.6899H16.6973H16.7046H16.7119H16.7192H16.7266H16.7339H16.7412H16.7485H16.7559H16.7632H16.7705H16.7778H16.7852H16.7925H16.7998H16.8071H16.8145H16.8218H16.8291H16.8364H16.8438H16.8511H16.8584H16.8657H16.873H16.8804H16.8877H16.895H16.9023H16.9097H16.917H16.9243H16.9316H16.939H16.9463H16.9536H16.9609H16.9683H16.9756H16.9829H16.9902H16.9976H17.0049H17.0122H17.0195H17.0269H17.0342H17.0415H17.0488H17.0562H17.0635H17.0708H17.0781H17.0854H17.0928H17.1001H17.1074H17.1147H17.1221H17.1294H17.1367H17.144H17.1514H17.1587H17.166H17.1733H17.1807H17.188H17.1953H17.2026H17.21H17.2173H17.2246H17.2319H17.2393H17.2466H17.2539H17.2612H17.2686H17.2759H17.2832H17.2905H17.2979H17.3052H17.3125H17.3198H17.3271H17.3345H17.3418H17.3491H17.3564H17.3638H17.3711H17.3784H17.3857H17.3931H17.4004H17.4077H17.415H17.4224H17.4297H17.437H17.4443H17.4517H17.459H17.4663H17.4736H17.481H17.4883H17.4956H17.5029H17.5103H17.5176H17.5249H17.5322H17.5396H17.5469H17.5542H17.5615H17.5688H17.5762H17.5835H17.5908H17.5981H17.6055H17.6128H17.6201H17.6274H17.6312V17.1251V17.1326V17.14V17.1475V17.1549V17.1624V17.1698V17.1772V17.1847V17.1921V17.1996V17.207V17.2145V17.2219V17.2294V17.2368V17.2443V17.2517V17.2592V17.2666V17.274V17.2815V17.2889V17.2964V17.3038V17.3113V17.3187V17.3262V17.3336V17.3411V17.3485V17.356V17.3634V17.3708V17.3783V17.3857V17.3932V17.4006V17.4081V17.4155V17.423V17.4304V17.4379V17.4453V17.4528V17.4602V17.4676V17.4751V17.4825V17.49V17.4974V17.5049V17.5123V17.5198V17.5272V17.5347V17.5421V17.5496V17.557V17.5644V17.5719V17.5793V17.5868V17.5942V17.6017V17.6091V17.6166V17.624V17.6315V17.6389V17.6464V17.6538V17.6612V17.6687V17.6761V17.6836V17.691V17.6985V17.7059V17.7134V17.7208V17.7283V17.7357V17.7432V17.7506V17.7581V17.7655V17.7729V17.7804V17.7878V17.7953V17.8027V17.8102V17.8176V17.8251V17.8325V17.84V17.8474V17.8549V17.8623V17.8697V17.8772V17.8846V17.8921V17.8995V17.907V17.9144V17.9219V17.9293V17.9368V17.9442V17.9517V17.9591V17.9665V17.974V17.9814V17.9889V17.9963V18.0038V18.0112V18.0187V18.0261V18.0336V18.041V18.0485V18.0559V18.0633V18.0708V18.0782V18.0857V18.0931V18.1006V18.108V18.1155V18.1229V18.1304V18.1378V18.1453V18.1527V18.1602V18.1676V18.175V18.1825V18.1899V18.1974V18.2048V18.2123V18.2197V18.2272V18.2346V18.2421V18.2495V18.257V18.2644V18.2718V18.2793V18.2867V18.2942V18.3016V18.3091V18.3165V18.324V18.3314V18.3389V18.3463V18.3538V18.3612V18.3686V18.3761V18.3835V18.391V18.3984V18.4059V18.4133V18.4208V18.4282V18.4357V18.4431V18.4506V18.458V18.4655V18.4729V18.4803V18.4878V18.4952V18.5027V18.5101V18.5176V18.525V18.5325V18.5399V18.5474V18.5548V18.5623V18.5697V18.5771V18.5846V18.592V18.5995V18.6069V18.6144V18.6218V18.6293V18.6367V18.6442V18.6516V18.6591V18.6665V18.6739V18.6814V18.6888V18.6963V18.7037V18.7112V18.7186V18.7261V18.7335V18.741V18.7484V18.7559V18.7633V18.7708V18.7782V18.7856V18.7931V18.8005V18.808V18.8154V18.8229V18.8303V18.8378V18.8452V18.8527V18.8601V18.8676V18.875V18.8824V18.8899V18.8973V18.9048V18.9122V18.9197V18.9271V18.9346V18.942V18.9495V18.9569V18.9644V18.9718V18.9792V18.9867V18.9941V19.0016V19.009V19.0165V19.0239V19.0314V19.0388V19.0463V19.0537V19.0612V19.0686V19.0761V19.0835V19.0909V19.0984V19.1058V19.1133V19.1207V19.1282V19.1356V19.1431V19.1505V19.158V19.1654V19.1729V19.1803V19.1877V19.1952V19.2026V19.2101V19.2175V19.225V19.2324V19.2399V19.2473V19.2548V19.2622V19.2697V19.2771V19.2845V19.292V19.2994V19.3069V19.3143V19.3218V19.3292V19.3367V19.3441V19.3516V19.359V19.3665V19.3739V19.3814V19.3888V19.3962V19.4037V19.4111V19.4186V19.426V19.4335V19.4409V19.4484V19.4558V19.4633V19.4707V19.4782V19.4856V19.493V19.5005V19.5079V19.5154V19.5228V19.5303V19.5377V19.5452V19.5526V19.5601V19.5675V19.575V19.5824V19.5898V19.5973V19.6047V19.6122V19.6196V19.6271V19.6345V19.642V19.6494V19.6569V19.6643V19.6718V19.6792V19.6867V19.6941V19.7015V19.709V19.7164V19.7239V19.7313V19.7388V19.7462V19.7537V19.7611V19.7686V19.776V19.7835V19.7909V19.7983V19.8058V19.8132V19.8207V19.8281V19.8356V19.843V19.8505V19.8579V19.8654V19.8728V19.8803V19.8877V19.8951V19.9026V19.91V19.9175V19.9249V19.9324V19.9398V19.9473V19.9547V19.9622V19.9696V19.9771V19.9845V19.9919V19.9994V20.0068V20.0143V20.0217V20.0292V20.0366V20.0441V20.0515V20.059V20.0664V20.0739V20.0813V20.0888V20.0962V20.1036V20.1111V20.1185V20.126V20.1334V20.1409V20.1483V20.1558V20.1632V20.1707V20.1781V20.1856V20.193V20.2004V20.2079V20.2153V20.2228V20.2302V20.2377V20.2451V20.2526V20.26V20.2675V20.2749V20.2824V20.2898V20.2972V20.3047V20.3121V20.3196V20.327V20.3345V20.3419V20.3494V20.3568V20.3643V20.3717V20.3792V20.3866V20.394V20.4015V20.4089V20.4164V20.4238V20.4313V20.4387V20.4462V20.4536V20.4611V20.4685V20.476V20.4834V20.4908V20.4983V20.5057V20.5132V20.5206V20.5281V20.5355V20.543V20.5504V20.5579V20.5653V20.5728V20.5802V20.5876V20.5951V20.6025V20.61V20.6174V20.6249V20.6312H17.6274H17.6201H17.6128H17.6055H17.5981H17.5908H17.5835H17.5762H17.5688H17.5615H17.5542H17.5469H17.5396H17.5322H17.5249H17.5176H17.5103H17.5029H17.4956H17.4883H17.481H17.4736H17.4663H17.459H17.4517H17.4443H17.437H17.4297H17.4224H17.415H17.4077H17.4004H17.3931H17.3857H17.3784H17.3711H17.3638H17.3564H17.3491H17.3418H17.3345H17.3271H17.3198H17.3125H17.3052H17.2979H17.2905H17.2832H17.2759H17.2686H17.2612H17.2539H17.2466H17.2393H17.2319H17.2246H17.2173H17.21H17.2026H17.1953H17.188H17.1807H17.1733H17.166H17.1587H17.1514H17.144H17.1367H17.1294H17.1221H17.1147H17.1074H17.1001H17.0928H17.0854H17.0781H17.0708H17.0635H17.0562H17.0488H17.0415H17.0342H17.0269H17.0195H17.0122H17.0049H16.9976H16.9902H16.9829H16.9756H16.9683H16.9609H16.9536H16.9463H16.939H16.9316H16.9243H16.917H16.9097H16.9023H16.895H16.8877H16.8804H16.873H16.8657H16.8584H16.8511H16.8438H16.8364H16.8291H16.8218H16.8145H16.8071H16.7998H16.7925H16.7852H16.7778H16.7705H16.7632H16.7559H16.7485H16.7412H16.7339H16.7266H16.7192H16.7119H16.7046H16.6973H16.6899H16.6826H16.6753H16.668H16.6606H16.6533H16.646H16.6387H16.6313H16.624H16.6167H16.6094H16.6021H16.5947H16.5874H16.5801H16.5728H16.5654H16.5581H16.5508H16.5435H16.5361H16.5288H16.5215H16.5142H16.5068H16.4995H16.4922H16.4849H16.4775H16.4702H16.4629H16.4556H16.4482H16.4409H16.4336H16.4263H16.4189H16.4116H16.4043H16.397H16.3896H16.3823H16.375H16.3677H16.3604H16.353H16.3457H16.3384H16.3311H16.3237H16.3164H16.3091H16.3018H16.2944H16.2871H16.2798H16.2725H16.2651H16.2578H16.2505H16.2432H16.2358H16.2285H16.2212H16.2139H16.2065H16.1992H16.1919H16.1846H16.1772H16.1699H16.1626H16.1553H16.1479H16.1406H16.1333H16.126H16.1187H16.1113H16.104H16.0967H16.0894H16.082H16.0747H16.0674H16.0601H16.0527H16.0454H16.0381H16.0308H16.0234H16.0161H16.0088H16.0015H15.9941H15.9868H15.9795H15.9722H15.9648H15.9575H15.9502H15.9429H15.9355H15.9282H15.9209H15.9136H15.9062H15.8989H15.8916H15.8843H15.877H15.8696H15.8623H15.855H15.8477H15.8403H15.833H15.8257H15.8184H15.811H15.8037H15.7964H15.7891H15.7817H15.7744H15.7671H15.7598H15.7524H15.7451H15.7378H15.7305H15.7231H15.7158H15.7085H15.7012H15.6938H15.6865H15.6792H15.6719H15.6646H15.6572H15.6499H15.6426H15.6353H15.6279H15.6206H15.6133H15.606H15.5986H15.5913H15.584H15.5767H15.5693H15.562H15.5547H15.5474H15.54H15.5327H15.5254H15.5181H15.5107H15.5034H15.4961H15.4888H15.4814H15.4741H15.4668H15.4595H15.4521H15.4448H15.4375H15.4302H15.4229H15.4155H15.4082H15.4009H15.3936H15.3862H15.3789H15.3716H15.3643H15.3569H15.3496H15.3423H15.335H15.3276H15.3203H15.313H15.3057H15.2983H15.291H15.2837H15.2764H15.269H15.2617H15.2544H15.2471H15.2397H15.2324H15.2251H15.2178H15.2104H15.2031H15.1958H15.1885H15.1812H15.1738H15.1665H15.1592H15.1519H15.1445H15.1372H15.1299H15.1226H15.1152H15.1079H15.1006H15.0933H15.0859H15.0786H15.0713H15.064H15.0566H15.0493H15.042H15.0347H15.0273H15.02H15.0127H15.0054H14.998H14.9907H14.9834H14.9761H14.9688H14.9614H14.9541H14.9468H14.9395H14.9321H14.9248H14.9175H14.9102H14.9028H14.8955H14.8882H14.8809H14.8735H14.8662H14.8589H14.8516H14.8442H14.8369H14.8296H14.8223H14.8149H14.8076H14.8003H14.793H14.7856H14.7783H14.771H14.7637H14.7563H14.749H14.7417H14.7344H14.7271H14.7197H14.7124H14.7051H14.6978H14.6904H14.6831H14.6758H14.6685H14.6611H14.6538H14.6465H14.6392H14.6318H14.6245H14.6172H14.6099H14.6025H14.5952H14.5879H14.5806H14.5732H14.5659H14.5586H14.5513H14.5439H14.5366H14.5293H14.522H14.5146H14.5073H14.5H14.4927H14.4854H14.478H14.4707H14.4634H14.4561H14.4487H14.4414H14.4341H14.4268H14.4194H14.4121H14.4048H14.3975H14.3901H14.3828H14.3755H14.3682H14.3608H14.3535H14.3462H14.3389H14.3315H14.3242H14.3169H14.3096H14.3022H14.2949H14.2876H14.2803H14.2729H14.2656H14.2583H14.251H14.2437H14.2363H14.229H14.2217H14.2144H14.207H14.1997H14.1924H14.1851H14.1813V20.6249V20.6174V20.61V20.6025V20.5951V20.5876V20.5802V20.5728V20.5653V20.5579V20.5504V20.543V20.5355V20.5281V20.5206V20.5132V20.5057V20.4983V20.4908V20.4834V20.476V20.4685V20.4611V20.4536V20.4462V20.4387V20.4313V20.4238V20.4164V20.4089V20.4015V20.394V20.3866V20.3792V20.3717V20.3643V20.3568V20.3494V20.3419V20.3345V20.327V20.3196V20.3121V20.3047V20.2972V20.2898V20.2824V20.2749V20.2675V20.26V20.2526V20.2451V20.2377V20.2302V20.2228V20.2153V20.2079V20.2004V20.193V20.1856V20.1781V20.1707V20.1632V20.1558V20.1483V20.1409V20.1334V20.126V20.1185V20.1111V20.1036V20.0962V20.0888V20.0813V20.0739V20.0664V20.059V20.0515V20.0441V20.0366V20.0292V20.0217V20.0143V20.0068V19.9994V19.9919V19.9845V19.9771V19.9696V19.9622V19.9547V19.9473V19.9398V19.9324V19.9249V19.9175V19.91V19.9026V19.8951V19.8877V19.8803V19.8728V19.8654V19.8579V19.8505V19.843V19.8356V19.8281V19.8207V19.8132V19.8058V19.7983V19.7909V19.7835V19.776V19.7686V19.7611V19.7537V19.7462V19.7388V19.7313V19.7239V19.7164V19.709V19.7015V19.6941V19.6867V19.6792V19.6718V19.6643V19.6569V19.6494V19.642V19.6345V19.6271V19.6196V19.6122V19.6047V19.5973V19.5898V19.5824V19.575V19.5675V19.5601V19.5526V19.5452V19.5377V19.5303V19.5228V19.5154V19.5079V19.5005V19.493V19.4856V19.4782V19.4707V19.4633V19.4558V19.4484V19.4409V19.4335V19.426V19.4186V19.4111V19.4037V19.3962V19.3888V19.3814V19.3739V19.3665V19.359V19.3516V19.3441V19.3367V19.3292V19.3218V19.3143V19.3069V19.2994V19.292V19.2845V19.2771V19.2697V19.2622V19.2548V19.2473V19.2399V19.2324V19.225V19.2175V19.2101V19.2026V19.1952V19.1877V19.1803V19.1729V19.1654V19.158V19.1505V19.1431V19.1356V19.1282V19.1207V19.1133V19.1058V19.0984V19.0909V19.0835V19.0761V19.0686V19.0612V19.0537V19.0463V19.0388V19.0314V19.0239V19.0165V19.009V19.0016V18.9941V18.9867V18.9792V18.9718V18.9644V18.9569V18.9495V18.942V18.9346V18.9271V18.9197V18.9122V18.9048V18.8973V18.8899V18.8824V18.875V18.8676V18.8601V18.8527V18.8452V18.8378V18.8303V18.8229V18.8154V18.808V18.8005V18.7931V18.7856V18.7782V18.7708V18.7633V18.7559V18.7484V18.741V18.7335V18.7261V18.7186V18.7112V18.7037V18.6963V18.6888V18.6814V18.6739V18.6665V18.6591V18.6516V18.6442V18.6367V18.6293V18.6218V18.6144V18.6069V18.5995V18.592V18.5846V18.5771V18.5697V18.5623V18.5548V18.5474V18.5399V18.5325V18.525V18.5176V18.5101V18.5027V18.4952V18.4878V18.4803V18.4729V18.4655V18.458V18.4506V18.4431V18.4357V18.4282V18.4208V18.4133V18.4059V18.3984V18.391V18.3835V18.3761V18.3686V18.3612V18.3538V18.3463V18.3389V18.3314V18.324V18.3165V18.3091V18.3016V18.2942V18.2867V18.2793V18.2718V18.2644V18.257V18.2495V18.2421V18.2346V18.2272V18.2197V18.2123V18.2048V18.1974V18.1899V18.1825V18.175V18.1676V18.1602V18.1527V18.1453V18.1378V18.1304V18.1229V18.1155V18.108V18.1006V18.0931V18.0857V18.0782V18.0708V18.0633V18.0559V18.0485V18.041V18.0336V18.0261V18.0187V18.0112V18.0038V17.9963V17.9889V17.9814V17.974V17.9665V17.9591V17.9517V17.9442V17.9368V17.9293V17.9219V17.9144V17.907V17.8995V17.8921V17.8846V17.8772V17.8697V17.8623V17.8549V17.8474V17.84V17.8325V17.8251V17.8176V17.8102V17.8027V17.7953V17.7878V17.7804V17.7729V17.7655V17.7581V17.7506V17.7432V17.7357V17.7283V17.7208V17.7134V17.7059V17.6985V17.691V17.6836V17.6761V17.6687V17.6612V17.6538V17.6464V17.6389V17.6315V17.624V17.6166V17.6091V17.6017V17.5942V17.5868V17.5793V17.5719V17.5644V17.557V17.5496V17.5421V17.5347V17.5272V17.5198V17.5123V17.5049V17.4974V17.49V17.4825V17.4751V17.4676V17.4602V17.4528V17.4453V17.4379V17.4304V17.423V17.4155V17.4081V17.4006V17.3932V17.3857V17.3783V17.3708V17.3634V17.356V17.3485V17.3411V17.3336V17.3262V17.3187V17.3113V17.3038V17.2964V17.2889V17.2815V17.274V17.2666V17.2592V17.2517V17.2443V17.2368V17.2294V17.2219V17.2145V17.207V17.1996V17.1921V17.1847V17.1772V17.1698V17.1624V17.1549V17.1475V17.14V17.1326V17.1251V17.1188Z" fill="current" stroke="#0C0C0F" stroke-width="0.3"/>
</g>
</g>
<defs>
<clipPath id="clip0_1727_1353">
<rect width="32" height="32" fill="current"/>
</clipPath>
</defs>
</svg>
