<svg width="32" height="32" viewBox="0 0 32 32" fill="current" xmlns="http://www.w3.org/2000/svg">
<g id="Group 950682489">
<g id="Group">
<path id="Vector" opacity="0.967" d="M15.9223 2.2709L15.9223 2.27069L15.9178 2.27093C15.0151 2.31801 14.1085 2.42522 13.198 2.59254L13.198 2.59244L13.195 2.59319C7.85364 3.92133 4.36519 7.21396 2.73455 12.4665L2.70703 12.5551L2.79619 12.5293C4.07084 12.1608 5.35553 11.8045 6.6502 11.4603C12.878 9.9887 19.1056 9.9887 25.3333 11.4603C26.6283 11.8046 27.913 12.1609 29.1874 12.5293L29.2761 12.555L29.2491 12.4667C28.8959 11.3139 28.4305 10.2057 27.8528 9.14193L27.8529 9.14188L27.8513 9.13926C25.1084 4.75815 21.1303 2.46786 15.9223 2.2709ZM14.2049 12.6096L14.2049 12.6096L14.2035 12.6097C10.1371 12.8674 6.19314 13.7241 2.37179 15.1797L2.34191 15.1911L2.3397 15.223C2.29194 15.9145 2.29194 16.606 2.3397 17.2976L2.34263 17.34L2.38498 17.3439C4.96583 17.5826 7.54611 17.8556 10.1258 18.1631C11.2997 18.5566 12.2297 19.1565 12.9182 19.9614C13.6075 20.7674 14.0567 21.7816 14.2644 23.0062C14.591 25.17 14.9242 27.3327 15.2641 29.4944L15.2677 29.5178L15.2882 29.5298C15.4989 29.6534 15.7321 29.7268 15.9872 29.7504L15.9943 29.751L16.0014 29.7496C16.2305 29.7048 16.4571 29.6572 16.6811 29.6068L16.7144 29.5992L16.7195 29.5655C17.0688 27.2593 17.4257 24.9544 17.7904 22.6506C18.0229 21.4978 18.4785 20.5492 19.1555 19.8025C19.832 19.0565 20.7318 18.5097 21.8572 18.1632C24.42 17.8551 26.9884 17.5938 29.5624 17.3796L29.601 17.3764L29.6075 17.3382C29.7294 16.6277 29.7415 15.9214 29.6435 15.2195L29.6394 15.1903L29.6119 15.1797C24.6568 13.2703 19.5209 12.4135 14.2049 12.6096ZM2.85836 19.6686L2.78325 19.6616L2.80604 19.7335C4.39762 24.7564 7.74286 27.9537 12.8371 29.3211L12.91 29.3406L12.8996 29.2659C12.6016 27.1238 12.2803 24.9844 11.9355 22.8477L11.9358 22.8476L11.9343 22.8423C11.7402 22.1441 11.4169 21.5793 10.963 21.1502C10.5091 20.7211 9.92706 20.43 9.21919 20.2756L9.21926 20.2753L9.21337 20.2747C7.09465 20.0687 4.97629 19.8666 2.85836 19.6686ZM29.1774 19.8052L29.1865 19.7771L29.1664 19.7556C29.0965 19.6806 29.0086 19.6508 28.9085 19.6689C26.8747 19.8849 24.8286 20.0868 22.7705 20.2747L22.7704 20.2743L22.7644 20.2756C22.0565 20.43 21.4744 20.7211 21.0205 21.1502C20.5666 21.5793 20.2433 22.1441 20.0492 22.8423L20.0489 22.8422L20.0481 22.8477C19.7033 24.9844 19.3819 27.1238 19.084 29.2659L19.0736 29.3406L19.1465 29.3211C24.2087 27.9619 27.5539 24.7885 29.1774 19.8052ZM9.51479 1.40384C11.1192 0.719235 12.7798 0.281001 14.4966 0.0890458C20.0361 -0.252164 24.6258 1.64278 28.2703 5.77536C31.7297 10.1588 32.7498 15.0616 31.331 20.4887C29.6048 25.8375 26.0826 29.4257 20.761 31.2571C15.2344 32.7833 10.2297 31.7884 5.74189 28.2718C1.28055 24.2972 -0.557681 19.3354 0.225463 13.3807C1.33227 7.83889 4.42772 3.84789 9.51479 1.40384Z" fill="current" stroke="#101014" stroke-width="0.1"/>
</g>
<g id="Group_2">
<path id="Vector_2" opacity="0.967" d="M13.7881 15.4819C14.0226 14.6095 14.5669 14.0539 15.4255 13.8097C16.4325 13.751 17.1569 13.9581 17.6117 14.418C18.0663 14.8777 18.2629 15.6015 18.1881 16.6022C17.9638 17.2663 17.6222 17.7302 17.1665 18.0009C16.7103 18.2719 16.1327 18.3535 15.4291 18.2391C14.7629 18.0151 14.2977 17.6737 14.0264 17.2182C13.7547 16.7624 13.6731 16.1852 13.7881 15.4819Z" fill="current" stroke="#101014" stroke-width="0.1"/>
</g>
</g>
</svg>
